<?xml version="1.0" encoding="UTF-8"?>
<!DOCTYPE svg PUBLIC "-//W3C//DTD SVG 1.1//EN" "http://www.w3.org/Graphics/SVG/1.1/DTD/svg11.dtd">
<svg xmlns="http://www.w3.org/2000/svg" style="background: transparent; background-color: transparent; color-scheme: light dark;" xmlns:xlink="http://www.w3.org/1999/xlink" version="1.1" width="858px" height="578px" viewBox="0 0 858 578"><defs/><g><g data-cell-id="0"><g data-cell-id="1"><g data-cell-id="GHSxaXnzdkKThOCYZxHZ-3"><g transform="translate(0.5,0.5)"><path d="M 189.01 354.01 L 189.01 353.32 L 189.01 353.26 L 189.01 352.76 L 189.01 352.25 L 189.01 351.74 L 189.01 350.99 L 188.75 350.51 L 188.5 350.01 L 188.24 349.5 L 187.76 348.99 L 187.51 348.51 L 187.25 348 L 186.74 347.49 L 186.49 347.25 L 186.26 346.75 L 185.75 346.51 L 185.5 346 L 184.99 345.49 L 184.51 345.25 L 184.25 344.74 L 183.74 344.5 L 183.49 344 L 183.27 343.49 L 182.76 343.25 L 182.5 342.74 L 182.24 342.5 L 181.99 342.26 L 181.73 341.75 L 181.51 341.51 L 181 341.24 L 180.49 340.74 L 180.23 340.5 L 180.01 340.26 L 179.76 339.99 L 179.5 339.75 L 179.25 339.51 L 178.74 339.24 L 178.26 338.76 L 177.75 338.49 L 177.24 338.26 L 177.01 337.99 L 176.76 337.75 L 176.5 337.51 L 176.25 337.24 L 175.74 337 L 175.51 336.76 L 175.26 336.49 L 175 336.25 L 174.75 336.01 L 174.49 336.01 L 174.24 336.01 L 173.76 336.01 L 173.5 335.74 L 173.25 335.5 L 172.74 335.24 L 172.52 335 L 172 335 L 171.49 335 L 171.02 335 L 170.51 335 L 170 335 L 169.48 335 L 169.01 335 L 168.5 335 L 167.99 335 L 167.51 335 L 167 335 L 166.49 335 L 166.01 335 L 165.5 335 L 164.99 335 L 164.25 335 L 163.74 335 L 163.26 335 L 162.75 335 L 162.5 335 L 161.99 335 L 161.51 335 L 161 335 L 160.49 335 L 160.01 335 L 159.5 335 L 158.99 335 L 158.51 335 L 158 335 L 157.49 335 L 157.01 335 L 156.5 335 L 155.99 335 L 155.51 335 L 155 335 L 154.49 335 L 154.24 335 L 153.76 335 L 153.5 335 L 152.99 335 L 152.51 335 L 152 335 L 151.49 335 L 151.24 334.76 L 150.76 334.49 L 150.5 334.25 L 149.99 334.01 L 149.52 334.01 L 149.26 334.01 L 148.75 334.01 L 148.49 333.74 L 147.98 333.5 L 147.51 333.26 L 147.25 332.99 L 146.74 332.75 L 146.48 332.51 L 146.01 332.25 L 145.5 332.01 L 144.99 331.74 L 144.51 331.5 L 144.25 331.26 L 143.74 330.99 L 143.49 330.75 L 143.01 330.51 L 142.5 330.24 L 142.24 330 L 141.76 329.76 L 141.51 329.49 L 141 329.26 L 140.49 328.99 L 140.01 328.75 L 139.5 328.51 L 138.99 328.24 L 138.25 328 L 137.74 327.76 L 137.01 327.49 L 136.5 327.25 L 135.99 327.01 L 135.51 326.74 L 135 326.5 L 134.49 326.24 L 134.01 326 L 133.5 325.76 L 132.99 325.49 L 132.51 325.25 L 132 324.74 L 131.49 324.5 L 131.24 324.26 L 131.01 323.99 L 130.76 323.99 L 130.5 323.99 L 129.99 323.99 L 129.51 323.75 L 129.26 323.51 L 128.75 323.25 L 128.49 323.01 L 128.01 323.01 L 127.25 323.01 L 126.74 323.01 L 126.26 322.74 L 125.75 322.5 L 125.49 322.26 L 124.98 321.99 L 124.51 321.99 L 124.25 321.99 L 123.74 321.99 L 123.48 321.99 L 123.26 321.99 L 122.75 321.99 L 122.5 321.99 L 122.24 321.99 L 121.76 321.99 L 121.51 321.99 L 121 321.99 L 120.49 321.99 L 120.01 321.99 L 119.5 321.99 L 118.99 321.99 L 118.25 321.99 L 117.74 321.99 L 117.01 321.99 L 116.24 321.99 L 115.77 321.99 L 115 321.99 L 114.27 321.99 L 113.5 321.99 L 112.73 321.99 L 112 321.99 L 111.24 321.99 L 110.5 321.99 L 109.51 321.99 L 108.75 321.99 L 108.01 321.99 L 107.25 321.99 L 106.51 321.99 L 105.49 321.99 L 104.76 321.99 L 103.99 321.99 L 103.26 321.99 L 102.49 321.99 L 101.76 321.99 L 101 321.99 L 100.26 321.99 L 99.5 321.99 L 98.51 321.99 L 97.74 321.99 L 97.01 321.99 L 96.5 321.99 L 95.99 321.99 L 95.51 321.99 L 95 321.99 L 94.26 321.99 L 93.75 321.99 L 92.99 321.99 L 92.51 321.99 L 92 321.99 L 91.49 321.99 L 91.01 321.99 L 90.5 321.99 L 89.99 321.99 L 89.26 321.99 L 88.75 321.99 L 88.01 321.99 L 87.25 321.99 L 86.74 321.99 L 86 321.99 L 85.24 321.99 L 84.76 321.99 L 83.99 321.99 L 83.26 321.99 L 82.75 321.99 L 82.01 321.99 L 81.5 321.99 L 80.99 321.99 L 80.26 321.99 L 79.49 321.99 L 78.76 321.99 L 78 321.99 L 77.26 321.99 L 76.75 321.99 L 75.99 321.99 L 75.51 321.99 L 75 321.99 L 74.49 321.99 L 74.01 321.99 L 73.24 322.26 L 72.76 322.5 L 72 322.74 L 71.26 323.01 L 70.5 323.01 L 69.51 323.01 L 68.74 323.01 L 68.01 323.01 L 67.25 323.01 L 66.73 323.01 L 66 323.01 L 65.24 323.25 L 64.5 323.51 L 63.51 323.75 L 62.75 323.99 L 62.01 323.99 L 61.5 323.99 L 60.99 324.26 L 60.26 324.5 L 59.75 324.74 L 59.02 325.01 L 58.25 325.01 L 57.74 325.01 L 57.01 325.25 L 56.49 325.49 L 55.98 325.76 L 55.51 326 L 55 326 L 54.49 326 L 54.01 326.24 L 53.5 326.5 L 52.99 326.74 L 52.51 327.01 L 52 327.01 L 51.26 327.25 L 50.75 327.49 L 49.99 327.76 L 49.51 328 L 49 328 L 48.49 328.24 L 48.01 328.51 L 47.24 328.75 L 46.77 328.99 L 46 328.99 L 45.49 329.26 L 45.01 329.49 L 44.5 329.76 L 43.99 330.24 L 43.26 330.51 L 42.49 330.75 L 41.76 330.99 L 41.25 331.26 L 40.74 331.5 L 40.51 331.74 L 40 332.25 L 39.49 332.51 L 39.01 332.75 L 38.5 333.26 L 37.99 333.5 L 37.51 333.74 L 37 334.25 L 36.49 334.49 L 36.02 334.76 L 35.5 335 L 34.99 335.24 L 34.26 335.5 L 33.75 335.74 L 32.98 336.25 L 32.25 336.49 L 31.74 336.76 L 31.01 337 L 30.5 337 L 30.24 337.24 L 29.76 337.51 L 29.51 337.99 L 29 338.49 L 28.49 338.76 L 28.01 339.24 L 27.5 339.51 L 27.24 339.75 L 26.99 339.99 L 26.76 340.26 L 26.51 340.5 L 26.25 340.74 L 25.74 341.01 L 25.49 341.24 L 25.26 341.51 L 24.75 341.99 L 24.5 342.5 L 24.24 342.74 L 23.77 343.25 L 23.51 343.49 L 23 344 L 22.49 344.5 L 22.23 345.01 L 21.76 345.76 L 21.5 346.24 L 20.99 346.99 L 20.51 347.49 L 20.26 348 L 19.75 348.51 L 19.49 348.75 L 19.24 349.26 L 18.76 349.5 L 18.5 350.01 L 18.25 350.51 L 17.99 350.99 L 17.74 351.5 L 17.51 352.01 L 17.26 352.49 L 16.75 352.76 L 16.49 353.26 L 16.24 353.5 L 16.01 354.01 L 15.76 354.49 L 15.5 355 L 15.25 355.51 L 14.74 355.99 L 14.51 356.49 L 14.26 357 L 13.75 357.51 L 13.49 357.99 L 13.24 358.5 L 12.76 359.01 L 12.5 359.51 L 12.25 359.99 L 11.74 360.5 L 11.52 361.01 L 11.26 361.76 L 10.75 362.26 L 10.5 362.74 L 10.24 363.25 L 9.98 363.76 L 9.76 364.24 L 9.51 364.75 L 9.25 365.25 L 8.74 365.49 L 8.49 366 L 8.26 366.75 L 8.01 367.26 L 7.75 368.01 L 7.5 368.51 L 7.24 368.99 L 6.99 369.5 L 6.76 370.01 L 6.51 370.76 L 6.25 371.26 L 6 372.01 L 6 372.49 L 5.74 373 L 5.49 373.75 L 5.26 374.25 L 5.01 375 L 4.75 375.51 L 4.5 375.75 L 4.24 376.26 L 3.99 376.5 L 3.99 377.01 L 3.99 377.51 L 3.99 377.99 L 3.99 378.5 L 3.99 379.01 L 3.76 379.49 L 3.51 380 L 3.25 380.5 L 3 381.01 L 3 381.76 L 3 382.24 L 3 382.99 L 3 383.76 L 3 384.24 L 3 384.99 L 3 385.74 L 3 386.51 L 3 387.5 L 3 388.49 L 3 389.5 L 3 390.49 L 2.74 391.24 L 2.49 391.99 L 2.26 392.76 L 2.01 393.51 L 2.01 394.26 L 2.01 395.01 L 2.01 395.75 L 2.01 396.26 L 2.01 397.01 L 2.01 397.49 L 2.01 398 L 2.01 398.5 L 2.01 398.74 L 2.01 399.25 L 2.01 399.49 L 2.01 400 L 2.26 400.51 L 2.49 400.99 L 2.74 401.76 L 3.25 402.24 L 3.76 402.99 L 4.24 403.74 L 4.75 404.24 L 5.26 404.99 L 5.49 405.5 L 6 406.01 L 6.51 406.49 L 6.99 407 L 7.5 407.5 L 8.01 407.74 L 8.49 408.25 L 8.74 408.49 L 9.25 408.76 L 9.51 409.24 L 9.76 409.51 L 10.24 409.75 L 10.5 410.25 L 10.75 410.49 L 11.26 411 L 11.52 411.51 L 11.99 411.99 L 12.5 412.5 L 12.76 412.74 L 13.02 413.01 L 13.24 413.24 L 13.49 413.51 L 13.75 413.75 L 14 413.99 L 14 414.26 L 14 414.5 L 14 414.74 L 14 415.25 L 14 415.49 L 14 415.76 L 14 416.26 L 14 416.5 L 14 416.74 L 14 417.25 L 14 417.49 L 14 417.76 L 14 418 L 14 418.24 L 14 418.51 L 14 418.75 L 14 419.25 L 14 419.76 L 14 420.24 L 14 420.99 L 14 421.5 L 14 421.74 L 14 422.24 L 14 422.51 L 14 422.99 L 14 423.5 L 14 423.74 L 14.26 424.25 L 14.51 424.49 L 14.74 424.99 L 14.99 425.5 L 14.99 426.01 L 14.99 426.76 L 14.99 427.24 L 14.99 428.01 L 14.99 428.49 L 14.99 429 L 14.99 429.75 L 14.99 430.26 L 14.99 430.74 L 14.99 431.24 L 14.99 431.51 L 14.99 431.99 L 14.99 432.5 L 14.99 433.01 L 14.99 433.49 L 14.99 433.99 L 14.99 434.5 L 14.99 435.01 L 14.99 435.76 L 14.99 436.24 L 14.99 437.01 L 14.99 437.76 L 14.99 438.24 L 14.99 438.99 L 14.99 439.74 L 14.99 440.24 L 14.99 440.99 L 14.99 441.74 L 14.99 442.49 L 14.99 443.26 L 14.99 444.01 L 14.99 444.76 L 14.99 445.24 L 14.99 446.01 L 14.99 446.76 L 14.99 447.24 L 14.99 447.99 L 14.99 448.74 L 14.99 449.24 L 14.99 449.99 L 14.99 450.74 L 14.99 451.49 L 14.99 452.5 L 14.99 453.49 L 14.99 454.24 L 14.74 455.01 L 14.51 455.76 L 14.26 456.75 L 14 457.74 L 14 458.75 L 14 459.74 L 14 460.49 L 14 461.5 L 13.75 462.49 L 13.49 463.75 L 13.24 465 L 13.02 466.26 L 13.02 467.51 L 13.02 468.26 L 13.02 469.01 L 12.76 469.76 L 12.5 470.26 L 12.25 471.01 L 11.99 471.76 L 11.99 472.51 L 11.74 473.49 L 11.52 474.24 L 11.26 474.99 L 11.01 475.5 L 11.01 476 L 10.75 476.75 L 10.5 477.5 L 10.24 478.25 L 9.98 478.99 L 9.98 479.5 L 9.76 480.01 L 9.51 480.49 L 9.25 481 L 9 481.75 L 8.74 482.25 L 8.49 482.76 L 8.26 483.24 L 7.75 483.51 L 7.5 483.99 L 7.24 484.5 L 6.99 485 L 6.76 485.51 L 6.51 485.99 L 6.25 486.5 L 6 486.74 L 5.74 487.25 L 5.49 487.49 L 5.26 487.99 L 5.01 488.5 L 5.01 488.74 L 5.01 489.25 L 4.75 489.49 L 4.5 489.76 L 4.24 490.24 L 3.99 490.51 L 3.99 490.74 L 3.99 491.25 L 3.99 491.49 L 3.99 491.76 L 3.99 492.24 L 3.99 492.51 L 3.99 492.75 L 3.76 493.26 L 3.51 493.5 L 3.25 493.76 L 3 494.24 L 3 494.51 L 3 494.99 L 3 495.5 L 3 495.74 L 3 496.25 L 2.74 496.49 L 2.49 496.99 L 2.26 497.5 L 2.01 497.74 L 2.01 498.01 L 2.01 498.25 L 1.75 498.49 L 1.5 499 L 1.24 499.51 L 0.99 500.01 L 0.99 500.49 L 0.99 501 L 0.77 501.51 L 0.51 501.75 L 0.26 502.26 L 0 502.5 L 0 503 L 0 503.51 L 0 503.99 L 0 504.5 L 0 505.01 L 0 505.49 L 0 505.75 L 0 506.26 L 0 506.5 L 0 507.01 L 0 507.49 L 0 507.76 L 0 508.24 L 0 508.51 L 0 508.74 L 0 509.25 L 0 509.49 L 0 510 L 0 510.51 L 0 510.75 L 0 510.99 L 0 511.26 L 0 511.5 L 0.26 512 L 0.51 512.51 L 0.77 512.99 L 0.99 513.5 L 0.99 514.01 L 1.24 514.49 L 1.5 514.99 L 1.75 515.5 L 2.26 516.01 L 2.49 516.49 L 2.74 517 L 3.25 517.51 L 3.51 518.01 L 3.99 518.49 L 4.5 519 L 5.01 519.75 L 5.74 520.26 L 6.25 521 L 6.99 521.51 L 7.5 521.99 L 8.01 522.5 L 8.49 522.74 L 9 523.25 L 9.76 523.49 L 10.5 523.75 L 11.26 524.26 L 11.99 524.5 L 12.76 524.74 L 13.49 525.25 L 14.51 525.76 L 15.5 526.24 L 16.24 526.74 L 17 527.01 L 17.74 527.25 L 18.25 527.49 L 19.01 527.76 L 19.49 528 L 20 528 L 20.51 528 L 20.99 528 L 21.5 528 L 22.01 528.24 L 22.49 528.51 L 23 528.75 L 23.51 528.99 L 23.99 528.99 L 24.5 528.99 L 25.01 528.99 L 25.49 528.99 L 26 529.26 L 26.76 529.5 L 27.5 529.76 L 28.26 530 L 29 530.24 L 29.76 530.51 L 30.5 530.75 L 31.49 531.26 L 32.51 531.5 L 33.24 531.74 L 34.01 532.25 L 34.74 532.49 L 35.5 532.75 L 36.24 533.26 L 37 533.5 L 37.74 534.01 L 38.25 534.49 L 39.01 534.76 L 39.49 535 L 40 535.24 L 40.51 535.51 L 40.99 536.01 L 41.5 536.49 L 42.01 537 L 42.75 537.51 L 43.26 537.99 L 43.99 538.5 L 44.5 539 L 44.76 539.51 L 45.23 539.99 L 45.49 540.5 L 46 540.74 L 46.51 541.25 L 46.99 541.49 L 47.5 541.99 L 48.01 542.5 L 48.49 543.01 L 49 543.49 L 49.51 543.76 L 49.99 544.24 L 50.5 544.51 L 51.01 545.01 L 51.74 545.49 L 52.25 546 L 52.99 546.51 L 53.5 546.99 L 54.01 547.5 L 54.74 548 L 55.25 548.51 L 55.98 548.99 L 56.75 549.74 L 57.26 550.25 L 57.99 550.75 L 58.5 551.26 L 59.02 551.5 L 59.49 552.01 L 60 552.49 L 60.51 552.76 L 60.74 553 L 61.25 553.24 L 61.5 553.51 L 61.76 554.01 L 62.24 554.49 L 62.49 554.76 L 62.75 555 L 63.26 555.24 L 63.51 555.51 L 63.74 555.75 L 64.25 555.99 L 64.5 556.26 L 64.76 556.5 L 65.24 556.76 L 65.49 557 L 65.75 557 L 66.26 557 L 66.51 557.24 L 66.73 557.51 L 66.99 557.75 L 66.99 557.99 L 67.25 557.99 L 67.5 557.99 L 67.76 557.99 L 68.23 557.99 L 68.49 557.99 L 68.74 557.99 L 69 557.99 L 69.25 557.99 L 69.51 557.99 L 69.77 557.99 L 69.99 557.99 L 70.24 557.99 L 70.5 557.99 L 70.75 557.99 L 71.01 557.99 L 71.26 557.99 L 71.49 557.99 L 71.74 557.99 L 72 557.99 L 72.25 557.99 L 72.51 557.75 L 72.76 557.51 L 73.24 557.24 L 73.5 557 L 73.75 557 L 74.01 557 L 74.26 557 L 74.49 557 L 75 557 L 75.51 557 L 75.99 557 L 76.5 556.76 L 77.01 556.5 L 77.49 556.26 L 78 555.99 L 78.51 555.99 L 78.98 555.99 L 79.75 555.75 L 80.52 555.51 L 81.25 555.24 L 82.01 555 L 82.49 555 L 83 555 L 83.74 555 L 84.25 555 L 85.01 555 L 85.75 555 L 86.26 555 L 86.99 555 L 87.76 555 L 88.24 555 L 89 555 L 89.73 555 L 90.5 555 L 91.49 555 L 92.51 555 L 93.5 555 L 94.49 555.24 L 95.51 555.51 L 96.5 555.75 L 97.49 555.99 L 98.76 556.26 L 100.01 556.5 L 101.25 556.76 L 102.49 557.24 L 103.52 557.51 L 104.76 557.99 L 106 558.5 L 107.25 558.74 L 108.75 559.01 L 109.99 559.25 L 111.24 559.49 L 112.73 559.75 L 114.01 560.26 L 115.25 560.5 L 116.5 560.74 L 117.49 561.01 L 118.51 561.25 L 119.75 561.49 L 121 561.76 L 122.24 562 L 123.48 562.24 L 124.51 562.51 L 125.49 562.74 L 126.74 563.01 L 128.01 563.01 L 129.26 563.01 L 130.5 563.01 L 131.49 563.01 L 132.51 563.25 L 133.5 563.49 L 134.75 563.76 L 135.99 564 L 137.27 564 L 138.76 564 L 139.75 564 L 140.74 564 L 141.76 564 L 142.5 564 L 143.49 564 L 144.76 564 L 146.01 564 L 147.25 564 L 148.49 564 L 149.52 564 L 150.25 564 L 151.01 564 L 151.75 564 L 152.74 564 L 153.76 564 L 154.75 564 L 155.74 564 L 156.5 563.76 L 157.49 563.49 L 158.26 563.25 L 158.99 563.01 L 159.5 563.01 L 160.01 562.74 L 160.74 562.51 L 161.25 562.24 L 161.99 562 L 162.75 561.76 L 163.49 561.49 L 164.51 561.25 L 165.5 560.74 L 166.49 560.5 L 167.51 560.26 L 168.5 559.99 L 169.48 559.75 L 170.51 559.49 L 171.75 559.01 L 172.99 558.5 L 174.24 558.26 L 175.51 557.99 L 176.25 557.75 L 177.01 557.51 L 177.75 557.24 L 178.51 557 L 179.25 556.76 L 180.01 556.5 L 180.75 556.26 L 181.26 555.75 L 181.99 555.51 L 182.76 555.24 L 183.27 555 L 184 554.76 L 184.51 554.49 L 184.99 554.25 L 185.5 554.01 L 186.01 553.74 L 186.49 553.51 L 187 553.24 L 187.51 552.76 L 187.76 552.49 L 188.24 552.25 L 188.5 551.74 L 189.01 551.5 L 189.49 551.26 L 189.74 550.75 L 190 550.49 L 190.25 550.25 L 190.51 550.01 L 190.76 549.74 L 191.24 549.5 L 191.5 548.99 L 191.75 548.51 L 192.01 548.24 L 192.01 547.76 L 192.01 547.5 L 192.01 547.26 L 192.01 546.75 L 192.01 546.51 L 192.01 546.24 L 192.01 546 L 192.01 545.76 L 192.01 545.49 L 192.01 545.25 L 192.01 544.74 L 192.01 544.51 L 192.01 544.24 L 192.01 544 L 192.01 543.76 L 192.01 543.49 L 192.01 543.25 L 192.01 543.01 L 192.01 542.74 L 192.01 542.5 L 192.01 542.26 L 192.01 541.99 L 192.01 541.75 L 192.01 541.49 L 192.01 541.25 L 192.01 540.74 L 192.01 540.5 L 192.01 540.26 L 192.01 539.99 L 192.26 539.75 L 192.48 539.51 L 192.74 539.24 L 192.99 539 L 193.25 538.76 L 193.51 538.5 L 193.76 538.26 L 194.02 537.99 L 194.24 537.75 L 194.49 537.51 L 194.75 537.24 L 195.26 537 L 195.52 536.76 L 195.74 536.49 L 195.99 536.25 L 196.25 536.01 L 196.5 535.74 L 197.01 535.51 L 197.49 535 L 198 534.49 L 198.51 534.25 L 198.99 534.01 L 199.5 533.74 L 200.01 533.5 L 200.49 533.26 L 200.75 532.75 L 201.26 532.49 L 201.51 532.25 L 201.99 531.74 L 202.5 531.5 L 202.76 531.26 L 203.01 530.99 L 203.23 530.75 L 203.49 530.51 L 204 530.24 L 204.51 530 L 204.99 529.76 L 205.5 529.5 L 205.76 529.26 L 206.27 528.99 L 206.49 528.75 L 207 528.51 L 207.76 528.24 L 208.24 527.76 L 209.01 527.49 L 209.49 527.25 L 210 526.74 L 210.76 526.51 L 211.24 526.24 L 212.01 526 L 212.74 526 L 213.25 525.76 L 213.99 525.49 L 214.75 525.25 L 215.26 525.01 L 215.74 524.74 L 216.25 524.5 L 216.76 524.26 L 217.24 523.99 L 218 523.99 L 218.51 523.99 L 218.99 523.99 L 219.5 523.75 L 220.01 523.49 L 220.75 523.25 L 221.26 523.01 L 221.99 523.01 L 222.76 523.01 L 223.24 523.01 L 224 522.74 L 224.74 522.5 L 225.5 522.26 L 226.23 521.99 L 227 521.99 L 227.73 521.99 L 228.5 521.99 L 229.49 521.99 L 230.25 521.75 L 230.99 521.51 L 231.75 521.24 L 232.26 521 L 233 521 L 233.76 521 L 234.24 521 L 235.01 521 L 235.74 521 L 236.25 521 L 236.99 521 L 237.75 520.76 L 238.48 520.5 L 239.51 520.26 L 240.24 519.99 L 241 519.99 L 241.74 519.99 L 242.5 519.99 L 243.24 519.99 L 244 519.99 L 244.74 519.99 L 245.25 519.99 L 246.01 519.99 L 246.75 519.99 L 247.26 519.75 L 247.99 519.51 L 248.76 519.24 L 249.23 519 L 250 519 L 250.77 519 L 251.24 519 L 252.01 518.76 L 252.74 518.49 L 253.25 518.25 L 253.99 518.01 L 254.5 517.74 L 255.01 517.51 L 255.49 517.24 L 255.74 516.76 L 256 516.49 L 256 516.25 L 256 515.74 L 256 515.5 L 256 514.99 L 256 514.25 L 256 513.74 L 256 512.99 L 256 512.51 L 256 512 L 256 511.5 L 256 510.99 L 256 510.51 L 256 510 L 256 509.49 L 256 509.01 L 255.74 508.51 L 255.49 508 L 255.26 507.49 L 255.01 507.25 L 255.01 506.74 L 255.01 506.5 L 255.01 505.99 L 255.01 505.49 L 255.01 505.01 L 255.01 504.5 L 255.01 503.99 L 255.01 503.51 L 255.26 503 L 255.49 502.5 L 255.74 502.26 L 256 501.99 L 256 501.75 L 256 501.51 L 256 501 L 256.25 500.49 L 256.51 500.25 L 256.76 499.74 L 256.99 499.51 L 256.99 499 L 256.99 498.49 L 256.99 498.01 L 256.99 497.5 L 256.99 496.99 L 256.99 496.49 L 257.24 496.01 L 257.5 495.5 L 257.75 494.99 L 258.01 494.24 L 258.01 493.76 L 258.01 492.99 L 258.01 492.51 L 258.01 492 L 258.01 491.25 L 258.01 490.74 L 258.01 490 L 258.01 489.25 L 258.01 488.74 L 258.01 487.99 L 258.01 487.25 L 258.01 486.5 L 258.26 485.75 L 258.49 485 L 258.74 484.26 L 259 483.75 L 259 483 L 259 482.25 L 259 481.75 L 259 481 L 259 480.25 L 259 479.74 L 259 478.99 L 259 478.25 L 259 477.74 L 259 476.99 L 259 476.51 L 259 476 L 259 475.5 L 259 475.26 L 259.25 474.75 L 259.51 474.24 L 259.76 473.76 L 259.99 473.01 L 260.24 472.24 L 260.5 471.76 L 260.75 471.01 L 261.26 470.5 L 261.48 469.99 L 261.74 469.25 L 262.25 468.74 L 262.51 467.99 L 262.76 467.24 L 263.24 466.5 L 263.75 465.75 L 264.26 465 L 264.99 464.25 L 265.5 463.75 L 266.01 463 L 266.49 462.49 L 267 462.01 L 267.51 461.5 L 267.74 460.99 L 268.25 460.49 L 268.76 460.25 L 269.24 459.74 L 270 459.5 L 270.51 459.26 L 270.99 458.75 L 271.5 458.51 L 272.01 458.24 L 272.49 457.74 L 273 457.5 L 273.77 457.26 L 274.24 456.75 L 275.01 456.51 L 275.49 456.24 L 276 455.76 L 276.51 455.49 L 276.99 455.25 L 277.5 454.75 L 278.01 454.51 L 278.74 454.24 L 279.25 453.76 L 279.99 453.49 L 280.5 453.25 L 281.01 452.74 L 281.49 452.5 L 282 451.99 L 282.51 451.49 L 282.98 451.25 L 283.75 450.74 L 284.26 450.5 L 284.99 449.99 L 285.76 449.51 L 286.49 449 L 287.51 448.5 L 288.25 447.99 L 289.01 447.51 L 289.75 447 L 290.51 446.49 L 291.25 446.01 L 292.01 445.24 L 292.75 444.76 L 293.51 444.01 L 294.5 443.5 L 295.23 442.99 L 296 442.49 L 296.51 442.01 L 296.99 441.5 L 297.5 440.99 L 298.01 440.51 L 298.49 440 L 299 439.26 L 299.51 438.75 L 299.99 438 L 300.5 437.49 L 301.01 437.01 L 301.74 436.24 L 302.25 435.49 L 302.99 434.5 L 303.5 433.49 L 304.01 432.5 L 304.74 431.75 L 305.25 431 L 305.98 430.26 L 306.75 429.51 L 307.26 428.49 L 307.99 427.51 L 308.76 426.76 L 309.24 426.01 L 310 425.5 L 310.51 424.99 L 310.99 424.25 L 311.76 423.5 L 312.24 422.75 L 313 422 L 313.51 421.26 L 313.99 420.51 L 314.5 419.76 L 315.01 419.01 L 315.49 418.24 L 316 417.76 L 316.51 417.01 L 316.74 416.5 L 316.99 415.99 L 316.99 415.25 L 317.25 414.74 L 317.5 413.99 L 317.76 413.24 L 318.01 412.74 L 318.01 411.99 L 318.01 411.51 L 318.01 411 L 318.01 410.49 L 318.01 409.99 L 318.01 409.24 L 318.01 408.76 L 318.01 408.01 L 318.01 407.26 L 318.01 406.49 L 318.01 405.74 L 318.01 404.99 L 318.23 404.24 L 318.49 403.5 L 318.74 402.51 L 319 401.76 L 319 400.99 L 319 400.51 L 319 400 L 319 399.49 L 319 399.01 L 319 398.5 L 319 398 L 319 397.49 L 319 397.25 L 319 397.01 L 318.74 396.74 L 318.49 396.5 L 318.23 396.26 L 318.01 395.75 L 318.01 395.51 L 318.01 395.24 L 317.76 395.01 L 317.5 394.74 L 317.25 394.5 L 316.74 393.99 L 316.51 393.51 L 316 393.24 L 315.49 393 L 315.24 392.76 L 314.76 392.49 L 314.5 391.99 L 313.99 391.51 L 313.51 391 L 313 390.49 L 312.49 390.01 L 312.24 389.5 L 312.01 389 L 311.76 388.49 L 311.5 388.25 L 311.25 388.01 L 310.99 387.74 L 310.74 387.5 L 310.51 386.99 L 310.26 386.51 L 310 386.24 L 309.75 385.74 L 309.49 385.5 L 309.24 384.99 L 308.76 384.24 L 308.5 383.76 L 308.25 382.99 L 307.74 382.51 L 307.48 382 L 307.26 381.49 L 307.01 381.01 L 306.75 380.5 L 306.5 380 L 306.24 379.49 L 305.98 379.01 L 305.76 378.5 L 305.51 377.99 L 305.25 377.51 L 305 377.24 L 305 376.74 L 305 376.5 L 304.74 376.26 L 304.49 375.75 L 304.26 375.51 L 304.01 375 L 304.01 374.25 L 303.75 373.75 L 303.5 373 L 303.24 372.49 L 302.99 372.01 L 302.99 371.5 L 302.76 371 L 302.51 370.49 L 302.25 370.25 L 302 369.74 L 302 369.26 L 302 368.75 L 302 368.01 L 302 367.5 L 301.74 366.99 L 301.49 366.24 L 301.26 365.76 L 301.01 364.99 L 301.01 364.51 L 301.01 364 L 301.01 363.49 L 301.01 363.01 L 301.01 362.26 L 301.01 361.49 L 301.01 360.74 L 301.01 359.99 L 301.01 359.24 L 301.01 358.5 L 301.01 357.51 L 301.01 356.76 L 301.01 355.99 L 301.01 355.24 L 301.01 354.76 L 301.01 354.01 L 301.01 353.26 L 301.01 352.76 L 301.01 352.01 L 301.01 351.5 L 301.01 350.99 L 301.01 350.51 L 301.01 350.01 L 301.01 349.5 L 301.01 348.99 L 301.01 348.51 L 301.01 348.24 L 301.01 347.76 L 301.01 347.25 L 301.01 346.75 L 301.01 346 L 301.01 345.49 L 301.01 345.01 L 301.01 344.26 L 301.01 343.76 L 301.01 343.01 L 301.01 342.5 L 301.01 341.99 L 301.01 341.24 L 301.01 340.5 L 301.01 339.51 L 301.01 338.76 L 301.01 337.99 L 301.01 337.24 L 301.01 336.76 L 301.01 336.01 L 301.01 335.24 L 301.01 334.49 L 301.01 333.74 L 301.01 332.99 L 301.01 332.01 L 301.01 331.26 L 301.01 330.24 L 301.01 329.26 L 301.26 328.51 L 301.49 327.49 L 301.74 326.5 L 302 325.49 L 302 324.74 L 302 323.99 L 302 323.25 L 302 322.5 L 302 321.75 L 302 321 L 302 320.49 L 302 319.99 L 302.25 319.51 L 302.51 319 L 302.76 318.25 L 302.99 317.74 L 302.99 317 L 302.99 316.49 L 302.99 316.01 L 302.99 315.5 L 302.99 314.99 L 302.99 314.51 L 302.99 314.01 L 302.99 313.26 L 302.99 312.75 L 302.99 312 L 302.99 311.49 L 302.76 310.99 L 302.51 310.24 L 302.25 309.49 L 301.74 308.74 L 301.49 308 L 301.26 307.25 L 300.75 306.74 L 300.5 305.99 L 299.99 305.25 L 299.51 304.5 L 299 303.51 L 298.49 302.49 L 298.01 301.51 L 297.24 300.49 L 296.77 299.5 L 296 298.49 L 295.23 297.5 L 294.76 296.75 L 293.99 296.01 L 293.26 295.26 L 292.49 294.51 L 291.5 293.49 L 290.74 292.51 L 290 291.49 L 289.49 290.74 L 289.01 290 L 288.5 289.25 L 287.99 288.74 L 287.26 287.99 L 286.75 287.25 L 286.02 286.5 L 285.25 285.75 L 284.74 285.24 L 284.26 284.76 L 283.75 284.49 L 283.5 283.99 L 282.98 283.51 L 282.51 283 L 282.25 282.49 L 281.74 282.01 L 281.49 281.24 L 281.26 280.76 L 280.75 279.74 L 280.5 278.99 L 280.24 278.25 L 279.76 277.26 L 279.51 276.75 L 279.25 276 L 279 275.49 L 279 274.99 L 279 274.51 L 279 274 L 279 273.49 L 279 273.01 L 279 272.5 L 279 272.24 L 279 272 L 279 271.76 L 279 271.49 L 279 271.01 L 279 270.5 L 279 269.99 L 279 269.51 L 279 269.01 L 279 268.5 L 279 268.26 L 278.74 267.75 L 278.49 267.51 L 278.26 267 L 278.01 266.49 L 277.75 266.26 L 277.5 265.75 L 277.24 265.51 L 276.99 265.24 L 276.76 265 L 276.51 265 L 276.25 265 L 275.74 265 L 275.49 265 L 275.27 265 L 275.01 265 L 274.75 265 L 274.5 265 L 274.24 265 L 273.77 265 L 273.51 265 L 273 265 L 272.49 265 L 272.23 265 L 271.76 265 L 271.5 265.24 L 270.99 265.51 L 270.26 265.75 L 269.75 266.26 L 269.24 266.49 L 268.76 266.76 L 268.5 267.24 L 267.99 267.51 L 267.51 267.75 L 267 267.99 L 266.49 267.99 L 266.01 267.99 L 265.5 267.99 L 264.99 268.26 L 264.51 268.5 L 264 268.74 L 263.49 269.01 L 263.02 269.01 L 262.51 269.01 L 261.99 269.01 L 261.48 269.01 L 261.01 269.01 L 260.24 269.01 L 259.76 269.01 L 259 269.01 L 258.49 269.01 L 258.01 269.01 L 257.5 269.01 L 257.24 269.01 L 256.76 269.01 L 256.51 269.01 L 256.25 269.25 L 255.74 269.51 L 255.49 269.75 L 255.26 269.99 L 254.75 269.99 L 254.5 269.99 L 254.24 269.99 L 253.99 269.99 L 253.76 269.99 L 253.51 269.99 L 253.25 269.99 L 253 269.99 L 253 269.99 L 252.74 269.99 L 252.49 269.99 L 252.27 269.99 L 251.75 270.26 L 251.5 270.5 L 251.24 270.74 L 250.77 271.01 L 250.51 271.25 L 250.26 271.49 L 250 271.76 L 249.75 272 L 249.49 272 L 249.23 272.24 L 249.01 272.5 L 249.01 272.74 L 249.01 273.01 L 249.01 273.25 L 248.76 273.49 L 248.5 273.76 L 248.25 274 L 247.99 274 L 247.99 274.24 L 247.99 274.51 L 247.74 274.75 L 247.51 275.26 L 247.26 275.49 L 247 275.76 L 247 276 L 246.75 276.24 L 246.49 276.51 L 246.24 276.99 L 245.76 277.5 L 245.5 278.01 L 245.25 278.51 L 244.74 278.99 L 244.26 279.74 L 243.75 280.49 L 243.24 281.24 L 242.76 281.74 L 242.5 282.25 L 242.25 282.49 L 241.99 283 L 241.74 283.51 L 241.51 283.99 L 241.26 284.76 L 240.75 285.24 L 240.49 285.99 L 240.24 286.74 L 240.02 287.25 L 239.76 287.99 L 239.51 288.5 L 239.25 289.01 L 238.99 289.49 L 238.99 290 L 238.74 290.5 L 238.48 291.01 L 238.26 291.49 L 238.01 292 L 238.01 292.51 L 237.75 292.99 L 237.5 293.49 L 237.24 294 L 236.99 294.51 L 236.99 294.99 L 236.99 295.5 L 236.99 295.74 L 236.76 296.25 L 236.51 296.51 L 236.25 296.99 L 236 297.74 L 236 298.25 L 236 299 L 236 299.74 L 236 300.49 L 236 301.24 L 236 301.99 L 236 302.76 L 236 303.51 L 236 304.5 L 235.74 305.51 L 235.49 306.26 L 235.26 307.01 L 235.01 307.76 L 235.01 308.5 L 235.01 309.25 L 235.01 310 L 235.01 310.75 L 235.01 311.26 L 235.01 312 L 235.01 312.75 L 235.01 313.5 L 235.01 314.25 L 235.01 314.99 L 235.26 315.5 L 235.49 316.25 L 235.74 317 L 236.25 317.74 L 236.51 318.49 L 236.76 318.76 L 236.99 319.24 L 236.99 319.51 L 237.24 319.99 L 237.5 320.49 L 237.75 321 L 238.01 321.51 L 238.26 321.99 L 238.48 322.5 L 238.74 323.01 L 238.99 323.51 L 238.99 323.99 L 238.99 324.5 L 238.99 325.01 L 239.25 325.49 L 239.51 326 L 239.76 326.74 L 240.02 327.25 L 240.02 328 L 240.02 328.51 L 240.02 329.26 L 240.02 330 L 240.02 330.75 L 240.02 331.5 L 240.02 332.01 L 240.02 332.51 L 240.02 332.99 L 239.76 333.5 L 239.51 334.01 L 239.25 334.49 L 238.74 334.76 L 238.48 335.24 L 238.01 335.5 L 237.5 335.74 L 237.24 336.01 L 236.76 336.25 L 236.51 336.49 L 236.25 336.76 L 235.74 337.24 L 235.49 337.51 L 235.01 337.75 L 234.5 337.99 L 233.99 337.99 L 233.25 337.99 L 232.74 337.99 L 232.26 337.99 L 231.75 337.99 L 231.5 337.99 L 231.24 337.99 L 230.76 337.99 L 230.51 337.99 L 230.25 337.99 L 229.74 337.99 L 229.49 337.99 L 229.27 337.99 L 229.01 337.99 L 228.75 338.26 L 228.5 338.49 L 228.24 338.76 L 227.73 339 L 227.51 339 L 227.26 339 L 227 339 L 226.75 339 L 226.49 339 L 226.23 339 L 225.76 339 L 225.5 339 L 225.25 339 L 224.74 339 L 224.51 339 L 224.26 339 L 223.75 339 L 223.49 339 L 223.24 339 L 222.76 339 L 222.5 339 L 222.25 339 L 221.74 339 L 221.51 339 L 221.26 339 L 221 339 L 220.75 339 L 220.49 339 L 220.24 339 L 219.76 339 L 219.5 339 L 219.25 339 L 218.99 339 L 218.74 339 L 218.51 339 L 218.26 339 L 217.75 339 L 217.49 339.24 L 217.24 339.51 L 217.02 339.75 L 216.76 339.99 L 216.51 340.26 L 216.25 340.5 L 215.74 340.74 L 215.48 341.01 L 215.26 341.01 L 215.01 341.01 L 215.01 341.24 L 215.01 341.51 L 214.75 341.75 L 214.5 341.99 L 214.24 341.99 L 213.99 342.26 L 213.76 342.5 L 213.51 342.74 L 213.25 343.01 L 213 343.01 L 213 343.25 L 213 343.49 L 212.74 343.76 L 212.49 344 L 212.26 344 L 212.01 344 L 212.01 344.26 L 212.01 344.5 L 211.75 344.74 L 211.5 345.01 L 211.24 345.01 L 210.99 345.25 L 210.99 345.49 L 210.76 345.76 L 210.51 346 L 210.25 346 L 210 346.24 L 210 346.51 L 210 346.75 L 209.74 346.99 L 209.49 347.25 L 209.26 347.49 L 209.01 347.76 L 209.01 348 L 208.75 348 L 208.5 348.24 L 208.24 348.51 L 207.99 348.75 L 207.99 348.99 L 207.76 348.99 L 207.51 348.99 L 207.25 349.26 L 207 349.5 L 207 349.74 L 207 350.01 L 207 350.24 L 206.74 350.51 L 206.49 350.75 L 206.27 350.99 L 205.76 351.26 L 205.5 351.5 L 205.24 351.74 L 204.99 352.01 L 204.99 352.25 L 204.73 352.49 L 204.51 352.76 L 204.26 353 L 204 353.26 L 204 353.5 L 203.75 353.74 L 203.49 354.01 L 203.23 354.01 L 203.01 354.25 L 203.01 354.49 L 203.01 354.76 L 202.76 355 L 202.5 355.24 L 202.25 355.51 L 201.99 355.75 L 201.99 355.99 L 201.74 356.25 L 201.51 356.49 L 201.26 356.76 L 200.75 357 L 200.49 357.24 L 200.24 357.51 L 200.01 357.75 L 199.76 357.99 L 199.5 357.99 L 199.25 358.26 L 198.99 358.5 L 198.74 358.74 L 198.51 359.01 L 198.26 359.01 L 198 359.01 L 197.75 359.01 L 197.49 359.01 L 197.24 359.01 L 197.01 359.01 L 196.76 359.01 L 196.5 359.01 L 196.25 359.01 L 195.99 359.01 L 195.74 359.01 L 195.52 359.01 L 195.26 359.01 L 195 359.01 L 194.75 359.01 L 194.49 359.01 L 194.24 359.01 L 194.02 359.01 L 193.76 359.01 L 193.51 359.01 L 193.25 359.01 L 192.99 359.01 L 192.74 359.01 L 192.48 359.01 L 192.26 359.01 L 192.01 359.01 L 191.75 359.01 L 191.5 359.01 L 191.24 359.01 L 190.76 359.01 L 190.51 359.01 L 190.25 359.01 L 190 359.01 L 189.74 359.01 L 189.49 359.01 L 189.26 359.01 L 189.01 359.01 L 189.01 359.01 L 188.75 359.01 L 188.5 359.01 L 188.24 359.01 L 187.99 359.01 L 187.99 359.01 L 187.99 359.01 L 187.99 358.74 L 187.99 358.5 L 187.99 358.26 L 187.99 357.75 L 187.99 357.51 L 187.99 357.24 L 187.99 357 L 187.99 356.76 L 187.99 356.49 L 187.99 356.25 L 187.99 355.99 L 187.99 355.75 L 187.99 355.51 L 187.99 355.24 L 187.99 355 L 187.99 354.76 L 187.99 354.49 L 189.01 354.01" fill="none" stroke="#000000" style="stroke: light-dark(rgb(0, 0, 0), rgb(255, 255, 255));" stroke-miterlimit="10" pointer-events="all"/></g></g><g data-cell-id="GHSxaXnzdkKThOCYZxHZ-5"><g transform="translate(0.5,0.5)"><path d="M 439.98 555.01 L 439.98 555.01 L 440.25 555.01 L 440.52 555.01 L 441.51 555.01 L 442.73 555.01 L 443.99 555.01 L 445.48 555.01 L 446.52 555.01 L 447.51 555.01 L 448.77 555.01 L 449.99 554.75 L 451.25 554.49 L 452.51 554.01 L 453.51 553.49 L 454.5 553 L 455.49 552.49 L 456.26 552 L 456.98 551.49 L 457.75 551 L 458.51 550.49 L 459.5 550 L 460.5 549.26 L 461.26 548.74 L 461.99 548 L 462.75 547.26 L 463.51 546.51 L 464.74 545.51 L 466.26 544.51 L 467.75 543.74 L 469.24 542.99 L 470.73 542.25 L 471.77 541.74 L 472.76 540.99 L 473.75 540.51 L 474.74 539.99 L 476.01 539.25 L 477.27 538.5 L 478.49 537.76 L 479.48 536.99 L 480.51 536.24 L 481.24 535.76 L 482 535.24 L 482.77 534.76 L 483.26 534.5 L 483.99 534.01 L 484.75 533.5 L 485.25 533.24 L 486.01 533.01 L 486.51 532.76 L 487.01 532.5 L 487.73 532.24 L 488.27 532.01 L 488.99 531.75 L 489.76 531.5 L 490.48 531.24 L 491.51 531.01 L 492.51 531.01 L 493.5 530.75 L 494.49 530.5 L 495.49 530.24 L 496.75 530.01 L 498.01 529.75 L 499.23 529.5 L 500.49 529.24 L 501.48 529.01 L 502.75 528.75 L 504.01 528.49 L 505.5 528.24 L 506.99 527.75 L 508.51 527.49 L 510 527.24 L 511.49 527.01 L 512.98 527.01 L 514.51 527.01 L 516 527.01 L 517.26 527.01 L 518.75 527.01 L 520.01 527.01 L 521.23 527.01 L 522.76 527.01 L 523.98 527.01 L 525.25 527.01 L 526.73 527.01 L 528 527.01 L 529.26 527.01 L 530.52 527.01 L 531.51 527.01 L 532.5 527.01 L 533.5 527.01 L 534.49 527.01 L 535.75 527.01 L 537.01 527.01 L 538.23 527.01 L 539.49 527.01 L 540.49 527.01 L 541.25 527.24 L 542.24 527.49 L 543.01 528.01 L 543.5 528.49 L 544.27 528.75 L 544.5 529.24 L 544.77 529.5 L 545.26 529.75 L 545.49 530.01 L 545.76 530.01 L 546.26 530.24 L 546.48 530.5 L 546.75 530.75 L 547.25 531.01 L 547.52 531.01 L 547.74 531.01 L 548.24 531.24 L 548.51 531.5 L 548.74 531.75 L 549.23 532.24 L 549.5 532.5 L 549.73 532.76 L 550.27 533.01 L 550.5 533.24 L 550.99 533.5 L 551.49 533.76 L 551.99 534.24 L 552.75 534.5 L 553.25 534.76 L 554.01 535.24 L 555 535.5 L 556 535.76 L 557.49 536.24 L 559.24 536.76 L 560.73 537.25 L 562.26 537.99 L 563.75 538.5 L 565.01 538.99 L 566.5 539.76 L 568.26 540.25 L 570.02 540.99 L 572 541.51 L 573.76 541.99 L 575.52 542.51 L 577.01 542.99 L 578.27 543.51 L 579.76 544 L 581.02 544.51 L 582.24 545 L 583.5 545.51 L 584.49 546 L 585.49 546.51 L 586.52 546.74 L 587.51 547.26 L 588.5 547.51 L 589.5 548 L 590.49 548.49 L 591.48 549 L 592.52 549.74 L 593.51 550.26 L 594.5 550.75 L 595.49 551.26 L 596.49 551.49 L 597.48 552 L 598.74 552.49 L 600 553 L 601.26 553.75 L 602.75 554.26 L 604.01 555.01 L 605.73 555.75 L 607.76 556.49 L 609.51 557.24 L 611.23 558.01 L 612.76 558.5 L 613.98 559.01 L 615.24 559.5 L 616.51 560.01 L 617.5 560.5 L 618.49 560.76 L 619.48 561.24 L 620.52 561.5 L 621.24 561.76 L 622.01 562.01 L 622.73 562.24 L 623.27 562.5 L 623.99 562.76 L 624.76 563.24 L 625.48 563.5 L 626.74 563.76 L 628 564.24 L 629.26 564.5 L 630.75 564.99 L 632.24 565.5 L 633.73 565.99 L 635.49 566.5 L 637.02 566.99 L 638.24 567.5 L 639.77 567.76 L 640.99 568.25 L 642.25 568.51 L 643.74 568.99 L 645 569.51 L 646.26 569.76 L 647.49 569.99 L 648.52 569.99 L 649.24 570.25 L 650.01 570.51 L 650.73 570.74 L 651.5 570.99 L 652.49 570.99 L 653.75 571.25 L 655.01 571.51 L 656.23 571.74 L 657.76 571.99 L 658.98 572.25 L 660.51 572.51 L 662.27 572.74 L 663.99 573.25 L 666.01 573.51 L 667.73 573.74 L 669.49 574.25 L 671.51 574.51 L 673.23 574.74 L 675.26 575.26 L 677.24 575.51 L 678.73 575.74 L 680.49 576 L 682.02 576 L 683.24 576 L 684.5 576.26 L 685.49 576.51 L 686.49 576.74 L 687.52 577 L 688.74 577 L 690 577 L 691.26 577 L 692.75 577 L 694.01 577 L 695.24 577 L 696.99 577 L 698.48 577 L 700.01 577 L 701.5 577 L 702.49 577 L 703.49 577 L 704.52 577 L 705.51 577 L 706.24 577 L 707 577 L 707.76 577 L 708.26 577 L 708.99 577 L 709.48 577 L 710.02 577 L 710.52 577 L 711.01 576.74 L 711.51 576.51 L 712.01 576.26 L 712.77 576 L 713.27 575.74 L 713.76 575.51 L 714.26 575 L 714.49 574.51 L 714.98 574.25 L 715.48 573.74 L 715.75 573.51 L 716.25 573.25 L 716.51 572.74 L 716.74 572.51 L 717.24 572.25 L 717.51 571.74 L 717.74 571.51 L 718.23 571.25 L 718.5 570.74 L 718.77 570.51 L 719 570.25 L 719.26 569.99 L 719.49 569.76 L 719.76 569.51 L 720.26 569.25 L 720.49 568.76 L 720.75 568.51 L 720.98 567.99 L 721.25 567.5 L 721.52 566.99 L 721.75 566.25 L 722.24 565.76 L 722.51 565.25 L 722.74 564.76 L 723.01 564.5 L 723.01 563.99 L 723.24 563.24 L 723.5 562.76 L 723.73 562.01 L 724 561.5 L 724.27 561.01 L 724.5 560.5 L 724.76 560.24 L 724.99 559.75 L 725.26 559.5 L 725.49 559.01 L 725.76 558.5 L 725.99 558.24 L 725.99 557.75 L 725.99 557.49 L 725.99 557.01 L 725.99 556.49 L 726.25 555.75 L 726.48 555.01 L 726.75 554.49 L 727.02 554.01 L 727.02 553.75 L 727.25 553.49 L 727.51 553.26 L 727.74 552.75 L 728.01 552.49 L 728.01 552.26 L 728.01 552 L 728.24 551.75 L 728.51 551.49 L 728.74 551.26 L 729 551 L 729 551 L 729 550.75 L 729 550.49 L 729.23 550.26 L 729.5 550 L 729.77 549.74 L 730 549.49 L 730 549 L 730 548.49 L 730 548.26 L 730.26 547.74 L 730.49 547.51 L 730.76 547 L 730.99 546.51 L 731.26 546 L 731.49 545.51 L 731.75 545 L 732.25 544.25 L 732.52 543.51 L 732.75 542.74 L 733.24 541.99 L 733.51 541.51 L 734.01 540.99 L 734.5 540.25 L 735 539.76 L 735.5 538.99 L 735.99 538.25 L 736.49 537.76 L 736.99 536.99 L 737.48 536.24 L 737.98 535.76 L 738.74 534.99 L 739.51 534.24 L 740.23 533.76 L 741 533.01 L 741.5 532.5 L 741.99 532.01 L 742.76 531.5 L 743.25 531.01 L 744.02 530.5 L 744.51 530.01 L 745.01 529.5 L 745.51 529.01 L 746 528.49 L 746.5 528.24 L 747 527.75 L 747.49 527.49 L 747.99 527.24 L 748.49 527.01 L 748.98 526.75 L 749.52 526.49 L 750.01 526.26 L 750.51 526.01 L 751.01 525.75 L 751.73 525.49 L 752.27 525.26 L 752.99 524.75 L 753.76 524.49 L 754.25 524.26 L 755.02 523.75 L 755.74 523.49 L 756.51 523.26 L 757.5 522.75 L 758.49 522.49 L 759.49 522 L 760.52 521.49 L 761.24 521 L 762.01 520.49 L 762.73 520.26 L 763.5 519.74 L 764.49 519.51 L 765.75 519.26 L 767.01 518.74 L 768.24 518.51 L 769.76 518 L 770.99 517.51 L 772.51 517 L 774 516.51 L 775.26 516 L 776.49 515.51 L 777.52 515.25 L 778.51 514.74 L 779.5 514.51 L 780.5 514.25 L 781.49 513.74 L 782.25 513.51 L 783.02 512.99 L 783.74 512.51 L 784.51 512.25 L 785.23 511.76 L 786 511.51 L 786.49 510.99 L 786.99 510.25 L 787.49 509.5 L 787.98 508.5 L 788.75 507.5 L 789.25 506.24 L 790.01 504.76 L 790.74 503.01 L 791.5 501.24 L 792.49 499.24 L 793.49 497.49 L 794.25 495.75 L 795.01 494 L 795.51 492.74 L 796.01 491.49 L 796.5 490.51 L 796.73 489.51 L 797 488.51 L 797 487.74 L 797 487 L 797 486.25 L 797 485.74 L 797 485.25 L 797 484.74 L 797 484.51 L 797 483.99 L 796.73 483.25 L 796.5 482.76 L 796.24 481.99 L 795.74 481.25 L 795.51 480.76 L 795.01 479.99 L 794.25 478.99 L 793.75 478.24 L 792.99 477.24 L 792.26 476.24 L 791.5 475.5 L 790.74 474.76 L 790.01 474.01 L 789.25 473.24 L 788.48 472.5 L 787.49 471.49 L 786.27 470.75 L 785.01 470.01 L 783.74 469.26 L 782.48 468.49 L 781.76 467.75 L 780.99 467 L 780.27 466.49 L 779.5 466 L 778.51 465.26 L 777.52 464.74 L 776.75 464 L 775.99 463.49 L 775.49 463 L 775 462.51 L 774.23 462 L 773.74 461.51 L 773.01 461 L 772.51 460.25 L 772.02 459.51 L 771.48 458.51 L 770.99 457.74 L 770.26 456.99 L 769.76 456.25 L 769 455.51 L 768.5 454.51 L 768.01 453.51 L 767.51 452.5 L 767.24 451.25 L 767.01 449.99 L 766.75 448.5 L 766.52 446.76 L 765.98 445.24 L 765.49 443.5 L 765.26 442.01 L 764.99 440.49 L 764.76 439.01 L 764.49 437.75 L 764.26 436.49 L 764 435.49 L 764 434.74 L 764 434 L 764 433.51 L 764 433 L 764 432.51 L 764 432.26 L 764.26 431.74 L 764.49 431.51 L 764.76 431.25 L 764.99 430.74 L 765.26 430.51 L 765.49 430.25 L 765.75 430 L 766.25 429.74 L 766.52 429.51 L 767.01 429.25 L 767.51 428.74 L 767.74 428.51 L 768.24 427.99 L 768.5 427.51 L 768.73 427.25 L 769.27 426.76 L 769.5 426.51 L 769.99 425.99 L 770.49 425.51 L 770.99 424.99 L 771.48 424.5 L 772.02 423.99 L 772.51 423.5 L 773.01 423.25 L 773.74 422.76 L 774.23 422.5 L 775 422.25 L 775.49 421.76 L 775.99 421.5 L 776.49 421.24 L 776.98 420.76 L 777.52 420.5 L 778.01 420.24 L 778.51 419.99 L 779.01 419.99 L 779.5 419.76 L 780 419.5 L 780.5 419.24 L 780.99 419.01 L 781.49 419.01 L 781.76 418.76 L 781.99 418.5 L 782.25 418.24 L 782.48 418.01 L 782.75 418.01 L 783.25 417.76 L 783.52 417.5 L 783.74 417.24 L 784.24 416.75 L 784.51 416.5 L 784.74 416.24 L 785.01 416.01 L 785.01 415.75 L 785.01 415.5 L 785.23 415.24 L 785.5 415.01 L 785.73 414.75 L 786 414.49 L 786 414.24 L 786 414.01 L 786 413.75 L 786.27 413.49 L 786.49 413.24 L 786.76 412.75 L 786.99 412.49 L 786.99 412.26 L 786.99 411.75 L 786.99 411.49 L 786.99 411.01 L 786.99 410.49 L 786.99 410.26 L 786.99 409.75 L 786.99 409.49 L 786.76 409.26 L 786.49 408.75 L 786.27 408.49 L 786 408.26 L 786 407.75 L 786 407.49 L 785.73 407.26 L 785.5 406.74 L 785.23 406.49 L 785.01 406.26 L 785.01 406 L 784.74 405.74 L 784.51 405.49 L 784.24 405.26 L 784.01 405 L 784.01 404.74 L 784.01 404.51 L 784.01 404.26 L 783.74 403.74 L 783.52 403.51 L 783.25 403 L 783.02 402.51 L 783.02 402.25 L 783.02 401.74 L 783.02 401.51 L 783.02 401.25 L 783.02 400.74 L 782.75 400.51 L 782.48 399.99 L 782.25 399.51 L 781.99 398.99 L 781.99 398.51 L 781.99 397.99 L 781.99 397.25 L 781.99 396.76 L 781.76 395.99 L 781.49 395.5 L 781.26 394.99 L 780.99 394.25 L 780.99 393.76 L 780.99 392.99 L 780.76 392.5 L 780.5 391.99 L 780.27 391.5 L 779.73 391.01 L 779.5 390.5 L 779.24 390.01 L 779.01 389.5 L 779.01 389.01 L 778.74 388.5 L 778.51 388.01 L 778.24 387.5 L 777.75 387.01 L 777.52 386.5 L 777.25 386.01 L 776.75 385.49 L 776.49 385.01 L 776.26 384.49 L 775.76 384.24 L 775.49 383.75 L 775.26 383.49 L 775 383.01 L 774.77 382.49 L 774.5 382.01 L 774.23 381.49 L 774 381.26 L 774 380.75 L 774 380.49 L 773.74 380.26 L 773.51 380 L 773.24 379.75 L 773.01 379.49 L 773.01 379 L 773.01 378.49 L 773.01 378.26 L 773.01 377.74 L 773.01 377.49 L 773.01 377.26 L 773.01 376.74 L 773.01 376.51 L 773.01 376 L 773.01 375.51 L 773.01 375 L 773.01 374.51 L 773.01 374 L 773.01 373.51 L 773.01 373 L 773.01 372.51 L 773.01 372.25 L 773.01 371.74 L 773.01 371.51 L 772.74 371.25 L 772.51 370.74 L 772.25 370.51 L 772.02 369.99 L 772.02 369.51 L 772.02 368.99 L 771.75 368.51 L 771.48 368.25 L 771.25 367.76 L 770.99 367.51 L 770.76 366.99 L 770.49 366.25 L 770.26 365.76 L 769.76 364.99 L 769.5 364.5 L 769.27 364.24 L 769 363.76 L 768.73 363.5 L 768.5 362.99 L 768.24 362.5 L 767.74 362.01 L 767.51 361.5 L 767.01 361.01 L 766.52 360.5 L 766.25 360.24 L 765.75 359.75 L 765.49 359.5 L 765.26 359.01 L 764.76 358.5 L 764.49 358.01 L 764 357.49 L 763.5 357.01 L 763.23 356.49 L 762.73 356.24 L 762.51 355.75 L 762.01 355.26 L 761.51 354.75 L 761.02 354.26 L 760.52 354.01 L 759.98 353.75 L 759.49 353.49 L 758.99 353 L 758.49 352.49 L 758.27 352.26 L 757.77 351.75 L 757.5 351.49 L 757 351.26 L 756.51 350.75 L 756.24 350.49 L 755.74 350.26 L 755.51 349.74 L 755.02 349.49 L 754.48 349 L 754.25 348.49 L 753.76 348.26 L 753.49 347.74 L 753.26 347.51 L 752.76 347.26 L 752.27 347 L 751.73 347 L 751.24 346.74 L 750.74 346.51 L 750.51 346.26 L 750.24 346 L 749.75 346 L 749.52 346 L 748.98 346 L 748.49 346 L 748.26 346 L 747.76 346 L 747.49 346 L 747 346 L 746.5 346 L 746 346 L 745.51 346 L 745.01 346 L 744.51 346 L 744.02 345.74 L 743.48 345.51 L 742.99 345.25 L 742.26 345 L 741.76 345 L 741.27 344.74 L 740.73 344.51 L 740.5 344.25 L 740.01 343.74 L 739.51 343.51 L 739.01 343.25 L 738.25 342.74 L 737.75 342.51 L 736.99 341.99 L 736.49 341.51 L 735.99 341.25 L 735.5 340.99 L 735 340.76 L 734.5 340.51 L 734.01 340.25 L 733.24 339.99 L 732.52 339.99 L 731.75 339.99 L 730.99 339.99 L 730.49 339.99 L 730 339.76 L 729.23 339.51 L 728.74 339.25 L 728.01 338.99 L 727.51 338.76 L 727.25 338.5 L 726.75 338.25 L 726.25 337.76 L 725.76 337.5 L 724.99 336.99 L 724.5 336.5 L 724 335.99 L 723.24 335.24 L 722.51 334.76 L 721.75 333.99 L 720.98 333.24 L 720.49 332.5 L 719.99 331.5 L 719.26 330.5 L 718.23 329.5 L 717.01 328.49 L 715.48 327.49 L 713.99 326.26 L 712.77 325.01 L 711.24 323.75 L 710.02 322.49 L 708.76 321.49 L 707.76 320.49 L 707 319.74 L 706.24 319 L 705.74 318.26 L 705.01 317.74 L 704.52 317 L 703.98 316.51 L 703.26 316 L 702.76 315.25 L 702 314.51 L 701.23 313.51 L 700.74 312.51 L 700.01 311.51 L 699.51 310.51 L 699.02 309.5 L 698.25 308.5 L 697.49 307.5 L 696.5 306.24 L 695.5 305.01 L 694.51 303.5 L 693.52 302.01 L 692.75 300.5 L 691.99 298.75 L 691.26 297.26 L 690.5 296.01 L 689.73 295 L 689.01 294.26 L 688.24 293.75 L 687.75 293 L 686.98 292.49 L 686.49 292.26 L 686.26 291.74 L 685.76 291.49 L 685.49 291.26 L 685 291 L 684.5 291 L 684.23 291 L 684 291 L 683.74 291 L 683.51 291 L 683.01 291 L 682.51 291 L 682.25 291.26 L 681.75 291.49 L 681.48 291.74 L 680.99 292.26 L 680.49 292.49 L 679.99 292.74 L 679.5 293 L 679.27 293 L 678.73 293 L 678.5 293 L 678.01 293 L 677.24 293 L 676.75 293 L 675.98 293 L 675.26 293 L 674.76 293 L 674 293 L 673.5 293 L 673 293 L 672.24 293 L 671.51 293 L 670.75 293 L 669.98 293 L 669.26 293 L 668.5 292.74 L 667.5 292.49 L 666.51 292.26 L 665.52 292 L 664.48 292 L 663.49 291.74 L 662.77 291.49 L 662 291.26 L 661.24 291 L 660.51 291 L 659.25 291 L 657.99 291 L 656.77 291 L 655.24 291 L 654.25 291 L 653.25 291 L 652.26 291 L 651.5 291 L 650.5 291 L 649.51 291 L 648.52 291.26 L 647.49 291.49 L 646.49 291.74 L 645.5 292 L 644.73 292 L 643.74 292 L 643.02 292.26 L 642.48 292.49 L 641.76 292.74 L 641.49 293 L 640.99 293 L 640.49 293.26 L 640.27 293.49 L 639.77 293.75 L 639.5 294.26 L 639 294.49 L 638.51 294.75 L 638.24 295.26 L 638.01 295.49 L 638.01 296.01 L 637.74 296.49 L 637.51 297.01 L 637.25 297.49 L 637.02 298.01 L 636.75 298.49 L 636.48 299.01 L 636.25 299.49 L 635.99 300.01 L 635.76 300.75 L 635.49 301.5 L 635.26 302.24 L 634.99 302.75 L 634.76 303.24 L 634.5 303.5 L 634.27 304.01 L 634 304.5 L 634 305.01 L 634 305.5 L 633.73 305.99 L 633.5 306.5 L 633.24 306.99 L 633.01 307.5 L 633.01 307.99 L 633.01 308.5 L 633.01 308.99 L 632.74 309.76 L 632.51 310.25 L 632.24 310.99 L 632.01 311.51 L 632.01 311.99 L 632.01 312.74 L 632.01 313.51 L 632.01 314.51 L 632.01 315.25 L 632.01 316 L 632.01 316.74 L 632.01 317.51 L 632.01 318.26 L 631.75 319 L 631.52 319.74 L 631.25 320.49 L 630.98 321.26 L 630.98 322 L 630.98 322.75 L 630.98 323.26 L 630.98 324 L 630.98 324.49 L 630.98 325.01 L 630.98 325.75 L 630.75 326.49 L 630.49 327.49 L 630.26 328.49 L 629.99 329.5 L 629.99 330.5 L 629.99 331.5 L 629.99 332.5 L 629.99 333.24 L 629.99 333.99 L 629.99 334.76 L 629.99 335.24 L 629.99 335.99 L 629.99 336.5 L 629.99 336.99 L 629.99 337.5 L 629.99 337.99 L 629.99 338.5 L 629.99 338.99 L 629.99 339.51 L 629.99 339.99 L 629.99 340.51 L 629.99 340.99 L 629.99 341.51 L 629.99 341.99 L 629.99 342.74 L 629.99 343.25 L 629.99 344 L 629.99 344.74 L 629.99 345.51 L 630.26 346.74 L 630.49 348 L 630.75 349.26 L 631.25 350.49 L 631.52 351.49 L 631.75 352.49 L 632.01 353.49 L 632.24 354.26 L 632.51 355.01 L 632.74 355.75 L 633.24 356.49 L 633.5 357.49 L 633.73 358.24 L 634 359.01 L 634.27 359.5 L 634.5 360.01 L 634.99 360.76 L 635.49 361.5 L 635.76 362.5 L 636.25 363.24 L 636.48 363.99 L 637.02 364.5 L 637.51 364.99 L 638.01 365.76 L 638.51 366.25 L 639 366.99 L 639.5 367.51 L 640 367.99 L 640.49 368.51 L 640.99 368.99 L 641.49 369.51 L 641.76 369.74 L 642.25 370.25 L 642.48 370.51 L 643.02 370.74 L 643.51 371.25 L 643.74 371.51 L 644.01 371.74 L 644.24 372 L 644.51 372.25 L 644.73 372.51 L 645 372.74 L 645 373.25 L 645.23 373.51 L 645.5 373.74 L 645.77 374 L 646 374.25 L 646 374.51 L 646 375 L 646.26 375.51 L 646.49 376 L 646.76 376.74 L 646.99 377.26 L 646.99 378 L 647.26 378.49 L 647.49 379 L 647.75 379.49 L 648.25 380 L 648.52 380.49 L 648.75 381 L 649.24 381.75 L 649.51 382.26 L 650.01 383.01 L 650.5 383.75 L 651 384.49 L 651.76 385.49 L 652.26 386.5 L 652.99 387.5 L 653.48 388.5 L 654.02 389.76 L 654.51 390.76 L 654.74 391.76 L 655.01 392.5 L 655.24 392.99 L 655.51 393.76 L 655.74 394.25 L 656 394.99 L 656 395.5 L 656 395.99 L 656 396.76 L 656 397.25 L 656 397.99 L 656 398.74 L 656 399.25 L 656 399.99 L 656 400.74 L 656 401.25 L 656 402 L 656 402.74 L 656 403.51 L 655.74 404.26 L 655.51 405 L 655.24 405.74 L 655.01 406.49 L 655.01 407.26 L 654.74 408 L 654.51 408.75 L 654.25 409.49 L 654.02 410.49 L 653.75 411.26 L 653.48 412.01 L 653.25 412.75 L 652.99 413.49 L 652.76 414.49 L 652.49 415.24 L 652.26 416.01 L 651.76 416.5 L 651.5 417.01 L 651.27 417.76 L 650.73 418.24 L 650.5 419.01 L 650.01 419.76 L 649.51 420.24 L 649.01 420.99 L 648.25 421.5 L 647.49 422.25 L 646.76 422.99 L 646 423.76 L 645.5 424.5 L 645 424.99 L 644.24 425.51 L 643.74 425.99 L 643.02 426.51 L 642.48 426.76 L 641.98 427.25 L 641.49 427.51 L 640.99 427.74 L 640.49 428.25 L 640.27 428.51 L 639.77 428.74 L 639.5 428.99 L 639 429.25 L 638.51 429.51 L 638.01 429.74 L 637.25 430.25 L 636.75 430.51 L 635.99 431 L 635.49 431.51 L 634.99 431.74 L 634.27 432.26 L 633.73 432.51 L 633.01 432.74 L 632.24 433.26 L 631.75 433.51 L 630.98 433.74 L 630.26 434.26 L 629.76 434.49 L 629 435 L 628.23 435.49 L 627.51 435.74 L 626.74 436.26 L 626.02 436.49 L 625.48 436.75 L 624.99 437.26 L 624.26 437.49 L 623.76 438 L 623 438.49 L 622.23 439.01 L 621.74 439.49 L 621.24 440.01 L 620.75 440.75 L 620.52 441.49 L 620.25 442.24 L 619.98 443.01 L 619.98 443.75 L 619.98 444.24 L 619.98 445.01 L 619.98 445.75 L 619.75 446.24 L 619.48 447.01 L 619.26 447.76 L 618.99 448.24 L 618.99 448.99 L 618.99 449.5 L 618.99 449.99 L 618.99 450.76 L 618.99 451.5 L 618.76 452.5 L 618.49 453.51 L 618.26 454.51 L 617.77 455.25 L 617.5 455.99 L 617.27 456.74 L 617 457.51 L 616.73 458.51 L 616.51 459.51 L 616.01 460.51 L 615.51 461.26 L 615.24 462 L 614.75 462.74 L 614.52 463.49 L 614.25 464.26 L 613.75 465 L 613.49 465.49 L 612.99 466 L 612.49 466.49 L 612 466.75 L 611.5 467 L 611.23 467.26 L 610.74 467.49 L 610.51 467.75 L 610.01 468.01 L 609.51 468.01 L 609.02 468.26 L 608.48 468.49 L 607.99 468.75 L 607.49 469.01 L 606.99 469.01 L 606.5 469.01 L 606 469.01 L 605.5 469.01 L 605.01 469.01 L 604.51 469.01 L 604.01 469.01 L 603.52 469.01 L 602.98 469.01 L 602.49 469.01 L 601.99 469.01 L 601.26 469.01 L 600.77 469.01 L 600 469.01 L 599.51 469.01 L 599.01 469.01 L 598.25 469.01 L 597.48 469.01 L 596.49 469.01 L 595.49 469.01 L 594.5 469.01 L 593.51 469.01 L 592.52 469.01 L 591.25 469.01 L 589.99 469.01 L 588.73 469.01 L 587.51 469.01 L 586.52 469.01 L 585.49 469.01 L 584.49 469.01 L 583.5 468.75 L 582.51 468.49 L 581.51 468.26 L 580.48 468.01 L 579.76 467.75 L 578.99 467.49 L 578.27 467.26 L 577.73 467 L 577.01 467 L 576.24 467 L 575.75 467 L 574.98 467 L 574.26 466.75 L 573.49 466.49 L 572.5 466.26 L 571.73 466 L 571.01 466 L 570.24 466 L 569.52 466 L 568.76 465.75 L 567.99 465.49 L 567.49 465.26 L 567 465 L 566.5 464.74 L 566 464.49 L 565.51 464.26 L 565.01 464 L 564.51 464 L 564.02 463.74 L 563.48 463.49 L 562.99 463.26 L 562.49 463 L 561.99 462.74 L 561.5 462.51 L 561.27 462 L 560.73 461.51 L 560.24 461.26 L 559.74 460.74 L 559.24 460.51 L 558.75 460 L 558.25 459.51 L 557.75 459 L 556.99 458.51 L 556.49 458 L 556.26 457.51 L 555.77 457.25 L 555.23 456.74 L 554.74 456.51 L 554.01 455.99 L 553.25 455.51 L 552.75 455.25 L 551.99 454.76 L 551.49 454.51 L 550.99 453.99 L 550.5 453.51 L 550 453.25 L 549.23 452.76 L 548.51 452.5 L 547.74 452.25 L 546.98 451.99 L 546.26 451.76 L 545.49 451.5 L 544.27 451.25 L 543.01 450.99 L 541.75 450.99 L 540.49 450.99 L 539.49 450.99 L 538.5 450.99 L 537.51 450.99 L 536.51 450.99 L 535.48 450.99 L 534.49 450.99 L 533.27 450.76 L 532.01 450.5 L 531.01 450.24 L 529.98 449.99 L 529.26 449.99 L 528.49 449.99 L 527.5 449.99 L 526.51 449.76 L 525.25 449.5 L 523.98 449.24 L 522.76 448.99 L 521.5 448.99 L 520.51 448.99 L 519.74 448.99 L 519.02 448.99 L 518.25 448.99 L 517.49 448.99 L 516.5 448.99 L 515.5 448.99 L 514.51 448.99 L 513.52 448.99 L 512.49 448.99 L 511.49 448.99 L 510.23 448.99 L 509.01 448.99 L 507.75 448.99 L 506.49 448.99 L 505.5 448.99 L 504.24 449.24 L 503.01 449.5 L 501.75 449.76 L 500.26 450.24 L 498.73 450.5 L 497.24 450.99 L 495.75 451.5 L 494.27 451.76 L 493 451.99 L 491.51 452.25 L 489.99 452.5 L 488.76 452.99 L 487.5 453.51 L 486.51 453.76 L 485.52 453.99 L 484.49 453.99 L 483.76 454.25 L 483 454.51 L 482.23 454.76 L 481.74 455.25 L 481.01 455.51 L 480.51 455.74 L 480.25 455.99 L 479.75 456.25 L 479.48 456.51 L 479.25 456.99 L 478.76 457.51 L 478.49 458 L 478.26 458.51 L 477.76 459 L 477.5 459.51 L 477.27 460 L 477 460.74 L 477 461.26 L 476.73 462 L 476.5 462.51 L 476.23 463 L 476.01 463.74 L 475.74 464.26 L 475.51 465 L 475.24 465.49 L 475.01 466 L 474.74 466.49 L 474.52 467 L 474.25 467.49 L 474.02 467.75 L 473.75 468.26 L 473.48 468.49 L 472.99 469.01 L 472.49 469.49 L 472.26 470.01 L 471.77 470.49 L 471.5 471.01 L 471.27 471.49 L 470.73 472.01 L 470.24 472.75 L 469.74 473.24 L 469.24 474.01 L 468.75 474.76 L 468.52 475.24 L 467.98 476.01 L 467.49 476.76 L 467.26 477.5 L 466.76 478.24 L 466.26 478.99 L 465.77 479.76 L 465.23 480.25 L 464.74 480.99 L 464.51 481.5 L 464.01 481.99 L 463.51 482.76 L 463.02 483.25 L 462.25 483.99 L 461.49 484.74 L 460.76 485.51 L 460 486.25 L 459.24 487 L 458.74 487.51 L 458.01 488 L 456.98 488.74 L 456.26 489.51 L 455.26 490.26 L 454.23 491 L 453.51 491.49 L 452.51 492 L 451.75 492.49 L 450.98 493 L 450.26 493.49 L 449.49 493.75 L 448.5 494.26 L 447.74 494.49 L 447.01 494.75 L 446.25 495.26 L 445.48 495.49 L 444.49 495.75 L 443.5 496.26 L 442.5 496.49 L 441.24 497.01 L 439.98 497.49 L 438.76 497.75 L 437.5 498.26 L 436.51 498.49 L 435.25 498.75 L 433.99 499.01 L 432.76 499.24 L 431.73 499.49 L 431.01 499.75 L 430.51 500.24 L 430.01 500.49 L 429.25 500.75 L 428.75 501.24 L 427.99 501.5 L 427.49 501.75 L 426.99 502.24 L 426.5 502.5 L 426.27 503.01 L 425.73 503.5 L 425.51 504.01 L 425.01 504.5 L 424.51 505.01 L 424.24 505.76 L 423.75 506.24 L 423.52 506.76 L 423.25 507.24 L 422.75 507.76 L 422.49 508.25 L 421.99 508.99 L 421.49 509.5 L 421.26 509.99 L 420.77 510.76 L 420.5 511.25 L 420.23 511.99 L 420 512.51 L 419.74 512.99 L 419.51 513.51 L 419.24 513.99 L 419.01 514.51 L 419.01 515 L 418.74 515.51 L 418.51 516 L 418.25 516.51 L 418.02 517 L 418.02 517.51 L 417.75 517.74 L 417.48 518.26 L 417.25 518.51 L 416.99 519 L 416.76 519.74 L 416.49 520.26 L 416.26 521 L 415.99 521.49 L 415.76 522 L 415.5 522.49 L 415.27 523 L 415 523.49 L 415 523.75 L 415 524.26 L 415 524.49 L 415 525.01 L 415 525.49 L 415 525.75 L 415 526.26 L 415 526.49 L 415 527.01 L 415 527.49 L 415 527.75 L 415 528.24 L 415 528.49 L 415 528.75 L 415 529.24 L 415 529.5 L 415 530.01 L 415 530.5 L 415 531.01 L 415 531.5 L 415 532.01 L 415 532.5 L 415 532.76 L 415 533.24 L 415 533.5 L 415 533.76 L 415 534.24 L 415 534.5 L 415.27 534.76 L 415.5 534.99 L 415.76 534.99 L 416.26 535.24 L 416.49 535.5 L 416.76 535.76 L 417.25 536.24 L 417.48 536.76 L 418.02 537.25 L 418.51 537.99 L 419.01 538.5 L 419.51 538.99 L 420 539.76 L 420.5 540.51 L 421 541.25 L 421.76 541.99 L 422.26 542.51 L 422.98 542.99 L 423.75 543.51 L 424.24 544 L 425.01 544.51 L 425.51 544.74 L 426 545.25 L 426.5 545.51 L 426.77 545.74 L 427.26 546 L 427.49 546 L 427.76 546 L 428.26 546 L 428.48 546 L 428.75 546.26 L 429.25 546.51 L 429.52 546.74 L 429.75 547 L 430.24 547.26 L 430.51 547.51 L 430.74 547.74 L 431.01 548 L 431.01 548 L 431.01 548.26 L 431.01 548.49 L 431.01 548.74 L 431.01 549.26 L 431.23 549.49 L 431.5 549.74 L 431.73 550 L 432 550.26 L 432 550.49 L 432 550.75 L 432 551 L 432 551 L 432 551.26 L 432 551.49 L 432 551.75 L 432 552.26 L 432 552.49 L 432.27 552.75 L 432.5 553 L 432.76 553 L 432.99 553.26 L 432.99 553.49 L 432.99 553.75 L 433.26 554.01 L 433.49 554.01 L 433.76 554.01 L 434.25 554.01 L 434.48 554.01 L 434.75 554.01 L 435.02 554.01 L 435.25 554.01 L 435.51 554.01 L 435.74 554.01 L 436.01 554.01 L 436.24 554.01 L 436.51 554.01 L 436.74 554.01 L 437 554.01 L 437.23 554.01 L 437.5 554.01 L 437.77 554.01 L 438.26 554.01 L 438.49 554.01 L 438.76 554.01 L 438.99 554.01 L 439.26 554.01 L 439.49 554.01 L 439.75 554.01 L 439.98 554.01 L 439.98 554.01 L 439.98 554.01 L 440.25 554.01 L 440.52 554.01 L 440.75 554.26 L 441.01 554.49 L 441.24 554.75 L 441.51 555.01 L 439.98 555.01" fill="none" stroke="#000000" style="stroke: light-dark(rgb(0, 0, 0), rgb(255, 255, 255));" stroke-miterlimit="10" pointer-events="all"/></g></g><g data-cell-id="GHSxaXnzdkKThOCYZxHZ-6"><g transform="translate(0.5,0.5)"><path d="M 761 40 L 761 40.33 L 761 40.5 L 761 40.75 L 761 41.25 L 760.75 41.5 L 760.5 41.75 L 760.25 42 L 760 42.26 L 760 42.5 L 760 43 L 760 43.5 L 760 43.75 L 760 44 L 759.75 44.25 L 759.5 44.5 L 759.25 44.75 L 759 45.25 L 759 45.5 L 759 45.75 L 759 46.25 L 759 46.5 L 758.75 47 L 758.5 47.5 L 758.25 48 L 758 48.5 L 758 48.76 L 758 49.25 L 758 49.5 L 757.75 50 L 757.5 50.5 L 757.25 51 L 757 51.5 L 757 51.75 L 757 52 L 757 52.25 L 756.75 52.5 L 756.51 52.75 L 756.25 53.25 L 756 53.5 L 756 53.75 L 756 54.25 L 756 54.5 L 756 54.75 L 756 55 L 756 55.26 L 756 55.5 L 756 55.75 L 756.25 56 L 756.51 56 L 756.75 56 L 757.25 56 L 757.5 56 L 758 56 L 758.5 56 L 759 56 L 759.5 56.25 L 760 56.5 L 760.5 56.75 L 760.75 57.25 L 761.25 57.5 L 761.5 57.75 L 761.75 58 L 762 58.25 L 762.25 58.5 L 762.5 58.75 L 762.75 59 L 763 59 L 763 59.25 L 763 59.5 L 763 59.75 L 763 60.25 L 763 60.5 L 763 60.75 L 763 61 L 763 61.25 L 763 61.5 L 763 61.76 L 763 62.25 L 763 62.5 L 763 63 L 763 63.5 L 763 63.75 L 763 64.25 L 763 64.5 L 763 65 L 763 65.75 L 763 66.25 L 763 67 L 763 67.5 L 763 68 L 763 68.5 L 763 69 L 763.25 69.5 L 763.5 69.75 L 763.75 70.25 L 764 70.5 L 764 71 L 764 71.5 L 764 72 L 764 72.5 L 764 73 L 764 73.5 L 764 74 L 764.25 74.5 L 764.5 75 L 764.75 75.5 L 765 76 L 765 76.5 L 765.25 77 L 765.5 77.5 L 765.75 77.75 L 766 78.25 L 766 78.5 L 766 79 L 766.25 79.5 L 766.5 79.75 L 766.75 80.25 L 767 80.5 L 767 81 L 767 81.5 L 767.25 81.75 L 767.5 82 L 767.75 82.25 L 768 82.5 L 768 83 L 768 83.5 L 768.25 83.75 L 768.5 84.25 L 768.75 84.5 L 769 84.75 L 769 85 L 769.25 85.25 L 769.5 85.5 L 769.75 85.75 L 770.25 86.25 L 770.5 86.5 L 770.75 86.75 L 771 87.25 L 771.25 87.5 L 771.5 87.76 L 771.75 88.25 L 772 88.5 L 772.25 88.75 L 772.5 89 L 772.75 89.25 L 773 89.5 L 773 89.75 L 773 90.25 L 773 90.5 L 773 90.75 L 773 91.25 L 773.25 91.5 L 773.5 92 L 773.75 92.5 L 774 93 L 774 93.5 L 774 94 L 774 94.5 L 774 95 L 774 95.75 L 774 96.25 L 774 97 L 774 97.5 L 774 97.75 L 773.75 98 L 773.5 98.25 L 773.25 98.5 L 773 98.75 L 773 99 L 773 99.25 L 773 99.5 L 773 99.75 L 773 100.25 L 773 100.5 L 773 100.76 L 773 101 L 773 101.25 L 773 101.5 L 773 101.75 L 773 102 L 773 102.25 L 773 102.5 L 773 103 L 773 103.5 L 773.25 104 L 773.5 104.5 L 773.75 104.75 L 774.25 105.25 L 774.5 105.5 L 774.75 106 L 775.25 106.75 L 775.5 107.26 L 775.75 108 L 776.25 108.5 L 776.5 109 L 776.75 109.5 L 777 109.75 L 777.25 110.25 L 777.5 110.5 L 777.75 110.75 L 778.25 111.25 L 778.75 111.5 L 779.25 111.75 L 780 112.25 L 780.5 112.5 L 781 112.75 L 781.5 113.25 L 782 113.5 L 782.5 113.76 L 783 114.25 L 783.5 114.5 L 783.75 114.75 L 784.25 115 L 784.5 115 L 784.75 115.25 L 785.25 115.5 L 785.5 115.75 L 786 116.25 L 786.5 116.5 L 786.75 116.75 L 787.25 117.25 L 787.5 117.5 L 787.75 117.75 L 788.25 118 L 788.5 118 L 788.75 118 L 789 118.25 L 789.25 118.5 L 789.5 118.75 L 790 119 L 790.5 119 L 790.75 119 L 791.25 119.25 L 791.5 119.5 L 791.75 119.75 L 792 120 L 792.25 120 L 792.5 120 L 792.75 120 L 793.25 120 L 793.5 120 L 793.75 120 L 794.25 120 L 794.5 120.26 L 795 120.5 L 795.5 120.75 L 796 121 L 796.5 121 L 796.75 121 L 797 121.25 L 797.25 121.5 L 797.5 121.75 L 797.75 122.25 L 798.25 122.5 L 798.5 122.75 L 798.75 123 L 799 123.25 L 799.25 123.5 L 799.5 123.75 L 799.75 124.25 L 800 124.5 L 800 124.75 L 800 125.25 L 800 125.5 L 800 126 L 800 126.5 L 800 127 L 800 127.5 L 800 128 L 800 128.5 L 800 128.75 L 800 129 L 800 129.25 L 800 129.5 L 800.25 129.75 L 800.5 130 L 800.75 130 L 801.25 130 L 801.5 130 L 802 130 L 802.5 130 L 803 130 L 803.5 130 L 803.75 130 L 804.25 130 L 804.5 130 L 805 130 L 805.5 130 L 805.99 130 L 806.5 130 L 807.01 130 L 807.5 130 L 808 130 L 808.5 130 L 808.75 130 L 809.25 130 L 809.5 130 L 810 130 L 810.5 130 L 810.75 130 L 811.25 130 L 811.5 130 L 812 130 L 812.5 130 L 813 130 L 813.5 130 L 813.75 130 L 814.25 130 L 814.5 130 L 815 130 L 815.5 130 L 816 130 L 816.5 130 L 816.75 129.75 L 817.25 129.5 L 817.5 129.25 L 817.75 129 L 818 128.75 L 818.25 128.5 L 818.5 128.25 L 818.75 127.75 L 819 127.5 L 819.25 127 L 819.5 126.5 L 819.75 126 L 820 125.25 L 820 124.5 L 820.25 123.5 L 820.5 122.5 L 820.75 121.75 L 821 121 L 821 120.5 L 821 120 L 821 119.25 L 821.25 118.75 L 821.5 118.25 L 821.75 117.75 L 822 117.5 L 822 117 L 822 116.5 L 822.25 116 L 822.5 115.5 L 822.75 115.25 L 823 114.75 L 823.25 114.5 L 823.5 114.25 L 823.75 113.76 L 824.25 113.5 L 824.5 113.25 L 824.75 112.75 L 825.25 112.5 L 825.5 112.25 L 825.75 111.75 L 826.25 111.5 L 826.5 111 L 826.75 110.5 L 827.25 110.25 L 827.5 109.75 L 828 109.5 L 828.5 109.25 L 829 108.75 L 829.5 108.5 L 830 108.25 L 830.5 108 L 831 108 L 831.5 107.75 L 832 107.5 L 832.75 107.26 L 833.5 107 L 834.5 107 L 835.5 107 L 836.5 107 L 837.25 107 L 838 107 L 838.75 107 L 839.25 107 L 840 107 L 840.5 107 L 841 107 L 841.5 107 L 842 107 L 842.5 107 L 843 107 L 843.5 107 L 843.75 107 L 844.25 107 L 844.5 107 L 844.75 107 L 845.25 107 L 845.5 107 L 845.75 107 L 846.25 107 L 846.5 107 L 847 107 L 847.5 107 L 847.75 107 L 848 107 L 848.25 107 L 848.5 107 L 848.75 107 L 849.25 107 L 849.5 107 L 849.75 106.75 L 850.25 106.5 L 850.5 106.25 L 850.75 105.75 L 851.25 105.5 L 851.5 105 L 851.75 104.5 L 852 104.25 L 852.25 103.75 L 852.5 103.5 L 852.75 103 L 853 102.5 L 853 102 L 853 101.5 L 853.25 101 L 853.5 100.25 L 853.75 99.75 L 854 99 L 854.25 98.25 L 854.5 97.75 L 854.75 97.25 L 855 96.75 L 855 96.5 L 855 96 L 855 95.5 L 855.25 95 L 855.5 94.5 L 855.75 94.26 L 856 93.75 L 856 93.5 L 856 93.25 L 856 93 L 856 92.75 L 856 92.5 L 856 92.25 L 856 92 L 856 91.75 L 856.25 91.5 L 856.49 91.25 L 856.75 90.75 L 857 90.5 L 857 90 L 857 89.5 L 857 89.25 L 857 88.75 L 857 88.5 L 857 88.25 L 857 87.76 L 857 87.5 L 857 87.25 L 857 86.75 L 857 86.5 L 857 86 L 857 85.5 L 857 85.25 L 857 85 L 857 84.75 L 856.75 84.5 L 856.49 84.25 L 856.25 84 L 856 83.75 L 856 83.5 L 856 83.25 L 855.75 83 L 855.5 82.75 L 855.25 82.5 L 855 82.25 L 855 82 L 854.75 81.75 L 854.5 81.5 L 854.25 81.26 L 854 80.75 L 854 80.5 L 854 80.25 L 854 79.75 L 854 79.5 L 854 79.25 L 853.75 79 L 853.5 78.75 L 853.25 78.5 L 853 78.25 L 853 77.75 L 853 77.5 L 853 77 L 852.75 76.5 L 852.5 76 L 852.25 75.5 L 852 75 L 851.75 74.5 L 851.5 74 L 851.25 73.5 L 851 73 L 850.75 72.5 L 850.5 72.25 L 850.25 72 L 849.75 72 L 849.5 72 L 849 72 L 848.5 72 L 848 72 L 847.5 72 L 847 72 L 846.5 72 L 846 72 L 845.5 71.75 L 845.25 71.5 L 844.75 71.25 L 844.5 71 L 844.25 71 L 843.75 71 L 843.5 71 L 843.25 70.75 L 843 70.5 L 843 70.25 L 842.75 70 L 842.5 69.75 L 842.25 69.5 L 842 69.25 L 842 69 L 842 68.75 L 842 68.5 L 842 68 L 842 67.5 L 842 67.25 L 842 66.75 L 842 66.5 L 842 66 L 842 65.5 L 842 65.25 L 842 64.75 L 842 64.5 L 842 64.25 L 842 63.75 L 842 63.5 L 842 63.25 L 842 63 L 842 62.75 L 842 62.5 L 842 62 L 842 61.5 L 842 61.25 L 842 60.75 L 842 60.5 L 841.75 60.25 L 841.5 60 L 841.25 59.75 L 841 59.5 L 841 59.25 L 841 59 L 841 58.75 L 841 58.5 L 841 58.25 L 840.75 58 L 840.5 57.75 L 840.25 57.5 L 840 57.25 L 840 56.75 L 839.75 56.5 L 839.5 56.25 L 839.25 56 L 839 56 L 839 55.75 L 838.75 55.5 L 838.5 55.26 L 838 55 L 837.5 55 L 837.25 55 L 836.75 55 L 836.5 55 L 836 55 L 835.5 55 L 835.25 55 L 834.75 55 L 834.5 55 L 834 55 L 833.5 54.75 L 833 54.5 L 832.5 54.25 L 832.26 53.75 L 831.75 53.5 L 831.5 53.25 L 831 53 L 830.5 52.75 L 830.25 52.5 L 829.75 52.25 L 829.5 52 L 829.25 52 L 828.75 51.75 L 828.5 51.5 L 828.25 51.25 L 827.75 50.75 L 827.5 50.5 L 827.25 50 L 827 49.5 L 826.75 49.25 L 826.5 49 L 826.25 48.76 L 826 48.5 L 825.75 48.25 L 825.5 48 L 825.25 47.75 L 825 47.5 L 824.75 47 L 824.5 46.5 L 824.25 46 L 823.75 45.5 L 823.5 45.25 L 823.25 45 L 822.75 44.75 L 822.5 44.5 L 822.25 44 L 821.75 43.5 L 821.5 43 L 821 42.5 L 820.5 42 L 820.25 41.5 L 819.75 41.25 L 819.5 40.75 L 819.25 40.5 L 819 40.25 L 818.75 39.75 L 818.5 39.5 L 818.25 39 L 817.75 38.5 L 817.5 38 L 817.25 37.5 L 816.75 37.25 L 816.5 36.75 L 816.25 36.25 L 815.75 35.76 L 815.5 35.25 L 815.25 35 L 814.75 34.75 L 814.5 34.5 L 814.25 34 L 813.75 33.5 L 813.5 33.25 L 813.25 33 L 812.75 32.75 L 812.5 32.5 L 812.25 32 L 811.75 31.5 L 811.5 31.25 L 811 30.75 L 810.5 30.5 L 810.25 30.25 L 809.75 29.75 L 809.5 29.5 L 809 29.26 L 808.5 29 L 808.25 28.75 L 808 28.5 L 807.75 28.25 L 807.5 28 L 807.01 28 L 806.5 28 L 805.99 27.75 L 805.5 27.5 L 805.25 27.25 L 805 27 L 804.75 27 L 804.5 27 L 804.25 27 L 804 27 L 803.75 26.75 L 803.5 26.5 L 803.25 26.25 L 802.75 26 L 802.5 26 L 802 26 L 801.5 26 L 801 26 L 800.25 26 L 799.75 26 L 799 26 L 798.5 26 L 798 26 L 797.25 26 L 796.5 26 L 795.75 26 L 795 26 L 794.5 26 L 794 26 L 793.25 26 L 792.75 26 L 792 26 L 791.5 26 L 791.25 26 L 791 26 L 790.75 26 L 790.5 26 L 790.25 26 L 789.75 26 L 789.5 26 L 789.25 26.25 L 789 26.5 L 788.75 26.75 L 788.5 27 L 788.25 27 L 788 27 L 788 27 L 787.75 27 L 787.5 27 L 787.25 27.25 L 787 27.5 L 787 27.75 L 787 28 L 787 28 L 787 28.25 L 787 28.5 L 787 28.75 L 787 29.26 L 787 29.5 L 787 29.75 L 787 30 L 787 30.25 L 787 30.5 L 787 30.75 L 787 31 L 787 31.25 L 787 31.5 L 787 32 L 787 32.5 L 787 32.75 L 787 33 L 787 33.25 L 787 33.5 L 787 33.75 L 787 34 L 787 34.25 L 787 34.5 L 787 34.75 L 787 35.25 L 787 35.5 L 787 35.76 L 787 36 L 787 36.25 L 787 36.5 L 787 36.75 L 787 37.25 L 787.25 37.5 L 787.5 37.75 L 787.75 38 L 788 38.25 L 788 38.5 L 788 38.75 L 788 39 L 788 39.25 L 788 39.5 L 788 39.75 L 788 40.25 L 788 40.5 L 788 40.75 L 788 41 L 788 41.25 L 788 41.5 L 788 41.75 L 788 42 L 787.75 42.26 L 787.5 42.5 L 787.25 42.75 L 787 43.25 L 787 43.5 L 787 43.75 L 787 44 L 786.75 44.25 L 786.5 44.5 L 786.25 44.75 L 786 45 L 786 45.25 L 786 45.5 L 786 45.75 L 786 46.25 L 786 46.5 L 785.75 46.75 L 785.5 47 L 785.25 47.25 L 785 47.5 L 785 47.75 L 785 48 L 785 48.25 L 785 48.5 L 785 48.76 L 785 49 L 785 49.25 L 785 49.5 L 785 49.75 L 785 50 L 785 50.25 L 785 50.5 L 785 51 L 785 51.5 L 785 52 L 785 52.75 L 785 53.25 L 785 54 L 785 54.5 L 785 55 L 785 55.75 L 785 56.25 L 785 56.75 L 785 57.25 L 785 57.5 L 785 57.75 L 785 58.25 L 785 58.5 L 785 59 L 784.75 59.5 L 784.5 59.75 L 784.25 60 L 784 60.25 L 783.75 60.5 L 783.5 60.75 L 783.25 61 L 783 61 L 782.75 61 L 782.5 61 L 782.25 61.25 L 782 61.5 L 781.76 61.76 L 781.5 62 L 781.25 62 L 780.74 62 L 780.5 62 L 780.25 62 L 780 62 L 779.75 62 L 779.5 62 L 779.25 62 L 778.75 62 L 778.5 62 L 778.25 62 L 778 61.76 L 778 61.5 L 778 61.25 L 778 60.75 L 777.75 60.5 L 777.5 60.25 L 777.25 60 L 777 59.75 L 777 59.5 L 777 59.25 L 777 59 L 777 58.75 L 777 58.5 L 777 58.25 L 777 57.75 L 777 57.5 L 777 57 L 777 56.5 L 777 56.25 L 777 56 L 777 55.75 L 777 55.5 L 777 55.26 L 777 55 L 777 54.75 L 777 54.5 L 777 54.25 L 777 54 L 777 53.75 L 777 53.5 L 777 53.25 L 777 52.75 L 777 52.5 L 777 52.25 L 777 52 L 777 51.75 L 777 51.5 L 777 51.25 L 777 51 L 777 50.75 L 777 50.5 L 777 50.25 L 777 49.75 L 777 49.5 L 776.75 49.25 L 776.5 49 L 776.25 49 L 776 49 L 776 48.76 L 776 48.5 L 775.75 48.25 L 775.5 48 L 775.25 48 L 775 48 L 775 48 L 774.75 48 L 774.5 48 L 774.25 48 L 774 48 L 773.75 48 L 773.5 48 L 773.25 48 L 772.75 48 L 772.5 48 L 772.25 48 L 772 48 L 771.75 48 L 771.5 48 L 771.25 48 L 771 48 L 771 48 L 771 47.75 L 770.75 47.5 L 770.5 47.25 L 770.25 46.75 L 770 46.5 L 770 46.25 L 770 46 L 770 45.75 L 770 45.5 L 769.75 45.25 L 769.5 45 L 769.25 45 L 769 45 L 769 45 L 769 44.75 L 768.75 44.5 L 768.5 44.25 L 768.25 44 L 768 44 L 767.75 44 L 767.5 44 L 767.25 44 L 767 43.75 L 767 43.5 L 766.75 43.25 L 766.5 43 L 766.25 43 L 766 43 L 765.75 43 L 765.5 43 L 765.25 43 L 765 43 L 765 42.75 L 764.75 42.5 L 764.5 42.26 L 764.25 42 L 764 42 L 764 42 L 763.75 42 L 763.5 41.75 L 763.25 41.5 L 763 41.25 L 763 41 L 763 41 L 762.75 41 L 762.5 40.75 L 762.25 40.5 L 762 40.25 L 762 39.75 L 762 39.5 L 761.75 39.25 L 761.5 39 L 761 39 L 761 40" fill="none" stroke="#000000" style="stroke: light-dark(rgb(0, 0, 0), rgb(255, 255, 255));" stroke-miterlimit="10" pointer-events="all"/></g></g><g data-cell-id="GHSxaXnzdkKThOCYZxHZ-7"><g transform="translate(0.5,0.5)"><path d="M 14.01 47 L 14.01 47 L 14.01 47.25 L 14.01 47.75 L 14.01 48.26 L 14.01 48.74 L 14.01 49.25 L 14.01 49.75 L 14.01 50.26 L 14.01 50.99 L 14.01 51.5 L 13.77 52 L 13.48 52.51 L 13.23 52.99 L 12.99 53.5 L 12.99 54 L 12.74 54.5 L 12.49 54.76 L 12.25 55.24 L 12 55.49 L 12 55.75 L 12 56.25 L 11.75 56.5 L 11.51 56.75 L 11.26 57.01 L 11.01 57.01 L 11.01 57.26 L 11.01 57.49 L 11.01 57.74 L 11.01 58 L 11.01 58.25 L 11.01 58.5 L 11.01 58.75 L 11.01 59 L 10.77 59.26 L 10.48 59.51 L 10.23 59.74 L 9.99 60.25 L 9.99 60.5 L 9.74 60.75 L 9.49 61 L 9.25 61.25 L 9 61.51 L 8.75 61.76 L 8.51 62.24 L 8.26 62.5 L 8.01 62.75 L 8.01 63 L 8.01 63.25 L 8.01 63.5 L 8.01 63.76 L 8.01 64.24 L 8.01 64.49 L 8.01 64.75 L 8.01 65 L 8.01 65.25 L 7.77 65.5 L 7.48 65.75 L 7.23 66.01 L 6.99 66.01 L 6.99 66.26 L 6.99 66.49 L 6.99 66.74 L 6.99 67.25 L 6.99 67.5 L 6.99 67.75 L 6.99 68 L 6.99 68.26 L 6.99 68.51 L 6.99 68.74 L 6.99 68.99 L 6.74 69.25 L 6.49 69.75 L 6.25 70.25 L 6 70.76 L 6 71.24 L 6 71.5 L 6 72 L 6 72.5 L 6 72.76 L 6 73.24 L 6 73.49 L 6 73.75 L 6 74.25 L 6 74.5 L 6 75.01 L 6 75.49 L 6 75.74 L 6 76.25 L 6 76.5 L 6 76.75 L 6 77.26 L 6 77.51 L 6 77.99 L 6 78.5 L 6 79 L 6 79.51 L 6 79.99 L 6 80.5 L 6 81 L 6 81.5 L 6 82.01 L 6.25 82.49 L 6.49 82.75 L 6.74 83.25 L 6.99 83.5 L 6.99 83.75 L 6.99 84.26 L 6.99 84.49 L 7.23 84.74 L 7.48 85 L 7.77 85.25 L 8.01 85.5 L 8.01 85.75 L 8.01 86 L 8.01 86.26 L 8.01 86.51 L 8.26 86.74 L 8.51 86.99 L 8.75 87.25 L 9 87.5 L 9 87.75 L 9 88.25 L 9.25 88.51 L 9.49 88.76 L 9.74 88.99 L 9.99 89.24 L 9.99 89.5 L 10.23 89.75 L 10.48 90 L 10.77 90.25 L 11.26 90.5 L 11.51 90.76 L 11.75 91.24 L 12 91.49 L 12 91.75 L 12.25 92 L 12.49 92.25 L 12.74 92.5 L 12.99 92.75 L 12.99 93.26 L 12.99 93.49 L 13.23 93.74 L 13.48 94 L 13.77 94.25 L 14.01 94.5 L 14.01 94.75 L 14.26 95 L 14.51 95.26 L 14.75 95.51 L 15 95.74 L 15 95.99 L 15.25 96.25 L 15.49 96.5 L 15.74 96.75 L 15.99 97.25 L 15.99 97.51 L 15.99 97.76 L 15.99 98.24 L 15.99 98.5 L 16.23 98.75 L 16.48 99 L 16.77 99.25 L 17.01 99.5 L 17.01 99.76 L 17.01 100.24 L 17.01 100.49 L 17.01 101 L 17.01 101.75 L 17.01 102.26 L 17.01 102.74 L 17.01 103.25 L 17.01 103.5 L 17.01 104 L 17.01 104.51 L 17.01 104.99 L 17.01 105.5 L 17.01 105.75 L 17.01 106.25 L 17.01 106.51 L 17.01 106.76 L 17.01 106.99 L 17.01 107.24 L 17.01 107.5 L 17.01 107.75 L 17.01 108 L 17.01 108.25 L 17.01 108.5 L 17.01 108.76 L 17.01 109.24 L 17.01 109.49 L 17.01 109.75 L 17.01 110 L 17.01 110.25 L 17.01 110.5 L 17.01 110.75 L 17.01 111.01 L 17.01 111.26 L 17.01 111.49 L 17.26 111.74 L 17.51 112 L 17.75 112.25 L 18 112.5 L 18 112.75 L 18 113 L 18 113.26 L 18 113.51 L 18 113.74 L 18 114.25 L 18 114.5 L 18 115 L 18 115.51 L 18 115.99 L 18.25 116.75 L 18.49 117.25 L 18.74 118.01 L 18.99 118.75 L 18.99 119.5 L 18.99 120.26 L 18.99 121 L 18.99 121.75 L 18.99 122.51 L 18.99 123.25 L 18.99 124 L 18.99 124.76 L 18.99 125.24 L 18.99 126 L 18.99 126.5 L 18.99 127.01 L 18.99 127.49 L 18.99 128 L 18.99 128.5 L 18.99 129.01 L 18.99 129.49 L 18.99 129.74 L 18.99 130 L 18.99 130.25 L 18.99 130.5 L 18.99 131 L 18.99 131.51 L 18.99 131.99 L 18.99 132.5 L 18.99 133 L 18.74 133.76 L 18.49 134.24 L 18.25 135 L 18 135.5 L 18 135.76 L 18 136.01 L 18 136.24 L 18 136.49 L 18 136.75 L 18 137.25 L 18 137.5 L 18 137.75 L 18 138.26 L 18 138.49 L 18 139 L 18 139.75 L 18 140.26 L 18 140.99 L 18 141.5 L 18.25 142 L 18.49 142.51 L 18.74 142.99 L 18.99 143.5 L 18.99 144 L 18.99 144.5 L 18.99 144.76 L 18.99 145.01 L 18.99 145.24 L 18.99 145.49 L 18.99 145.75 L 18.99 146.25 L 18.99 146.5 L 18.99 146.75 L 18.99 147.26 L 18.99 147.49 L 18.99 147.74 L 18.99 148.25 L 18.99 148.5 L 18.99 148.75 L 18.99 149.26 L 18.99 149.51 L 18.99 149.74 L 18.99 150.25 L 18.99 150.5 L 18.99 150.75 L 18.99 151.25 L 18.99 151.51 L 18.99 151.76 L 18.99 152.24 L 18.99 152.5 L 18.99 153 L 18.99 153.5 L 18.99 154.01 L 18.99 154.49 L 18.99 154.75 L 18.99 155.25 L 18.99 155.5 L 18.99 155.75 L 18.99 156.01 L 19.23 156.26 L 19.48 156.49 L 19.77 156.74 L 20.02 157 L 20.26 157.25 L 20.51 157.5 L 20.75 157.75 L 21 158.26 L 21.25 158.51 L 21.74 158.74 L 22.48 159.5 L 23.51 160.25 L 24.49 161.24 L 25.23 162.5 L 26.02 163.49 L 26.76 164.5 L 27.5 165.49 L 28.24 166.5 L 29.02 167.51 L 29.51 168.25 L 30 169 L 30.5 169.76 L 30.99 170.24 L 31.48 171 L 32.02 171.76 L 32.51 172.24 L 32.76 173 L 33.25 173.5 L 33.5 174.01 L 33.99 174.49 L 34.48 175 L 34.77 175.5 L 35.26 176 L 35.51 176.51 L 36 176.74 L 36.5 177.25 L 36.99 177.5 L 37.48 177.75 L 38.02 178 L 38.51 178.25 L 39 178.51 L 39.5 178.76 L 39.99 178.99 L 40.48 179.24 L 41.02 179.5 L 41.51 179.75 L 42 180 L 42.5 180 L 42.99 180 L 43.48 180 L 44.02 180 L 44.51 180 L 45 180 L 45.5 180 L 45.99 180 L 46.48 180 L 47.02 180 L 47.51 180 L 48 180 L 48.5 180 L 48.99 180 L 49.73 180 L 50.26 180 L 51 180 L 51.74 180 L 52.48 179.75 L 53.51 179.5 L 54.74 179.24 L 56.02 178.99 L 57.25 178.99 L 58.48 178.99 L 60.01 178.99 L 61.48 178.99 L 63.01 178.99 L 64.73 178.99 L 66.01 178.99 L 67.24 178.99 L 68.51 178.99 L 69.5 178.99 L 70.49 178.99 L 71.51 178.99 L 72.25 178.99 L 72.99 178.99 L 73.49 178.99 L 74.02 178.99 L 74.51 178.99 L 74.76 178.99 L 75.25 178.99 L 75.5 178.99 L 75.75 178.99 L 76.24 179.24 L 76.49 179.5 L 76.73 179.75 L 76.98 180 L 77.27 180 L 77.51 179.75 L 77.76 179.5 L 78.01 179.24 L 78.01 178.99 L 78.01 178.76 L 78.01 178.51 L 78.01 178.25 L 78.01 178 L 78.25 177.75 L 78.5 177.5 L 78.75 176.99 L 78.99 176.51 L 79.24 176 L 79.49 175.5 L 79.73 175 L 79.98 174.49 L 80.27 174.26 L 80.51 174.01 L 81.01 173.75 L 81.5 173.5 L 81.75 173.25 L 81.99 172.75 L 82.24 172.49 L 82.49 172.24 L 82.73 171.76 L 83.27 171.5 L 83.51 171.25 L 83.76 170.75 L 84.25 170.5 L 84.5 170.24 L 84.75 169.99 L 84.99 169.99 L 85.24 169.99 L 85.49 169.99 L 85.73 169.99 L 86.27 169.99 L 86.51 169.99 L 87.01 169.99 L 87.5 169.76 L 87.75 169.51 L 87.99 169.25 L 88.24 169 L 88.49 169 L 88.73 169 L 88.98 168.75 L 89.27 168.5 L 89.52 168.25 L 89.76 167.99 L 90.26 167.74 L 90.5 167.51 L 90.75 167.26 L 90.99 167 L 91.24 167 L 91.49 167 L 91.73 167 L 91.98 167 L 92.27 167 L 92.52 167 L 92.76 167 L 93.26 167 L 93.5 167 L 93.75 167 L 94.24 167 L 94.49 167 L 94.73 167 L 94.98 167 L 95.27 166.75 L 95.76 166.5 L 96.5 166.25 L 97.24 166 L 97.98 166 L 98.76 166 L 99.5 166 L 100.24 166 L 100.98 166 L 101.76 166 L 102.26 166 L 103 166 L 103.74 166 L 104.76 166 L 106 166 L 107.27 166 L 108.5 166 L 109.49 166 L 110.52 166 L 111.75 166 L 112.74 166 L 114.01 166 L 115.24 166 L 116.23 166 L 117.5 166 L 118.49 166 L 119.52 166 L 120.26 166 L 121 166 L 121.74 166 L 122.23 166 L 123.01 166 L 123.5 166 L 124 166 L 124.49 166 L 124.98 166 L 125.52 166 L 126.01 166 L 126.51 166 L 127 166.25 L 127.49 166.5 L 127.74 166.75 L 127.98 167 L 128.23 167.26 L 128.52 167.51 L 129.01 167.74 L 129.51 167.99 L 129.75 167.99 L 130.25 167.99 L 130.49 167.99 L 130.99 167.99 L 131.77 167.99 L 132.51 167.99 L 133.49 167.99 L 134.52 167.99 L 135.51 167.99 L 136.49 167.99 L 137.52 167.99 L 138.51 167.99 L 139.49 167.99 L 140.77 167.99 L 142 167.99 L 142.99 167.99 L 144.01 167.99 L 144.75 167.74 L 145.25 167.51 L 145.99 167.26 L 146.48 167 L 146.77 167 L 147.26 167 L 147.51 166.75 L 148 166.5 L 148.49 166.25 L 148.99 166 L 149.48 166 L 149.77 165.74 L 150.26 165.49 L 150.51 165.26 L 150.75 165.01 L 151 165.01 L 151 164.75 L 151 164.5 L 151 164.25 L 151 163.75 L 151 163.49 L 151 163.24 L 151 163.01 L 151 162.76 L 151 162.5 L 151 162 L 151 161.5 L 151.25 161.24 L 151.49 160.76 L 151.74 160.51 L 151.99 160.25 L 151.99 160 L 151.99 159.75 L 151.99 159.5 L 151.99 159.25 L 151.99 158.99 L 151.99 158.74 L 151.99 158.51 L 151.99 158.26 L 151.99 157.75 L 151.99 157.5 L 151.99 157.25 L 151.99 157 L 151.99 156.74 L 151.99 156.49 L 151.99 156.26 L 151.99 156.01 L 151.74 155.75 L 151.49 155.5 L 151.25 155.25 L 151 155 L 151 154.75 L 151 154.49 L 151 154.24 L 151 154.01 L 151 153.76 L 151 153.5 L 151 153.25 L 151 152.75 L 151 152.5 L 151 152.24 L 151 151.99 L 151 151.76 L 151 151.51 L 151 151.25 L 151.25 151 L 151.49 150.75 L 151.74 150.5 L 151.99 150.25 L 152.23 149.74 L 152.48 149.51 L 152.77 149.26 L 153.26 149 L 153.51 148.75 L 153.75 148.5 L 154 148.25 L 154.25 148 L 154.49 148 L 154.74 148 L 154.99 148 L 154.99 148 L 155.23 148 L 155.48 148 L 155.77 148 L 156.02 148 L 156.02 147.74 L 156.26 147.49 L 156.51 147.26 L 156.75 147.01 L 157 147.01 L 157 147.01 L 157.25 147.01 L 157.49 147.01 L 157.74 146.75 L 157.99 146.5 L 158.23 146.25 L 158.48 146 L 158.77 146 L 159.02 146 L 159.26 145.75 L 159.51 145.49 L 159.76 145.24 L 160 145.01 L 160.25 145.01 L 160.49 145.01 L 160.74 144.76 L 161.23 144.5 L 161.48 144.25 L 161.77 144 L 162.26 144 L 162.51 144 L 162.76 144 L 163 144 L 163 143.75 L 163.25 143.5 L 163.5 143.24 L 163.74 142.99 L 164.24 142.99 L 164.48 142.99 L 164.77 142.99 L 165.26 142.99 L 165.51 142.99 L 166 142.76 L 166.5 142.51 L 166.99 142.25 L 167.48 142 L 168.02 141.75 L 168.51 141.5 L 169 141.25 L 169.5 140.99 L 169.99 140.74 L 170.77 140.51 L 171.26 140 L 171.76 139.5 L 172.25 139.25 L 172.5 139 L 172.74 138.74 L 173.24 138.49 L 173.48 138.26 L 173.77 137.75 L 174.26 137.5 L 174.51 137.25 L 174.76 136.75 L 175.25 136.49 L 175.5 136.24 L 175.74 136.01 L 175.99 135.76 L 176.24 135.5 L 176.48 135.25 L 176.77 135 L 177.26 134.75 L 177.51 134.5 L 177.76 134.24 L 178 133.99 L 178.25 133.99 L 178.5 133.99 L 178.74 133.99 L 178.99 133.99 L 179.24 133.99 L 179.48 133.99 L 179.73 133.99 L 180.26 133.99 L 180.51 133.99 L 180.76 133.99 L 181 133.99 L 181.25 133.99 L 181.5 133.99 L 181.99 133.99 L 182.73 133.99 L 183.26 133.99 L 184 133.99 L 184.5 133.99 L 184.99 133.99 L 185.73 133.99 L 186.51 133.99 L 187.25 133.99 L 187.99 133.99 L 188.73 133.99 L 189.26 133.99 L 190 133.99 L 190.5 133.99 L 190.74 133.99 L 191.24 133.99 L 191.48 133.99 L 192.02 134.24 L 192.51 134.5 L 193.01 134.75 L 193.5 135 L 193.99 135 L 194.48 135 L 195.02 135 L 195.76 135 L 196.5 135 L 197.24 135 L 198.02 135 L 198.76 135 L 199.25 135 L 199.99 135 L 200.73 135 L 201.27 135 L 202.01 135 L 202.5 135 L 202.99 135 L 203.49 135.25 L 203.73 135.5 L 204.27 135.76 L 204.51 136.01 L 204.76 136.01 L 205.25 136.01 L 205.5 136.01 L 205.99 136.24 L 206.49 136.49 L 206.73 136.75 L 207.02 137 L 207.02 137 L 207.27 137.25 L 207.51 137.5 L 207.76 137.75 L 208.01 138.01 L 208.01 138.26 L 208.01 138.49 L 208.25 138.74 L 208.5 139.25 L 208.75 139.5 L 208.99 139.75 L 208.99 140 L 208.99 140 L 208.99 140 L 208.99 140.26 L 209.24 140.51 L 209.49 140.74 L 209.73 140.99 L 210.02 140.99 L 210.27 140.99 L 210.51 140.99 L 210.76 140.99 L 211.01 140.99 L 211.25 140.99 L 211.5 140.99 L 211.75 140.99 L 212.24 140.99 L 212.49 140.99 L 212.98 140.99 L 213.51 140.99 L 214.01 140.99 L 214.75 140.99 L 215.24 140.99 L 215.98 140.99 L 216.51 140.99 L 217.01 140.99 L 217.75 140.99 L 218.49 140.99 L 219.51 140.99 L 220.5 140.99 L 221.49 140.99 L 222.51 140.99 L 223.5 140.99 L 224.73 140.99 L 226.01 140.99 L 226.99 140.99 L 227.98 140.99 L 228.76 140.99 L 229.75 140.99 L 230.98 140.99 L 232.01 140.99 L 233 140.99 L 233.74 140.99 L 234.27 140.99 L 235.01 140.99 L 235.75 140.99 L 236.24 140.99 L 236.98 140.99 L 237.52 140.99 L 238.01 140.99 L 238.5 140.99 L 238.75 140.99 L 239.24 140.99 L 239.49 140.99 L 239.74 140.99 L 240.27 140.99 L 240.52 140.99 L 240.76 140.99 L 241.26 140.99 L 241.5 140.99 L 241.75 141.25 L 242.24 141.5 L 242.49 141.75 L 242.74 142 L 243.27 142 L 243.52 142 L 244.01 142 L 244.5 142 L 245 142 L 245.49 142 L 245.74 142 L 246.23 142 L 246.52 142 L 247.01 142 L 247.5 142 L 247.75 142 L 248 142 L 248.24 142 L 248.49 142.25 L 248.74 142.51 L 248.98 142.76 L 248.98 143.24 L 248.98 143.5 L 248.98 143.75 L 248.98 144 L 249.23 144.25 L 249.52 144.5 L 249.76 144.76 L 250.01 145.24 L 250.01 145.49 L 250.01 145.75 L 250.26 146 L 250.5 146.25 L 250.75 146.5 L 251 146.75 L 251.24 147.01 L 251.49 147.01 L 251.98 147.01 L 252.52 147.01 L 253.01 147.01 L 253.5 147.01 L 254 147.01 L 254.49 147.01 L 254.98 147.01 L 255.52 147.01 L 255.76 147.01 L 256.26 147.01 L 256.5 147.01 L 256.75 147.01 L 257 147.01 L 257.24 147.01 L 257.49 147.01 L 257.98 147.01 L 258.52 147.01 L 259.01 147.01 L 259.5 147.01 L 259.75 147.01 L 260.24 147.01 L 260.49 147.01 L 260.74 147.01 L 261.23 147.01 L 261.52 147.01 L 262.01 147.01 L 262.51 147.01 L 262.75 147.01 L 263.24 147.01 L 263.49 147.01 L 263.74 147.01 L 263.98 147.01 L 264.23 147.01 L 264.52 147.01 L 264.77 146.75 L 265.01 146.5 L 265.01 146.25 L 265.26 146 L 265.51 146 L 265.75 145.75 L 266 145.49 L 266.25 145.24 L 266.49 145.01 L 266.74 145.01 L 267.23 145.01 L 267.52 144.76 L 267.77 144.5 L 268.01 144.25 L 268.26 144 L 268.51 144 L 269 143.75 L 269.49 143.5 L 269.74 143.24 L 270.23 142.99 L 270.52 142.99 L 270.77 142.99 L 271.26 142.76 L 271.51 142.51 L 272 142.25 L 272.49 142 L 272.74 142 L 272.99 141.75 L 273.23 141.5 L 273.52 141.25 L 273.77 140.99 L 274.26 140.99 L 274.51 140.99 L 274.75 140.74 L 275 140.51 L 275 140.26 L 275 140 L 275 140 L 275.25 140 L 275.49 140 L 275.74 140 L 275.99 139.75 L 275.99 139.5 L 275.99 139.25 L 275.99 139 L 275.99 138.74 L 275.99 138.49 L 276.23 138.26 L 276.52 137.75 L 276.77 137.5 L 277.01 137.25 L 277.01 136.75 L 277.01 136.49 L 277.01 136.24 L 277.01 136.01 L 277.01 135.76 L 277.26 135.5 L 277.51 135.25 L 277.75 135 L 278 135 L 278 134.75 L 278 134.5 L 278.25 134.24 L 278.49 133.76 L 278.74 133.51 L 278.99 133.25 L 279.23 132.75 L 279.52 132.5 L 279.77 132.25 L 280.01 131.99 L 280.01 131.74 L 280.01 131.51 L 280.26 131 L 280.51 130.5 L 280.75 130.25 L 281 129.74 L 281.25 129.49 L 281.49 129.26 L 281.74 128.75 L 281.99 128.5 L 282.23 128.25 L 282.48 128 L 282.77 127.75 L 283.01 127.49 L 283.26 127.24 L 283.51 126.76 L 283.75 126.5 L 284.25 126.25 L 284.49 126 L 284.74 125.75 L 284.99 125.5 L 285.23 125.24 L 285.48 124.99 L 285.77 124.76 L 286.26 124.51 L 286.51 124.25 L 286.75 123.75 L 287.25 123.5 L 287.49 123.25 L 287.99 122.99 L 288.48 122.99 L 289.01 122.74 L 289.51 122.51 L 289.75 122.26 L 290 122 L 290.25 122 L 290.49 122 L 290.74 122 L 291.23 122 L 291.77 121.75 L 292.26 121.5 L 293 121.25 L 293.49 121 L 293.74 121 L 294.23 121 L 294.48 121 L 295.02 121 L 295.76 120.74 L 296.25 120.49 L 296.99 120.26 L 297.77 120.01 L 298.26 120.01 L 299 120.01 L 299.5 120.01 L 299.99 120.01 L 300.48 120.01 L 301.02 120.01 L 301.51 120.01 L 302 119.75 L 302.5 119.5 L 302.99 119.25 L 303.48 119 L 304.02 119 L 304.51 119 L 305 119 L 305.5 119 L 305.74 119 L 305.99 119 L 306.24 119 L 306.48 119 L 306.77 119 L 307.26 119 L 307.51 119 L 307.76 119 L 308 119 L 308.25 119 L 308.5 119 L 308.74 119 L 309.24 119 L 309.48 119 L 309.77 119 L 310.02 119 L 310.26 119 L 310.51 119 L 310.76 119 L 311 119 L 311 119 L 311.25 119 L 311.5 119 L 311.74 119 L 312.24 119 L 312.48 119 L 312.77 119 L 313.02 119 L 313.26 119 L 313.51 119 L 313.76 119 L 314.25 119 L 314.5 119 L 314.99 119 L 315.73 119 L 316.51 118.75 L 317.25 118.49 L 317.99 118.24 L 318.73 118.01 L 319.51 117.76 L 320.5 117.5 L 321.48 117.25 L 322.51 116.75 L 323.5 116.5 L 324.48 116.24 L 325.51 115.76 L 326.5 115.51 L 327.48 115.25 L 328.51 114.75 L 329.25 114.5 L 329.99 114.25 L 330.48 113.99 L 331.02 113.74 L 331.51 113.51 L 332.01 113.26 L 332.74 113 L 333.24 112.75 L 334.02 112.5 L 334.76 112.25 L 335.5 111.74 L 336.49 111.49 L 337.27 111.26 L 338.01 111.01 L 338.75 110.75 L 339.24 110.5 L 340.02 110.25 L 340.76 110 L 341.25 110 L 341.99 110 L 342.73 110 L 343.27 110 L 344.01 109.75 L 344.75 109.49 L 345.24 109.24 L 346.02 109.01 L 346.51 109.01 L 347.01 109.01 L 347.5 109.01 L 347.99 108.76 L 348.49 108.5 L 348.98 108.25 L 349.51 108 L 350.01 108 L 350.5 107.75 L 350.99 107.5 L 351.49 107.24 L 351.98 106.99 L 352.51 106.99 L 353.01 106.76 L 353.5 106.51 L 353.99 106.25 L 354.49 105.75 L 354.98 105.5 L 355.76 105.25 L 356.25 104.74 L 356.99 104.51 L 357.73 104 L 358.27 103.25 L 359.01 102.74 L 359.5 102.26 L 359.99 101.75 L 360.49 101.25 L 360.98 100.75 L 361.76 100.01 L 362.25 99.5 L 362.99 99 L 363.49 98.5 L 363.73 97.99 L 364.27 97.51 L 364.52 97.25 L 365.01 96.75 L 365.5 96.5 L 365.99 95.99 L 366.49 95.51 L 366.73 95.26 L 366.98 94.75 L 367.27 94.5 L 367.52 94 L 367.76 93.49 L 368.26 93.26 L 368.5 93.01 L 368.75 92.75 L 369 92.5 L 369 92 L 369 91.49 L 369 91.01 L 369 90.25 L 369.24 89.75 L 369.49 88.99 L 369.74 88.51 L 369.98 88 L 369.98 87.5 L 369.98 86.99 L 369.98 86.26 L 369.98 85.75 L 369.98 85 L 369.98 84.49 L 370.27 84.01 L 370.52 83.25 L 370.76 82.75 L 371.01 82.01 L 371.01 81.5 L 371.26 81 L 371.5 80.24 L 371.75 79.76 L 372 79 L 372.24 78.5 L 372.49 77.99 L 372.98 77.51 L 373.52 77 L 374.01 76.5 L 374.5 76 L 374.75 75.49 L 375.24 75.26 L 375.49 75.01 L 375.98 74.75 L 376.52 74.5 L 377.01 74.25 L 377.5 73.75 L 378 73.49 L 378.74 73.24 L 379.52 73.01 L 380.5 72.76 L 381.49 72.5 L 382.52 72 L 383.5 71.24 L 384.74 70.76 L 386.01 70 L 387.24 69.5 L 388.52 69.25 L 389.5 68.99 L 390.49 68.74 L 391.76 68.51 L 393 68.26 L 394.23 67.75 L 395.26 67.5 L 396 67.25 L 396.74 67 L 397.52 67 L 398.51 67 L 399.49 67 L 400.52 67 L 401.51 67 L 402.25 66.74 L 402.98 66.49 L 403.52 66.26 L 404.01 66.01 L 404.51 66.01 L 405 66.01 L 405.49 66.01 L 405.99 66.01 L 406.52 66.01 L 407.01 66.01 L 407.51 66.01 L 408 66.01 L 408.49 66.01 L 408.99 66.01 L 409.52 66.01 L 410.01 66.01 L 410.51 66.01 L 410.75 66.01 L 411.25 66.01 L 411.49 66.01 L 411.74 66.01 L 412.23 66.01 L 412.52 66.01 L 413.01 65.75 L 413.51 65.5 L 413.75 65.25 L 414.25 65 L 414.49 65 L 414.74 64.75 L 414.99 64.49 L 415.23 64.24 L 415.52 64.01 L 415.77 64.01 L 416.01 64.01 L 416.26 64.01 L 416.51 63.76 L 416.75 63.5 L 417 63.25 L 417 63 L 417 63 L 417 63 L 417 63 L 417 63 L 417 63 L 416.75 63 L 416.51 63 L 416.26 63 L 415.77 63 L 415.52 63 L 415.23 63 L 414.99 63 L 414.74 63 L 414.49 63 L 414.25 62.75 L 414 62.5 L 414 62.24 L 414 61.76 L 414 61.51 L 414 61.25 L 414 60.75 L 414 60.5 L 414 60.25 L 414 59.99 L 414 59.74 L 414 59.51 L 414 59.26 L 414 59 L 414 59 L 414 59 L 414 59 L 414.25 59 L 414.49 59 L 414.74 58.75 L 414.99 58.5 L 414.99 58.25 L 415.23 58 L 415.52 58 L 415.77 57.74 L 416.01 57.49 L 416.26 57.26 L 416.51 56.75 L 416.75 56.5 L 417 56.25 L 417 55.75 L 417 55.49 L 417 55.24 L 417 55.01 L 417 54.76 L 417 54.5 L 417 54.25 L 417 54 L 417 54 L 417 53.75 L 417 53.5 L 417 53.24 L 417 52.99 L 416.75 52.99 L 416.51 52.99 L 416.26 52.99 L 416.01 52.76 L 416.01 52.51 L 416.01 52.25 L 416.01 52 L 416.01 52 L 416.01 51.75 L 416.01 51.5 L 416.01 51.25 L 416.01 50.99 L 415.77 50.99 L 415.52 50.74 L 415.23 50.51 L 414.99 50.26 L 414.99 50 L 414.99 50 L 414.99 49.75 L 414.99 49.5 L 414.99 49.25 L 414.99 49 L 414.99 49 L 414.74 48.74 L 414.49 48.49 L 414.25 48.26 L 414 48.01 L 413.75 48.01 L 413.51 48.01 L 413.26 47.75 L 412.77 47.5 L 412.52 47.25 L 412.23 47 L 411.99 47 L 411.74 46.75 L 411.49 46.49 L 411.25 46.01 L 411 45.5 L 410.75 45 L 410.51 44.5 L 410.26 43.99 L 410.01 43.51 L 410.01 43 L 410.01 42.5 L 410.01 41.99 L 410.01 41.26 L 410.01 40.75 L 410.01 40 L 410.01 39.49 L 410.01 39.01 L 410.01 38.25 L 410.01 37.49 L 410.01 36.76 L 410.01 36 L 410.01 35.5 L 410.26 34.99 L 410.51 34.51 L 410.75 34.25 L 411 33.75 L 411 33.5 L 411.25 33.25 L 411.49 32.74 L 411.74 32.51 L 411.99 32.26 L 411.99 31.75 L 411.99 31.5 L 411.99 31.25 L 411.99 30.74 L 411.99 30.49 L 411.99 30.26 L 411.99 29.75 L 411.99 29.5 L 411.99 29.25 L 411.99 28.75 L 411.99 28.49 L 411.99 28.24 L 411.99 28.01 L 411.99 27.76 L 411.99 27.5 L 411.99 27 L 411.99 26.5 L 411.99 26.24 L 411.99 25.99 L 411.99 25.76 L 411.99 25.51 L 411.99 25.25 L 411.99 25 L 411.99 24.75 L 411.99 24.5 L 411.99 24.25 L 411.99 23.99 L 411.99 23.74 L 411.99 23.51 L 411.99 23.26 L 411.99 23 L 411.74 22.75 L 411.49 22.5 L 411.25 22.25 L 411 22 L 411 21.74 L 411 21.49 L 410.75 21.26 L 410.51 21.01 L 410.26 20.75 L 410.01 20.5 L 410.01 20.25 L 410.01 20 L 409.77 19.75 L 409.52 19.49 L 409.23 19.24 L 408.99 19.01 L 408.99 19.01 L 408.99 18.76 L 408.74 18.5 L 408.49 18.25 L 408.25 18 L 408 18 L 407.75 17.75 L 407.51 17.5 L 407.26 17.24 L 407.01 16.99 L 407.01 16.76 L 406.77 16.51 L 406.52 16.25 L 406.23 15.75 L 405.99 15.5 L 405.99 15.25 L 405.99 14.99 L 405.74 14.99 L 405.49 14.74 L 405.25 14.51 L 405 14.26 L 405 14 L 404.75 13.75 L 404.51 13.5 L 404.26 13.25 L 404.01 13 L 404.01 13 L 403.77 13 L 403.52 12.74 L 403.23 12.49 L 402.98 12.26 L 402.74 12.01 L 402.49 12.01 L 402.25 12.01 L 401.75 12.01 L 401.51 12.01 L 401.26 11.75 L 401.01 11.5 L 400.77 11.25 L 400.52 11 L 399.98 11 L 399.49 11 L 399 11 L 398.51 10.75 L 398.01 10.49 L 397.23 10.24 L 396.74 10.01 L 396 10.01 L 395.5 10.01 L 395.01 10.01 L 394.52 9.76 L 393.98 9.5 L 393.49 9.25 L 393 9 L 392.26 9 L 391.76 9 L 390.98 8.75 L 390.49 8.5 L 390 8.24 L 389.5 7.99 L 389.01 7.99 L 388.52 7.99 L 387.98 7.76 L 387.49 7.51 L 387 7.25 L 386.26 7 L 385.76 7 L 384.98 7 L 384.24 7 L 383.5 7 L 382.76 7 L 381.98 7 L 381.49 7 L 381 7 L 380.5 7 L 380.01 7 L 379.52 7 L 378.98 7 L 378.49 7 L 378.24 7 L 377.75 7 L 377.5 7 L 377.26 7 L 376.76 7 L 376.52 7 L 376.27 6.75 L 375.74 6.5 L 375.49 6.25 L 375.24 5.99 L 375 5.99 L 374.75 5.74 L 374.5 5.51 L 374.26 5.26 L 374.01 5 L 373.76 5 L 373.52 4.75 L 373.27 4.5 L 372.98 4.25 L 372.98 4 L 372.74 4 L 372.49 3.74 L 372.24 3.49 L 372 3.26 L 371.75 3.01 L 371.5 3.01 L 371.26 2.75 L 370.76 2.5 L 370.52 2.25 L 369.98 2 L 369.49 2 L 369.24 2 L 368.75 2 L 368.5 2 L 368.01 2 L 367.52 1.75 L 367.27 1.49 L 366.73 1.24 L 366.49 1.01 L 365.99 1.01 L 365.5 1.01 L 365.26 1.01 L 364.76 1.01 L 364.52 1.01 L 363.98 0.76 L 363.49 0.5 L 362.99 0.25 L 362.5 0 L 362.01 0 L 361.27 0 L 360.49 0 L 359.75 0 L 359.01 0 L 358.27 0 L 357.49 0 L 356.75 0 L 356.01 0 L 355.27 0 L 354.73 0 L 353.99 0 L 353.5 0 L 353.25 0 L 352.76 0 L 352.27 0 L 351.73 0 L 351.24 0 L 350.75 0.25 L 350.5 0.5 L 350.01 0.76 L 349.51 1.01 L 349.27 1.01 L 348.73 1.01 L 348.49 1.01 L 347.99 1.01 L 347.5 1.24 L 347.01 1.49 L 346.51 1.75 L 346.02 2 L 345.24 2 L 344.75 2 L 344.01 2 L 343.27 2 L 342.73 2 L 341.99 2 L 341.25 2.25 L 340.76 2.5 L 340.02 2.75 L 339.49 3.01 L 338.99 3.01 L 338.25 3.01 L 337.51 3.26 L 336.73 3.49 L 335.99 3.74 L 335.5 4 L 335.01 4.25 L 334.51 4.5 L 334.02 4.75 L 333.48 5 L 332.99 5.26 L 332.25 5.51 L 331.76 5.74 L 331.27 5.99 L 330.73 5.99 L 330.48 5.99 L 329.99 6.25 L 329.5 6.5 L 329.25 6.75 L 328.76 7 L 328.51 7 L 328.27 7.25 L 327.73 7.51 L 327.48 7.76 L 327.24 7.99 L 326.99 8.24 L 326.99 8.5 L 326.99 8.75 L 326.74 9 L 326.5 9.25 L 326.25 9.5 L 326 9.76 L 326 10.01 L 326 10.24 L 325.76 10.49 L 325.51 10.75 L 325.26 11.25 L 325.02 11.5 L 324.73 11.75 L 324.48 12.26 L 324.24 12.49 L 323.74 12.74 L 323.5 13.25 L 323 13.5 L 322.51 13.75 L 322.02 14.26 L 321.48 14.51 L 320.99 14.74 L 320.5 14.99 L 320 15.25 L 319.51 15.5 L 319.02 15.75 L 318.48 16 L 317.99 16.25 L 317.25 16.51 L 316.76 16.76 L 316.02 16.99 L 315.24 16.99 L 314.5 17.24 L 313.51 17.5 L 312.48 17.75 L 311.25 18 L 309.77 18 L 308.25 18 L 306.77 18 L 305.5 18 L 304.51 18 L 303.48 18 L 302.25 18 L 301.02 18 L 299.74 18 L 298.51 18 L 297.48 18 L 296.49 18 L 295.51 18 L 294.48 18 L 293.49 18 L 292.51 18 L 291.23 18 L 290 18 L 288.48 18 L 287 18 L 285.77 18 L 284.25 18 L 282.77 18 L 281.25 18 L 279.52 18 L 278 18 L 276.77 18 L 275.25 18 L 274.01 18 L 272.74 18 L 271.26 18 L 269.99 18 L 268.51 18 L 266.99 18 L 265.75 18 L 264.52 18 L 263.49 18 L 262.51 18 L 261.52 18 L 260.49 18 L 259.5 18 L 258.52 18 L 257.24 18 L 256.01 18 L 254.74 18 L 253.5 18 L 252.52 18 L 251.49 17.75 L 250.75 17.5 L 250.01 17.24 L 249.23 16.99 L 248.49 16.99 L 247.75 16.99 L 247.01 16.99 L 246.23 16.99 L 245.74 16.99 L 245.24 16.99 L 244.75 16.99 L 244.5 16.99 L 244.26 16.99 L 243.76 16.99 L 243.52 16.99 L 243.27 16.99 L 242.74 16.99 L 242.49 16.99 L 242.24 16.99 L 242 17.24 L 242 17.5 L 241.75 18 L 241.5 18.5 L 241.26 19.01 L 241.01 19.49 L 241.01 20 L 240.76 20.5 L 240.52 21.01 L 240.27 21.49 L 239.98 22 L 239.74 22.75 L 239.49 23.26 L 239.24 23.74 L 239 24.25 L 238.75 24.5 L 238.5 24.75 L 238.01 25.25 L 237.52 25.51 L 236.98 25.76 L 236.49 26.24 L 236.24 26.5 L 235.75 26.75 L 235.5 27.25 L 235.01 27.5 L 234.52 27.76 L 233.98 28.01 L 233.24 28.01 L 232.75 28.24 L 232.26 28.49 L 231.76 28.75 L 231.27 29 L 230.73 29 L 229.99 29 L 229.26 29 L 228.52 29.25 L 227.73 29.5 L 226.99 29.75 L 226.25 30.01 L 225.76 30.01 L 224.98 30.01 L 224.24 30.01 L 223.5 30.01 L 222.51 30.01 L 221.49 30.26 L 220.5 30.49 L 219.51 30.74 L 218.49 31 L 217.5 31 L 216.51 31 L 215.49 31 L 214.5 31 L 213.76 31 L 212.98 31 L 212.24 31 L 211.5 31 L 210.76 31 L 210.02 31 L 209.24 31 L 208.5 31 L 207.51 31 L 206.73 31 L 205.99 31 L 205.25 31 L 204.76 31 L 204.02 31 L 203.24 31 L 202.5 31 L 201.51 31 L 200.73 31 L 199.99 31 L 199.25 31 L 198.76 31 L 198.02 31 L 197.24 31 L 196.75 31 L 196.01 31 L 195.51 31 L 195.02 31 L 194.24 31 L 193.5 31 L 192.51 31 L 191.73 31 L 190.99 31 L 190.5 31 L 190 31 L 189.26 31 L 188.73 31 L 187.99 31 L 187.5 31 L 187 31 L 186.51 31 L 186.02 31 L 185.48 31 L 185.24 30.74 L 184.74 30.49 L 184.5 30.26 L 184.25 30.01 L 184 30.01 L 183.76 30.01 L 183.51 29.75 L 183.02 29.5 L 182.48 29.25 L 182.24 29 L 181.74 29 L 181.25 29 L 180.76 29 L 180.26 28.75 L 179.73 28.49 L 179.24 28.24 L 178.74 28.01 L 178 28.01 L 177.26 27.76 L 176.48 27.5 L 175.5 27.25 L 174.51 27 L 173.48 27 L 172.5 27 L 171.02 27 L 169.5 27 L 168.02 27 L 166.25 27 L 164.77 27 L 163.25 27 L 161.48 27 L 160 27 L 158.77 27 L 157.25 27 L 156.02 27 L 154.99 27 L 154 27 L 153.51 27 L 153.01 27.25 L 152.23 27.5 L 151.74 27.76 L 151 28.24 L 150.51 28.49 L 150.01 28.75 L 149.23 29.25 L 148.49 29.5 L 147.75 30.01 L 147.01 30.49 L 146.48 30.74 L 145.99 31 L 145.49 31 L 145 31.25 L 144.26 31.5 L 143.77 31.75 L 142.99 32 L 142.25 32 L 141.75 32 L 141.01 32 L 140.23 32 L 139.74 32 L 139.25 32 L 138.75 32 L 138.51 32 L 138.01 32 L 137.52 32 L 136.99 32 L 136.49 32 L 136 32 L 135.51 32 L 135.01 32 L 134.52 32 L 134.23 32 L 133.74 32 L 133.49 32 L 133 32 L 132.51 32 L 132.01 32 L 131.23 32 L 130.49 32 L 129.75 32 L 129.01 32 L 128.52 32 L 127.98 32 L 127.49 32 L 127 32 L 126.51 32 L 126.01 32 L 125.52 32 L 124.98 32 L 124.49 32 L 124.24 32 L 124 31.75 L 123.75 31.5 L 123.5 31.25 L 123.26 31 L 123.01 31 L 122.77 31 L 122.52 31 L 122.23 31 L 121.98 30.74 L 121.98 30.49 L 121.98 30.26 L 121.74 30.01 L 121.49 30.01 L 121.24 30.01 L 121 30.01 L 120.75 30.01 L 120.5 30.01 L 120.26 30.01 L 119.76 30.01 L 119.52 30.01 L 118.98 30.01 L 118.49 30.01 L 118.24 30.01 L 118 30.01 L 117.75 30.01 L 117.5 30.26 L 117.01 30.49 L 116.52 30.74 L 116.23 31 L 115.74 31 L 115.49 31 L 115 31 L 114.5 31 L 114.26 31 L 114.01 31 L 114.01 31 L 113.76 31 L 113.52 31 L 113.23 31 L 112.74 31.25 L 112.49 31.5 L 112.24 31.75 L 111.75 32 L 111.5 32 L 111.26 32 L 110.76 32 L 110.52 32 L 110.23 32 L 109.74 32 L 109.49 32 L 109.24 32 L 109 32 L 108.75 32 L 108.5 32.26 L 108.26 32.51 L 107.76 32.74 L 107.52 32.99 L 107.27 32.99 L 106.74 32.99 L 106.49 32.99 L 106.24 32.99 L 105.75 32.99 L 105.5 32.99 L 105.26 32.99 L 105.01 32.99 L 104.76 32.99 L 104.52 32.99 L 104.27 32.99 L 103.74 32.99 L 103.49 32.99 L 103.24 32.99 L 103 32.99 L 102.75 32.99 L 102.5 32.99 L 102.26 32.99 L 101.76 32.99 L 101.52 32.99 L 101.27 32.99 L 100.98 32.99 L 100.74 32.99 L 100.49 32.99 L 100.24 32.99 L 100 32.99 L 99.75 32.99 L 99.5 32.99 L 99.26 32.99 L 98.76 32.99 L 98.52 32.99 L 98.27 32.99 L 97.98 32.99 L 97.74 32.99 L 97.49 32.99 L 97.24 32.74 L 97 32.51 L 97 32.26 L 96.75 32 L 96.5 32 L 96.26 32 L 96.01 31.75 L 96.01 31.5 L 96.01 31.25 L 95.76 30.74 L 95.52 30.49 L 95.27 30.01 L 94.98 29.5 L 94.73 29 L 94.49 28.49 L 94.24 28.24 L 94 28.01 L 94 28.01 L 93.75 28.01 L 93.5 27.76 L 93.26 27.5 L 93.01 27.25 L 92.76 27 L 92.52 27 L 92.27 27 L 91.98 27 L 91.73 27 L 91.49 27 L 90.99 27.25 L 90.5 27.5 L 90.26 27.76 L 89.76 28.01 L 89.52 28.01 L 88.98 28.24 L 88.49 28.49 L 87.99 28.75 L 87.5 29 L 87.25 29 L 86.76 29 L 86.27 29 L 85.73 29.25 L 84.99 29.5 L 84.5 29.75 L 84.01 30.01 L 83.51 30.01 L 82.98 30.01 L 82.24 30.01 L 81.75 30.01 L 81.01 30.01 L 80.51 30.01 L 79.98 30.01 L 79.49 30.01 L 78.99 30.01 L 78.5 30.01 L 78.01 30.01 L 77.27 30.01 L 76.73 30.01 L 75.99 30.01 L 75.5 30.01 L 75.01 30.01 L 74.51 30.01 L 74.02 30.01 L 73.49 30.01 L 72.99 30.01 L 72.25 30.01 L 71.76 30.01 L 71.02 30.01 L 70.49 30.01 L 70.24 30.01 L 69.75 30.01 L 69.5 30.01 L 69.25 30.01 L 69.01 30.01 L 68.76 30.01 L 68.51 30.01 L 68.27 30.01 L 68.02 30.01 L 67.73 30.26 L 67.49 30.49 L 67.24 30.74 L 66.75 31 L 66.5 31 L 66.25 31 L 65.76 31 L 65.51 31 L 65.27 31 L 65.02 31 L 64.73 31 L 64.49 31 L 64.24 31 L 63.75 31 L 63.5 31 L 63.25 31 L 63.01 31 L 62.76 31 L 62.51 31 L 62.27 31 L 62.02 31 L 61.73 31 L 61.48 31 L 61.24 31 L 60.75 31 L 60.5 31 L 60.25 31 L 60.01 31 L 59.76 31 L 59.51 31 L 59.02 31 L 58.48 31 L 57.99 31 L 57.5 31 L 57.01 31 L 56.51 31 L 56.02 31 L 55.48 31 L 54.99 31 L 54.25 31 L 53.76 31 L 53.27 31 L 52.73 31 L 52.48 31.25 L 51.99 31.5 L 51.5 31.75 L 51 32 L 50.51 32 L 50.02 32 L 49.48 32 L 49.24 32 L 48.74 32 L 48.5 32 L 48 32 L 47.51 32 L 47.26 32 L 47.02 32 L 46.73 32 L 46.48 32 L 45.99 32 L 45.5 32 L 45.25 32 L 45 32 L 44.76 32.26 L 44.51 32.51 L 44.02 32.74 L 43.48 32.99 L 43.24 32.99 L 42.74 32.99 L 42.5 32.99 L 42 32.99 L 41.51 33.25 L 41.26 33.5 L 40.73 33.75 L 40.24 34 L 39.74 34 L 39 34 L 38.51 34 L 38.02 34 L 37.48 34 L 36.99 34 L 36.5 34 L 36.25 34 L 35.76 34 L 35.51 34 L 35.26 34 L 35.02 34 L 34.77 34 L 34.48 34 L 34.24 34 L 33.99 34 L 33.74 34 L 33.5 34 L 33.25 34 L 32.76 34 L 32.51 34 L 32.26 34 L 31.77 34 L 31.48 34 L 31.24 34 L 30.99 34 L 30.74 34 L 30.5 34 L 30.25 34 L 30 34 L 29.76 34 L 29.26 34 L 28.77 34 L 28.24 34 L 27.99 34 L 27.74 34.25 L 27.5 34.51 L 27.25 34.76 L 26.76 34.99 L 26.51 34.99 L 26.26 34.99 L 26.02 35.24 L 25.77 35.5 L 25.48 35.75 L 25.23 36 L 24.99 36 L 24.99 36.25 L 24.74 36.5 L 24.49 36.76 L 24.25 37.24 L 24 37.49 L 24 37.75 L 23.76 38 L 23.51 38.25 L 23.26 38.5 L 23.02 38.75 L 23.02 39.01 L 22.77 39.01 L 22.48 39.26 L 22.23 39.49 L 21.99 39.74 L 21.99 40 L 21.99 40 L 21.99 40 L 21.74 40 L 21.49 40 L 21.25 40.25 L 21 40.5 L 21 40.75 L 20.75 41 L 20.51 41 L 20.26 41 L 20.02 41 L 20.02 41 L 20.02 41.26 L 20.02 41.51 L 19.77 41.74 L 19.48 41.99 L 19.23 41.99 L 18.99 41.99 L 18.99 41.99 L 18.74 41.99 L 18.49 42.25 L 18.25 42.5 L 18 42.75 L 17.75 43 L 17.51 43.25 L 17.26 43.51 L 17.01 43.76 L 16.77 43.99 L 16.48 43.99 L 16.23 43.99 L 15.99 44.24 L 15.99 44.5 L 15.99 44.75 L 15.74 45 L 15.49 45 L 15.25 45 L 15 45 L 15 45 L 14.01 47" fill="none" stroke="#000000" style="stroke: light-dark(rgb(0, 0, 0), rgb(255, 255, 255));" stroke-miterlimit="10" pointer-events="all"/></g></g></g></g></g></svg>