<?xml version="1.0" encoding="UTF-8"?>
<!DOCTYPE svg PUBLIC "-//W3C//DTD SVG 1.1//EN" "http://www.w3.org/Graphics/SVG/1.1/DTD/svg11.dtd">
<svg xmlns="http://www.w3.org/2000/svg" style="background: transparent; background-color: transparent; color-scheme: light dark;" xmlns:xlink="http://www.w3.org/1999/xlink" version="1.1" width="956px" height="781px" viewBox="0 0 956 781"><defs/><g><g data-cell-id="0"><g data-cell-id="1"><g data-cell-id="MGBo-X1-PdZwesNiMKVY-1"><g transform="translate(0.5,0.5)"><path d="M 30.43 0.29 L 30.43 0.29 L 30.07 0.29 L 29.36 0.29 L 28.28 0.29 L 26.85 0.29 L 25.07 0.29 L 23.28 0.64 L 21.14 1 L 19 1.72 L 16.85 2.78 L 14.72 3.86 L 12.58 5.28 L 10.43 6.72 L 8.65 8.14 L 6.86 9.57 L 5.79 10.99 L 4.72 12.79 L 3.65 14.93 L 2.93 17.42 L 2.22 20.64 L 1.5 23.85 L 1.14 27.07 L 0.79 30.28 L 0.43 32.78 L 0.43 34.93 L 0.43 36.72 L 0.43 38.5 L 0.79 40.29 L 1.5 42.79 L 2.93 45.64 L 5.07 48.86 L 7.22 53.14 L 9.36 57.07 L 11.15 61.36 L 12.58 65.28 L 14 68.85 L 15.08 72.43 L 16.15 75.64 L 16.85 78.86 L 17.21 81.71 L 17.57 84.57 L 17.57 87.07 L 17.57 89.57 L 17.57 92.08 L 17.57 94.93 L 17.57 98.15 L 17.57 101.36 L 17.57 104.57 L 17.57 107.78 L 17.57 111 L 17.57 114.21 L 17.57 117.43 L 17.57 120.28 L 17.57 122.78 L 17.57 124.93 L 17.57 126.71 L 17.57 127.79 L 17.57 128.85 L 17.92 129.57 L 18.64 129.93 L 20.07 130.65 L 22.21 131 L 25.07 131.71 L 28.64 132.43 L 32.93 132.78 L 37.57 133.14 L 42.22 133.14 L 46.86 132.78 L 51.15 132.07 L 55.43 131 L 59.72 129.21 L 64 127.07 L 68.28 124.57 L 72.57 122.08 L 76.5 119.56 L 80.43 116.71 L 84 113.51 L 87.57 109.57 L 91.14 105.28 L 94.36 101.36 L 97.22 97.43 L 99.36 93.86 L 101.15 90.28 L 102.22 86.71 L 102.93 83.15 L 103.29 79.57 L 103.29 76.36 L 103.29 72.79 L 103.29 68.85 L 102.93 64.22 L 102.22 59.21 L 100.79 53.5 L 99 47.78 L 97.22 42.43 L 95.43 37.07 L 93.65 32.42 L 91.86 28.5 L 90.07 24.57 L 87.93 21 L 86.14 18.14 L 84 15.29 L 81.86 13.15 L 79.71 11.35 L 77.21 9.57 L 74.71 8.14 L 71.85 6.72 L 69 5.64 L 66.14 4.92 L 63.28 4.22 L 60.08 3.86 L 56.86 3.5 L 54 3.14 L 51.15 3.14 L 49 3.14 L 46.86 3.14 L 44.72 3.5 L 43.29 3.86 L 41.86 4.22 L 41.14 4.58 L 40.79 4.58 L 40.07 4.58 L 39.71 4.58 L 39 4.58 L 38.29 4.58 L 37.93 4.58 L 37.57 4.58 L 37.21 4.58 L 36.86 4.58 L 36.14 4.58 L 35.43 4.58 L 34.71 4.22 L 34 3.86 L 33.64 3.5 L 32.93 3.14 L 32.21 3.14 L 31.5 3.14 L 30.78 3.14 L 30.07 3.14 L 29.71 3.14 L 29.36 2.78 L 28.64 2.42 L 28.28 2.07 L 27.57 1.72 L 26.85 1.72 L 26.14 1.72 L 25.43 1.72 L 25.07 1.72 L 24.35 1.72 L 24 1.72 L 23.64 1.72 L 23.28 1.72" fill="none" stroke="#000000" stroke-miterlimit="10" pointer-events="all" style="stroke: light-dark(rgb(0, 0, 0), rgb(255, 255, 255));"/></g></g><g data-cell-id="MGBo-X1-PdZwesNiMKVY-3"><g transform="translate(0.5,0.5)"><path d="M 607.59 3.14 L 607.59 2.67 L 607.59 2.43 L 606.86 2.06 L 605.08 1.73 L 601.84 1.73 L 596.88 1.73 L 590.45 1.73 L 582.56 1.73 L 573.26 1.73 L 562.55 1.73 L 551.16 1.73 L 539.35 2.06 L 527.59 2.81 L 516.83 3.84 L 507.22 5.66 L 498.65 7.81 L 491.12 10.28 L 484.33 13.13 L 477.91 15.98 L 472.21 18.88 L 466.88 21.73 L 461.86 24.58 L 457.21 27.43 L 452.56 30.65 L 448.28 34.2 L 444.36 38.12 L 440.44 42.42 L 436.84 46.72 L 433.65 50.64 L 430.41 54.57 L 427.95 58.49 L 425.76 62.42 L 423.98 67.09 L 422.57 71.71 L 421.16 76.34 L 420.06 80.63 L 419.02 84.56 L 417.92 88.48 L 417.19 92.41 L 416.15 96.7 L 415.41 100.63 L 414.73 104.23 L 414 107.78 L 413.64 111.37 L 412.91 115.3 L 412.59 119.59 L 412.23 123.85 L 411.86 128.14 L 411.86 132.44 L 411.86 136.69 L 411.86 141.36 L 411.86 145.99 L 411.86 150.29 L 411.5 154.21 L 411.13 158.13 L 410.45 162.8 L 408.99 168.13 L 407.58 174.2 L 405.07 180.65 L 401.88 187.42 L 398.28 194.57 L 393.99 202.09 L 389.71 209.57 L 386.15 216.34 L 383.65 222.09 L 381.5 226.71 L 379.73 231.33 L 376.85 237.08 L 372.93 244.55 L 367.55 255.63 L 360.76 270.29 L 354.02 285.99 L 347.59 302.81 L 342.58 318.5 L 339.34 331.35 L 337.2 343.5 L 335.79 355.27 L 334.74 366.34 L 334.01 377.41 L 333.64 387.78 L 334.01 396.7 L 335.42 404.92 L 338.29 412.07 L 342.58 418.14 L 347.23 423.52 L 352.92 427.77 L 358.62 430.99 L 364.37 433.51 L 370.43 434.92 L 376.49 435.66 L 382.91 435.66 L 389.71 434.59 L 396.87 432.77 L 404.34 430.29 L 412.23 427.07 L 420.06 423.84 L 427.95 420.99 L 435.79 418.14 L 443.63 416.37 L 451.83 414.92 L 460.45 413.85 L 469.34 413.52 L 478.27 413.52 L 487.57 413.85 L 497.55 414.59 L 507.58 416 L 517.93 417.77 L 528.64 419.92 L 538.99 422.07 L 549.38 423.84 L 560.09 425.29 L 570.44 426.69 L 581.15 427.77 L 592.23 428.84 L 603.31 429.92 L 615.06 430.66 L 626.87 431.69 L 638.26 433.14 L 649.34 434.92 L 659.37 437.77 L 667.94 440.99 L 675.1 443.84 L 680.43 446.36 L 683.98 448.14 L 686.12 449.21 L 687.58 449.91 L 689.36 450.66 L 692.55 451.73 L 698.66 453.51 L 706.86 455.98 L 716.84 458.88 L 727.56 461.36 L 737.59 463.5 L 746.84 465.28 L 755.09 466.35 L 761.83 467.05 L 767.58 467.43 L 772.23 467.43 L 775.78 467.05 L 779.34 465.98 L 782.57 464.58 L 785.76 462.43 L 789.37 459.91 L 792.92 457.06 L 797.2 453.51 L 802.22 449.21 L 807.92 444.21 L 814.34 438.51 L 821.14 431.69 L 827.93 424.59 L 834.35 416.7 L 840.05 408.85 L 844.7 401.37 L 848.62 393.85 L 851.49 386.38 L 853.63 378.86 L 855.05 371.34 L 855.78 363.86 L 856.14 357.09 L 856.14 351.02 L 856.14 345.27 L 856.14 340.27 L 855.78 335.65 L 855.05 331.02 L 854 325.98 L 852.59 320.28 L 850.76 313.51 L 848.98 305.66 L 846.84 296.73 L 844.7 286.69 L 842.56 275.62 L 840.05 263.85 L 837.59 251.7 L 834.72 239.56 L 831.85 227.41 L 829.34 215.64 L 827.2 206.02 L 825.05 197.42 L 821.5 188.12 L 812.2 170.98 L 800.08 149.58 L 785.45 124.92 L 770.09 101 L 758.28 84.93 L 747.93 73.16 L 739 65.27 L 731.16 59.94 L 724.37 56.34 L 718.31 53.49 L 712.93 51.02 L 707.91 48.87 L 703.31 47.09 L 698.66 45.27 L 694.01 43.5 L 689.36 41.72 L 684.71 39.95 L 680.43 38.5 L 676.51 37.8 L 672.59 37.05 L 668.62 36.35 L 664.33 35.27 L 660.05 34.2 L 656.86 33.13 L 653.99 32.43 L 651.85 32.05 L 649.7 31.35 L 647.56 30.65 L 645.78 29.95 L 643.64 28.87 L 641.87 27.8 L 640.09 26.73 L 637.95 24.95 L 636.12 23.13 L 634.34 21.73 L 632.57 20.28 L 631.15 19.21 L 629.69 18.5 L 628.65 17.8 L 627.55 17.06 L 626.5 16.73 L 625.41 15.98 L 624 15.28 L 622.59 14.91 L 621.12 14.58 L 619.71 14.58 L 618.67 14.58 L 617.57 14.58 L 616.52 14.21 L 615.79 13.88 L 615.06 13.51 L 614.38 12.81 L 614.02 12.43 L 613.28 12.06 L 612.55 11.73 L 611.87 11.36 L 611.14 10.98 L 610.41 10.66 L 609.73 10.28 L 609.37 10.28 L 608.63 10.28 L 608.27 9.91 L 607.9 9.58 L 607.59 9.21 L 607.22 8.83 L 606.86 8.83 L 606.49 8.83 L 605.76 8.83 L 605.45 8.51 L 605.08 8.13 L 604.72 7.81 L 604.72 7.06 L 604.35 6.73 L 603.98 6.36 L 603.62 5.98 L 603.31 5.98 L 603.31 5.98 L 602.94 5.66 L 602.57 5.28 L 602.21 4.91 L 601.84 4.58 L 601.48 4.58 L 601.16 4.58 L 600.8 4.58 L 600.43 4.58 L 600.07 4.58 L 599.7 4.21 L 599.33 3.84 L 599.02 3.51 L 598.65 3.14 L 598.29 2.81 L 597.92 2.43 L 597.56 2.06 L 597.19 1.73 L 596.88 1.73 L 596.51 1.36 L 596.15 0.99 L 596.15 0.29 L 607.59 3.14" fill="none" stroke="#000000" stroke-miterlimit="10" pointer-events="all" style="stroke: light-dark(rgb(0, 0, 0), rgb(255, 255, 255));"/></g></g><g data-cell-id="MGBo-X1-PdZwesNiMKVY-4"><g transform="translate(0.5,0.5)"><path d="M 626.12 513.14 L 625.18 513.14 L 624.71 513.14 L 624 513.14 L 623.29 513.14 L 622.19 513.14 L 620.78 513.14 L 618.97 513.14 L 616.85 513.14 L 614.34 513.14 L 611.51 513.14 L 607.9 512.78 L 603.97 512.43 L 599.73 511.72 L 595.41 510.65 L 591.17 509.56 L 586.85 508.14 L 582.22 506.37 L 577.9 504.56 L 573.66 502.79 L 569.73 501.01 L 566.83 499.56 L 564.71 498.5 L 563.29 497.79 L 561.49 497.44 L 558.27 496.73 L 553.32 495.28 L 546.88 493.5 L 539.73 491.34 L 532.9 489.57 L 526.54 488.5 L 520.8 487.79 L 515.07 487.44 L 510.05 487.44 L 505.8 487.44 L 501.48 487.44 L 498.26 487.44 L 495.04 487.44 L 491.82 487.44 L 489 487.44 L 486.17 487.44 L 483.26 487.44 L 480.04 487.44 L 476.82 487.44 L 473.29 487.44 L 469.68 487.44 L 466.54 487.09 L 462.92 486.7 L 459.7 486.35 L 456.17 485.99 L 452.56 485.64 L 449.02 485.28 L 445.1 484.93 L 441.17 484.57 L 436.54 484.57 L 431.82 484.57 L 426.88 484.57 L 421.54 484.57 L 416.12 484.57 L 410.46 484.57 L 405.04 484.57 L 400.1 484.57 L 395.07 484.93 L 390.44 485.28 L 385.8 485.99 L 381.48 486.7 L 377.56 487.09 L 374.02 487.79 L 370.8 488.15 L 367.58 488.86 L 364.68 489.57 L 361.85 490.28 L 359.02 491.34 L 355.8 492.08 L 352.58 493.15 L 349.36 493.86 L 346.14 494.57 L 343.31 495.99 L 340.09 497.44 L 336.87 499.56 L 333.65 501.72 L 330.43 503.85 L 327.61 506.37 L 324.7 508.85 L 321.87 511.72 L 318.97 515.3 L 316.14 519.58 L 313.31 524.58 L 310.8 529.93 L 308.68 534.93 L 306.87 539.57 L 305.46 543.86 L 303.97 548.5 L 302.24 553.86 L 299.73 560.63 L 297.21 567.79 L 293.99 574.2 L 289.75 579.94 L 281.82 586.36 L 271.85 592.77 L 260.46 599.93 L 248.29 607.09 L 239.02 612.08 L 231.16 616.37 L 224.72 619.92 L 218.99 623.14 L 213.65 626.37 L 208.31 629.21 L 202.89 632.07 L 198.97 634.56 L 195.82 636.36 L 192.92 638.49 L 190.4 641 L 187.58 644.23 L 184.75 648.13 L 181.84 652.42 L 179.02 657.42 L 176.5 662.8 L 174.38 668.51 L 172.58 674.57 L 171.48 679.92 L 170.46 684.92 L 169.75 689.21 L 169.36 693.14 L 169.36 697.07 L 169.75 700.65 L 170.46 704.58 L 171.87 708.49 L 173.28 712.06 L 175.4 716 L 177.92 719.58 L 180.82 722.8 L 184.36 725.99 L 187.89 728.86 L 191.82 731.35 L 195.82 733.86 L 199.75 735.99 L 204.38 737.79 L 209.33 739.57 L 214.75 740.99 L 220.8 742.43 L 226.85 743.85 L 233.29 744.92 L 239.73 746.01 L 246.48 747.08 L 253.63 748.14 L 260.46 749.56 L 267.61 751.01 L 273.97 752.78 L 280.41 754.56 L 286.85 757.07 L 292.89 759.94 L 299.02 762.78 L 304.75 766 L 310.41 768.87 L 316.14 771.36 L 322.19 773.51 L 329.02 775.29 L 336.87 776.71 L 345.75 778.16 L 355.09 779.22 L 364.68 779.93 L 374.34 779.93 L 384 779.58 L 393.66 778.87 L 402.92 778.16 L 411.48 777.42 L 419.34 776.35 L 426.48 774.93 L 432.22 772.77 L 437.56 771 L 443.6 769.58 L 451.54 768.49 L 462.92 768.13 L 478.32 767.78 L 496.85 767.42 L 517.58 767.78 L 539.02 768.87 L 560.47 770.65 L 581.83 772.77 L 603.27 774.93 L 624.71 776.35 L 645.44 777.06 L 664.68 777.42 L 682.59 777.42 L 698.61 777.77 L 713.61 778.16 L 726.88 778.87 L 738.98 779.58 L 750.76 779.93 L 760.42 780.29 L 768.27 780.29 L 773.61 780.29 L 777.22 780.29 L 780.44 780.29 L 785.08 780.29 L 792.54 779.93 L 802.2 779.22 L 813.66 777.77 L 825.76 775.64 L 837.22 773.13 L 847.91 770.29 L 857.57 767.42 L 866.13 764.58 L 873.67 762.07 L 879.71 759.59 L 884.74 757.07 L 888.98 754.56 L 892.91 751.72 L 896.83 749.21 L 901.47 746.72 L 906.18 744.21 L 910.81 741.72 L 915.45 738.86 L 919.69 735.99 L 924.01 733.15 L 927.93 730.28 L 931.47 727.06 L 934.69 723.86 L 937.59 720.64 L 940.11 717.06 L 942.54 713.51 L 944.74 709.94 L 946.47 706 L 948.27 702.07 L 949.69 698.14 L 951.18 693.49 L 952.59 688.14 L 953.61 682.08 L 954.32 675.28 L 954.71 668.15 L 954.71 660.99 L 954.71 653.51 L 954.71 646.36 L 954.01 639.2 L 952.59 632.07 L 950.39 625.27 L 947.25 618.15 L 943.64 611.34 L 939.32 604.93 L 934.37 599.22 L 928.25 594.22 L 921.18 589.93 L 913.25 586.36 L 904.37 583.13 L 895.42 580.29 L 886.15 577.78 L 876.89 575.65 L 867.23 573.49 L 857.57 571.72 L 847.91 569.91 L 837.93 568.14 L 828.27 567.08 L 818.3 566.01 L 808.64 564.92 L 798.98 563.85 L 790.1 562.79 L 781.46 561.72 L 773.3 560.63 L 765.76 559.56 L 758.61 558.15 L 752.25 557.08 L 746.12 555.99 L 741.49 555.28 L 737.96 554.92 L 734.34 554.57 L 730.42 553.86 L 724.37 552.08 L 715.81 548.86 L 706.46 544.57 L 697.2 540.28 L 689.03 536.35 L 682.2 533.51 L 676.85 531.35 L 672.54 529.58 L 669.39 528.13 L 666.88 527.07 L 664.68 526 L 662.95 525.29 L 661.15 524.58 L 659.73 523.87 L 658.32 523.13 L 656.51 522.42 L 654.71 522.07 L 652.59 521.36 L 650.07 521 L 647.56 520.65 L 645.05 519.94 L 642.53 519.58 L 640.41 519.2 L 638.29 518.49 L 636.17 518.13 L 634.68 517.78 L 633.27 517.43 L 632.25 517.43 L 631.46 517.07 L 630.44 516.72 L 629.73 516.36 L 629.34 516.01 L 628.63 516.01 L 628.32 516.01 L 627.53 515.65 L 626.83 515.3 L 626.51 514.94 L 625.81 514.56 L 625.41 514.56 L 625.1 514.56 L 624.71 514.56 L 624.39 514.56 L 624 514.56 L 623.61 514.56 L 622.9 514.56 L 622.59 514.56 L 622.19 514.56 L 621.49 514.56 L 621.17 514.56 L 620.78 514.56 L 620.07 514.56 L 619.68 514.56 L 618.97 514.56 L 626.12 513.14" fill="none" stroke="#000000" stroke-miterlimit="10" pointer-events="all" style="stroke: light-dark(rgb(0, 0, 0), rgb(255, 255, 255));"/></g></g></g></g></g></svg>