<?xml version="1.0" encoding="UTF-8"?>
<!DOCTYPE svg PUBLIC "-//W3C//DTD SVG 1.1//EN" "http://www.w3.org/Graphics/SVG/1.1/DTD/svg11.dtd">
<svg xmlns="http://www.w3.org/2000/svg" style="background: transparent; background-color: transparent; color-scheme: light dark;" xmlns:xlink="http://www.w3.org/1999/xlink" version="1.1" width="964px" height="653px" viewBox="0 0 964 653"><defs/><g><g data-cell-id="0"><g data-cell-id="1"><g data-cell-id="RFUUqhMKFItrX1JAdHMz-2"><g transform="translate(0.5,0.5)"><path d="M 18.57 28.28 L 18.57 28.76 L 18.57 29.72 L 18.57 31.49 L 18.57 34.35 L 18.22 38.28 L 17.49 42.58 L 16.43 47.21 L 14.64 51.85 L 12.86 56.15 L 11.07 60.43 L 8.92 64.36 L 7.5 68.29 L 6.07 71.86 L 4.64 75.07 L 3.93 78.65 L 2.86 81.86 L 2.15 85.07 L 1.78 88.28 L 1.07 91.14 L 0.72 94 L 0.35 96.5 L 0 99 L 0 101.15 L 0 102.92 L 0 105.08 L 0 107.22 L 0 109.36 L 0.35 111.85 L 1.07 114.36 L 2.15 117.22 L 3.93 120.43 L 6.07 123.64 L 8.22 126.86 L 10.72 129.72 L 13.21 132.93 L 15.71 135.79 L 18.57 138.65 L 21.78 141.14 L 25.36 142.93 L 29.29 144.71 L 33.58 146.14 L 37.86 147.57 L 42.15 148.99 L 46.43 150.43 L 50.72 151.5 L 55 152.22 L 59.64 152.57 L 64.28 152.57 L 69.29 152.57 L 74.29 152.57 L 78.93 152.57 L 83.57 152.57 L 87.86 152.57 L 92.14 152.22 L 96.07 151.5 L 100 150.43 L 103.92 148.99 L 107.5 147.22 L 111.08 145.43 L 114.29 143.64 L 117.15 141.86 L 120 140.43 L 122.51 139 L 124.99 137.21 L 127.14 135.44 L 128.93 133.28 L 130.71 131.14 L 132.14 129 L 133.57 126.49 L 134.99 124 L 136.07 120.79 L 137.14 117.22 L 138.22 113.29 L 138.93 109.01 L 139.65 104.71 L 140 100.43 L 140 96.5 L 139.65 92.58 L 138.57 88.65 L 137.14 84.72 L 134.99 80.79 L 132.86 77.21 L 131.08 74 L 129.28 71.14 L 128.22 68.64 L 127.5 66.15 L 127.14 64.01 L 127.14 62.22 L 127.14 60.43 L 127.14 58.64 L 127.14 56.85 L 127.5 55.06 L 128.22 52.92 L 129.28 51.14 L 131.08 49 L 132.86 46.86 L 134.64 45.07 L 136.79 42.93 L 138.22 41.14 L 139.65 39.35 L 140.71 37.58 L 141.08 35.79 L 141.43 33.65 L 141.43 31.14 L 141.43 28.28 L 141.43 25.07 L 141.08 21.5 L 140 17.93 L 138.57 14.36 L 136.42 11.5 L 134.29 9.36 L 132.14 7.57 L 129.65 6.15 L 127.14 4.71 L 124.29 3.64 L 121.08 2.57 L 117.85 1.85 L 114.29 1.14 L 110 0.43 L 105.72 0.07 L 101.06 -0.29 L 96.43 -0.29 L 92.49 -0.29 L 88.58 -0.29 L 84.64 -0.29 L 81.07 -0.29 L 77.15 -0.29 L 73.22 -0.29 L 69.64 -0.29 L 66.08 0.07 L 62.85 0.78 L 59.99 1.5 L 57.14 2.57 L 54.28 3.29 L 51.42 3.99 L 48.57 4.71 L 45.71 5.43 L 43.22 6.15 L 40.72 6.85 L 38.21 7.92 L 36.08 8.64 L 33.58 9.71 L 31.43 10.43 L 29.29 11.15 L 27.14 12.22 L 25.36 13.29 L 23.93 14.36 L 22.85 15.43 L 21.78 16.15 L 21.07 16.85 L 20.35 17.57 L 19.64 17.93 L 19.29 18.64 L 18.92 19 L 18.57 19.36 L 18.57 19.71 L 18.57 20.07 L 18.57 20.79 L 18.57 21.5 L 18.57 22.57 L 18.57 23.28 L 18.57 23.64 L 18.57 24 L 18.57 24.35 L 18.57 24.72 L 18.57 25.42 L 18.57 26.14 L 18.57 26.49 L 18.57 27.21 L 18.57 27.56 L 18.57 28.28 L 18.57 29 L 18.57 29.35 L 18.57 30.07 L 18.57 30.42 L 18.57 30.79 L 18.57 31.49 L 18.57 31.86 L 18.57 32.58 L 18.57 33.28 L 18.57 34 L 18.57 34.72 L 18.57 35.42 L 18.57 36.14 L 18.57 36.51 L 18.57 36.86 L 18.57 36.86" fill="none" stroke="#000000" stroke-miterlimit="10" pointer-events="all" style="stroke: light-dark(rgb(0, 0, 0), rgb(255, 255, 255));"/></g></g><g data-cell-id="RFUUqhMKFItrX1JAdHMz-3"><g transform="translate(0.5,0.5)"><path d="M 675.7 259.69 L 673.32 258.76 L 670.72 257.59 L 665.37 255.06 L 657.5 250.8 L 648.95 245.06 L 639.97 238.64 L 631.79 232.23 L 625.03 226.12 L 619.98 221.49 L 616.42 217.6 L 614.26 214.33 L 612.85 211.86 L 612.11 209.33 L 611.81 206.86 L 611.07 203.28 L 610.7 199.02 L 610.03 193.65 L 609.29 187.24 L 608.91 180.76 L 608.54 174.34 L 608.25 168.66 L 607.87 163.29 L 607.5 157.55 L 607.13 151.5 L 607.5 144.72 L 607.87 137.56 L 608.91 130.09 L 610.03 122.93 L 611.07 115.77 L 612.11 109.35 L 612.48 103.98 L 612.85 98.99 L 612.85 95.1 L 612.85 91.15 L 612.85 87.57 L 612.48 83.99 L 611.81 80.41 L 610.33 76.83 L 608.54 73.31 L 606.46 69.73 L 603.94 65.78 L 601.04 62.2 L 597.85 58.32 L 594.65 54.37 L 591.46 50.79 L 588.19 47.21 L 584.62 44 L 581.06 41.53 L 577.12 39 L 573.18 37.21 L 569.32 35.79 L 564.64 34.74 L 559.66 34.37 L 554.61 34 L 549.63 34 L 545.03 34 L 540.72 34 L 536.04 34.37 L 531.81 35.05 L 527.5 36.16 L 523.19 37.95 L 519.25 40.05 L 515.39 42.58 L 511.45 45.79 L 507.51 49.37 L 503.95 52.95 L 500.38 56.83 L 497.11 60.41 L 494.29 63.62 L 491.39 67.2 L 488.57 71.15 L 485.75 75.78 L 482.85 81.15 L 480.33 86.83 L 477.87 92.57 L 475.72 97.94 L 473.57 103.31 L 471.41 108.3 L 469.63 112.93 L 467.85 117.56 L 466.06 122.19 L 464.28 126.51 L 462.5 130.77 L 460.34 134.72 L 458.56 137.93 L 456.78 141.14 L 454.99 143.97 L 453.95 146.51 L 452.84 148.29 L 452.17 149.71 L 451.8 150.45 L 451.06 151.13 L 450.69 151.87 L 450.39 152.24 L 449.65 152.92 L 448.9 153.29 L 447.86 153.97 L 446.45 155.08 L 444.97 156.13 L 443.18 157.92 L 441.4 159.71 L 439.32 161.5 L 436.79 163.29 L 434.27 164.71 L 431.07 166.13 L 427.88 167.55 L 424.31 169.03 L 420.75 170.76 L 417.11 172.55 L 413.54 174.34 L 410.35 176.13 L 406.78 177.55 L 403.96 179.03 L 401.06 180.45 L 398.54 181.5 L 396.75 182.55 L 394.97 183.29 L 393.56 183.66 L 392.52 184.03 L 391.41 184.34 L 390.74 184.71 L 389.99 185.08 L 389.25 185.45 L 388.58 185.76 L 387.17 186.5 L 384.65 187.92 L 381.08 190.45 L 376.77 193.28 L 372.17 196.49 L 367.86 199.7 L 363.25 202.54 L 358.94 205.44 L 354.63 208.28 L 350.7 210.81 L 347.5 213.28 L 344.31 215.44 L 341.41 217.6 L 338.96 219.7 L 336.81 221.49 L 335.02 223.28 L 333.24 225.07 L 331.09 226.86 L 328.93 229.02 L 326.41 231.49 L 324.25 234.02 L 322.17 237.23 L 320.02 240.8 L 318.23 244.69 L 316.45 249.38 L 314.97 254.38 L 313.93 259.69 L 313.18 265.43 L 312.51 271.48 L 312.14 277.59 L 311.77 283.26 L 311.4 288.26 L 311.4 293.26 L 311.1 299 L 310.73 305.42 L 309.99 312.95 L 308.95 320.05 L 307.83 326.83 L 306.05 333.62 L 304.27 340.04 L 302.11 346.83 L 299.66 353.31 L 297.14 358.99 L 294.31 365.1 L 291.42 370.77 L 288.22 376.51 L 284.66 382.93 L 280.72 389.35 L 276.41 395.77 L 272.18 402.19 L 268.24 407.93 L 263.93 413.3 L 259.62 418.67 L 255.39 423.97 L 250.71 429.34 L 246.77 433.97 L 243.21 437.92 L 240.38 440.76 L 238.6 442.55 L 237.11 444.03 L 236.45 444.71 L 236.07 445.45 L 235.33 446.87 L 234.29 449.03 L 232.88 452.24 L 230.73 456.13 L 228.57 460.45 L 226.79 464.03 L 225.38 467.23 L 224.26 469.7 L 223.59 471.86 L 223.22 475.44 L 222.11 484.7 L 221.07 497.6 L 220.03 513.27 L 219.29 530.43 L 219.66 543.64 L 221.44 555.05 L 224.26 565.05 L 227.53 573.63 L 231.39 581.53 L 235.33 588.63 L 238.9 594.74 L 242.54 600.04 L 245.73 604.36 L 248.55 607.94 L 251.82 611.15 L 255.39 613.99 L 259.62 616.83 L 264.67 619.36 L 270.39 621.83 L 276.78 623.99 L 283.91 626.15 L 292.16 628.31 L 300.7 630.41 L 309.62 632.57 L 318.9 634.73 L 328.19 637.57 L 337.47 640.1 L 347.13 642.93 L 356.79 645.4 L 365.7 647.19 L 374.62 648.98 L 382.86 650.09 L 390.37 650.77 L 397.87 651.14 L 404.63 650.77 L 411.09 650.09 L 416.81 649.35 L 421.79 648.3 L 426.39 647.19 L 430.03 646.14 L 433.23 644.72 L 435.68 642.93 L 437.54 640.1 L 438.95 636.15 L 440.36 631.15 L 442.89 625.78 L 447.49 620.1 L 455.74 613.31 L 467.18 606.15 L 480.7 598.32 L 495.33 590.42 L 509.3 584 L 521.41 578.26 L 532.18 573.26 L 541.46 569 L 549.63 565.05 L 557.14 561.16 L 563.9 557.58 L 569.99 554.75 L 575.34 551.84 L 580.39 549.68 L 584.99 548.27 L 588.93 546.85 L 592.87 546.17 L 597.18 545.43 L 601.78 544.69 L 607.5 544.38 L 613.59 544.38 L 620.35 545.06 L 627.86 546.48 L 636.1 548.64 L 645.39 551.47 L 654.67 555.42 L 663.96 559.74 L 672.5 564.37 L 680.01 568.63 L 686.77 572.21 L 692.11 575.05 L 696.05 577.21 L 699.32 579 L 703.18 581.16 L 712.47 586.53 L 724.65 593.32 L 738.54 601.15 L 752.88 608.62 L 763.21 612.94 L 772.12 615.78 L 779.99 617.2 L 787.13 617.94 L 793.22 618.31 L 798.94 617.94 L 804.66 617.2 L 810.01 616.15 L 815.73 614.73 L 821.82 613.31 L 828.58 611.52 L 835.71 608.99 L 843.58 606.15 L 851.75 602.57 L 860.37 598.32 L 872.48 591.84 L 884.29 585.05 L 895.36 578.26 L 905.39 571.84 L 911.41 567.58 L 916.75 563.26 L 921.81 559 L 926.41 554.75 L 930.72 550.05 L 934.66 545.06 L 938.59 539.38 L 942.16 532.9 L 945.35 526.17 L 948.55 518.64 L 951.07 510.8 L 953.6 502.6 L 955.68 493.65 L 957.54 484.33 L 959.32 474.7 L 960.73 465.44 L 961.77 456.5 L 962.14 447.55 L 961.4 439.03 L 959.62 429.71 L 956.79 419.71 L 953.23 409.35 L 949.29 398.67 L 944.61 388.3 L 940.01 378.61 L 935.03 370.1 L 929.31 362.2 L 923.22 355.1 L 917.13 349.36 L 911.78 345.1 L 906.43 341.83 L 899.67 338.99 L 890.38 335.41 L 877.83 330.41 L 862.82 324.37 L 847.52 317.95 L 832.14 311.53 L 817.51 305.42 L 804.29 300.42 L 792.47 296.16 L 782.52 292.58 L 773.61 290.05 L 766.1 287.95 L 759.27 286.47 L 753.25 285.42 L 747.83 284.37 L 742.85 283.26 L 738.25 282.21 L 733.19 281.17 L 728.59 280.43 L 723.91 280.05 L 719.67 279.68 L 715.74 279.68 L 712.17 279.68 L 708.61 279.68 L 704.97 279.68 L 702.14 279.68 L 699.32 279.68 L 697.17 279.68 L 695.38 279.68 L 693.6 279.68 L 692.49 279.38 L 691.45 279.01 L 690.33 278.64 L 689.66 278.27 L 688.55 278.27 L 687.51 278.27 L 686.77 277.96 L 685.73 277.59 L 684.61 276.85 L 683.94 276.17 L 682.83 275.43 L 681.79 274.38 L 681.05 273.27 L 680.01 272.22 L 678.97 271.17 L 678.22 270.43 L 677.48 270.06 L 677.11 269.38 L 676.81 269.01 L 676.44 268.64 L 676.07 268.27 L 675.7 268.27 L 675.7 267.96 L 675.7 267.59 L 675.7 267.22 L 675.7 266.85 L 675.7 266.85 L 675.7 266.85 L 675.33 266.48 L 675.03 266.17 L 674.66 265.8 L 674.29 265.43 L 674.29 265.06 L 674.29 264.69 L 674.29 264.38 L 674.29 263.64 L 673.91 263.27 L 673.54 262.9 L 673.25 262.22 L 672.87 261.85 L 672.87 261.48 L 672.87 260.8 L 672.87 260.43 L 672.87 260.06 L 672.87 259.69 L 672.87 259.69 L 672.5 259.38 L 672.13 259.01 L 671.76 258.64 L 671.46 257.9 L 671.09 257.59 L 670.72 257.22 L 670.35 256.85 L 669.98 256.85 L 669.68 256.48 L 669.31 256.17 L 668.57 255.8 L 667.82 255.43 L 667.53 255.43 L 666.78 255.06 L 666.41 254.69 L 665.74 254.38 L 665 254.01 L 664.63 254.01 L 663.96 254.01 L 663.59 254.01 L 663.22 254.01 L 662.85 254.01 L 675.7 259.69" fill="none" stroke="#000000" stroke-miterlimit="10" pointer-events="all" style="stroke: light-dark(rgb(0, 0, 0), rgb(255, 255, 255));"/></g></g></g></g></g></svg>