<?xml version="1.0" encoding="UTF-8"?>
<!DOCTYPE svg PUBLIC "-//W3C//DTD SVG 1.1//EN" "http://www.w3.org/Graphics/SVG/1.1/DTD/svg11.dtd">
<svg xmlns="http://www.w3.org/2000/svg" style="background: transparent; background-color: transparent; color-scheme: light dark;" xmlns:xlink="http://www.w3.org/1999/xlink" version="1.1" width="925px" height="677px" viewBox="0 0 925 677"><defs/><g><g data-cell-id="0"><g data-cell-id="1"><g data-cell-id="K9VzMfCJeUEUW_nmoAvC-1"><g transform="translate(0.5,0.5)"><path d="M 38 8.15 L 37.48 7.13 L 36.84 7 L 36.08 6.61 L 34.93 6.61 L 33.77 6.61 L 33 6.61 L 31.85 6.61 L 31.07 6.61 L 30.31 6.61 L 29.16 6.61 L 27.62 7.39 L 25.69 8.93 L 23 11.23 L 19.92 14.69 L 16.85 18.16 L 13 22 L 9.93 25.84 L 7.23 29.31 L 4.93 32.38 L 3.38 35.07 L 2.23 37.77 L 1.07 40.46 L 0.31 43.93 L -0.08 47.38 L -0.46 51.23 L -0.46 55.46 L -0.46 59.3 L -0.46 63.15 L -0.46 66.62 L -0.46 69.7 L -0.46 72.39 L -0.46 75.08 L -0.46 77.39 L -0.46 79.69 L -0.46 82 L -0.46 84.31 L -0.46 86.62 L -0.08 88.54 L 0.31 90.46 L 0.69 92 L 1.47 93.54 L 1.85 95.08 L 2.62 96.62 L 3.77 98.15 L 5.31 99.69 L 7.23 101.23 L 9.53 102.77 L 11.84 103.92 L 13.77 105.07 L 16.08 105.85 L 18 106.61 L 19.92 107.39 L 22.23 107.77 L 24.54 108.15 L 26.85 108.15 L 29.54 108.15 L 32.23 108.15 L 34.93 108.15 L 38 108.15 L 41.08 108.15 L 44.54 107.77 L 48 107 L 51.47 105.46 L 54.92 103.16 L 57.62 100.84 L 60.69 97.77 L 64.15 94.3 L 67.61 90.85 L 71.46 87 L 74.92 83.54 L 78 80.47 L 81.07 77.39 L 83.77 74.31 L 86.46 71.61 L 88.77 68.92 L 90.31 66.62 L 91.84 64.31 L 92.61 61.62 L 93.39 58.93 L 94.15 55.85 L 94.54 52.38 L 94.92 48.92 L 94.92 45.84 L 94.92 42.77 L 94.92 40.08 L 94.54 37.77 L 94.15 35.07 L 93.39 32.77 L 92.23 30.84 L 90.69 28.54 L 88.77 26.62 L 86.46 24.3 L 83.77 22 L 81.07 20.07 L 78.38 18.16 L 76.08 16.62 L 74.16 15.08 L 72.61 13.54 L 71.08 12 L 69.54 10.47 L 68 8.93 L 66.46 7 L 64.92 5.46 L 63.77 3.92 L 62.23 2.39 L 60.69 1.61 L 59.15 0.85 L 57.62 0.46 L 56.46 0.46 L 55.31 0.46 L 54.16 0.46 L 52.62 0.46 L 51.07 0.46 L 49.54 0.46 L 48 0.46 L 46.46 0.46 L 45.3 0.46 L 44.15 0.85 L 43 1.23 L 41.84 1.61 L 40.31 2.39 L 38.77 2.77 L 37.23 3.54 L 36.08 4.31 L 34.93 5.08 L 34.15 5.85 L 33.38 6.61 L 32.62 7.39 L 32.23 7.77 L 31.85 8.15 L 31.46 8.15 L 31.07 8.54 L 30.69 8.93 L 30.31 9.3 L 30.31 9.69" fill="none" stroke="#000000" stroke-miterlimit="10" pointer-events="all" style="stroke: light-dark(rgb(0, 0, 0), rgb(255, 255, 255));"/></g></g><g data-cell-id="K9VzMfCJeUEUW_nmoAvC-2"><g transform="translate(0.5,0.5)"><path d="M 727.2 275.85 L 729.29 275.85 L 730.72 275.85 L 733.75 275.85 L 737.63 275.85 L 741.87 275.85 L 746.84 275.85 L 752.23 275.85 L 757.62 275.85 L 762.59 275.85 L 767.26 275.44 L 771.07 275.09 L 774.53 274.33 L 777.62 273.16 L 780.28 271.99 L 783.01 270.82 L 785.31 269.71 L 787.98 268.54 L 790.28 267.38 L 792.65 266.21 L 794.95 265.1 L 796.82 264.34 L 799.12 263.52 L 801.07 262.41 L 803.37 261.59 L 806.1 260.48 L 808.4 259.72 L 811.06 258.9 L 813.8 257.79 L 816.46 256.62 L 819.55 254.69 L 823 252.76 L 826.45 250.48 L 829.91 247.79 L 833 245.1 L 835.66 242.41 L 838.03 239.31 L 839.9 236.22 L 841.85 232.77 L 843.36 228.56 L 844.94 224.29 L 846.09 220.08 L 847.24 215.87 L 848.03 211.25 L 848.39 206.63 L 848.75 201.61 L 848.75 196.64 L 848.75 192.02 L 848.39 187.4 L 848.03 182.78 L 846.88 178.51 L 845.3 174.71 L 843.79 171.62 L 842.21 169.34 L 841.05 167.76 L 839.54 166.24 L 836.45 163.55 L 831.85 160.45 L 826.09 156.59 L 819.55 152.79 L 813.8 150.1 L 807.97 147.41 L 802.65 145.07 L 797.25 143.14 L 791.86 141.22 L 786.82 139.7 L 781.86 138.53 L 777.62 137.36 L 773.38 136.25 L 769.56 135.49 L 766.47 134.32 L 763.38 133.56 L 761.08 132.8 L 759.13 131.98 L 757.26 131.22 L 755.32 130.05 L 753.38 129.29 L 751.44 128.18 L 749.57 127.01 L 747.63 125.84 L 745.68 124.67 L 743.38 123.56 L 740.72 122.74 L 737.99 122.39 L 734.54 121.63 L 730.72 121.22 L 726.48 120.87 L 721.88 120.46 L 717.2 120.46 L 712.6 120.46 L 707.64 120.46 L 702.6 120.46 L 697.64 120.46 L 692.61 120.46 L 688 120.46 L 683.4 120.05 L 678.8 119.7 L 674.55 119.29 L 670.31 118.94 L 666.5 118.53 L 662.97 118.18 L 659.52 117.77 L 656.43 117.36 L 653.77 117.01 L 651.11 116.25 L 648.8 115.08 L 646.86 113.56 L 644.56 111.98 L 642.62 110.06 L 640.68 108.13 L 638.73 105.85 L 636.86 103.16 L 634.92 100.47 L 632.98 97.78 L 630.68 95.44 L 628.74 93.92 L 626.08 92.75 L 622.62 91.99 L 618.38 91.64 L 612.99 91.23 L 607.59 91.23 L 602.2 91.23 L 597.59 91.23 L 593.35 91.23 L 589.18 91.23 L 585.3 91.64 L 581.48 91.99 L 577.6 92.4 L 573.79 93.16 L 570.34 93.51 L 566.81 94.33 L 563.36 95.44 L 560.34 96.61 L 557.25 97.78 L 552.21 99.3 L 546.46 101.23 L 539.12 103.57 L 528.4 107.02 L 516.83 110.46 L 503.74 114.67 L 489.93 119.29 L 477.2 123.56 L 465.69 128.18 L 455.33 131.98 L 446.05 135.49 L 437.64 138.53 L 429.94 141.22 L 423.4 143.55 L 418 145.48 L 413.4 147 L 409.16 148.17 L 404.91 149.28 L 400.31 150.45 L 395.71 151.97 L 391.46 153.55 L 387.58 154.72 L 384.56 155.83 L 381.83 157 L 379.52 157.76 L 378.01 158.93 L 376.43 159.69 L 374.92 160.1 L 372.62 160.45 L 368.38 159.69 L 363.41 158.52 L 358.38 157 L 353.78 155.07 L 349.89 153.9 L 346.44 153.14 L 342.99 152.38 L 339.53 151.97 L 336.08 151.62 L 332.63 151.21 L 329.18 151.21 L 325.73 151.21 L 322.63 151.21 L 319.9 151.21 L 317.6 151.21 L 315.3 151.21 L 313.35 150.86 L 311.48 150.45 L 309.54 150.1 L 308.03 149.69 L 306.45 149.28 L 304.94 148.93 L 303.36 148.52 L 301.85 148.17 L 299.91 147.76 L 298.04 147.41 L 295.66 147 L 293 146.59 L 290.7 146.59 L 287.97 146.59 L 285.3 146.59 L 282.64 146.59 L 279.55 147 L 276.46 147.41 L 273.37 148.17 L 270.27 149.28 L 267.61 150.1 L 264.95 151.21 L 262.65 152.38 L 260.28 153.55 L 257.97 154.72 L 256.1 155.83 L 254.16 157 L 252.22 158.17 L 250.28 159.69 L 248.77 160.86 L 247.26 162.03 L 246.11 163.14 L 245.32 163.9 L 244.16 165.07 L 243.37 165.83 L 243.01 166.59 L 242.58 167.41 L 242.22 168.17 L 241.86 169.34 L 241.43 170.45 L 241.07 172.02 L 241.07 173.54 L 241.07 175.06 L 241.07 176.99 L 240.71 179.33 L 240.28 182.02 L 239.92 184.71 L 239.13 187.4 L 238.77 189.68 L 238.41 191.61 L 237.62 193.54 L 237.26 195.47 L 236.83 197.4 L 236.47 199.33 L 236.47 201.26 L 236.47 202.78 L 236.47 204.3 L 236.47 205.87 L 236.83 207.39 L 237.26 208.91 L 237.98 210.43 L 239.13 212.01 L 240.28 213.53 L 241.86 215.05 L 243.37 216.63 L 245.32 218.15 L 247.26 219.67 L 249.13 221.25 L 251.07 222.77 L 252.58 224.29 L 254.52 225.87 L 256.46 227.8 L 258.41 229.67 L 260.28 231.25 L 261.86 232.77 L 263.37 233.94 L 265.31 235.1 L 267.25 236.22 L 269.55 237.38 L 271.86 238.55 L 274.16 239.66 L 276.82 240.83 L 279.12 242 L 281.85 243.17 L 284.51 243.93 L 286.82 244.69 L 289.55 245.1 L 291.85 245.45 L 294.15 245.86 L 296.45 246.21 L 298.75 246.97 L 301.49 247.38 L 303.79 248.14 L 306.45 248.9 L 309.18 249.31 L 311.48 249.72 L 313.79 250.07 L 315.3 250.48 L 316.09 252 L 316.88 253.93 L 317.24 256.21 L 318.03 259.31 L 318.75 262.41 L 319.54 265.86 L 320.33 269.3 L 320.69 272.75 L 321.05 275.44 L 321.05 277.78 L 321.05 280.06 L 321.05 281.99 L 321.05 284.33 L 321.05 286.61 L 321.05 288.95 L 321.05 291.23 L 321.05 293.57 L 320.69 296.26 L 319.9 298.94 L 318.75 301.98 L 317.24 304.67 L 315.66 307.36 L 314.15 310.05 L 312.2 312.74 L 309.9 315.84 L 307.6 318.94 L 304.94 322.39 L 302.21 325.84 L 299.55 329.7 L 296.45 333.55 L 293.36 337 L 290.7 340.45 L 288.4 343.14 L 286.46 345.83 L 284.95 348.93 L 282.21 353.9 L 278.76 360.1 L 274.95 366.64 L 270.27 373.54 L 266.46 379.33 L 263.01 384.71 L 259.56 390.44 L 256.1 395.87 L 252.58 401.25 L 249.13 406.63 L 245.68 411.6 L 242.58 416.98 L 239.13 422.36 L 235.68 428.55 L 232.23 435.45 L 228.41 442.76 L 224.53 450.48 L 220.29 458.9 L 216.04 468.13 L 212.23 477.37 L 208.78 486.61 L 206.48 495.08 L 204.54 501.63 L 203.38 507.01 L 203.38 511.63 L 203.74 515.49 L 205.69 519.7 L 208.42 524.31 L 211.87 528.93 L 215.68 533.9 L 219.57 538.93 L 224.53 544.72 L 229.13 550.1 L 233.38 554.71 L 237.26 558.92 L 239.92 562.02 L 242.22 565.06 L 244.96 567.75 L 247.62 570.44 L 250.28 572.78 L 253.37 575.06 L 256.46 577.4 L 259.92 579.68 L 263.37 582.37 L 266.82 584.7 L 270.7 587.39 L 274.52 589.67 L 279.12 592.01 L 285.3 594.29 L 292.64 596.63 L 301.06 598.91 L 310.69 600.84 L 320.33 603.18 L 329.9 605.05 L 339.18 606.98 L 347.23 608.91 L 353.78 610.08 L 358.38 610.84 L 362.26 611.6 L 366.43 613.18 L 372.62 616.22 L 381.83 620.83 L 393.41 626.97 L 406.5 633.52 L 419.94 639.72 L 433.39 645.45 L 446.84 650.47 L 459.5 654.68 L 471.87 658.13 L 483.38 660.82 L 493.74 662.75 L 504.53 664.33 L 515.67 665.44 L 526.82 666.26 L 537.97 666.61 L 547.97 666.61 L 556.45 666.26 L 563.36 665.85 L 569.9 665.85 L 577.6 666.26 L 586.45 667.37 L 597.59 668.95 L 611.48 670.82 L 626.44 672.4 L 642.98 673.92 L 660.31 675.09 L 676.85 675.44 L 692.96 675.85 L 707.64 675.85 L 720.3 675.44 L 730.29 675.09 L 737.2 674.33 L 742.23 673.57 L 746.84 673.16 L 753.38 672.75 L 762.23 672.75 L 773.73 672.75 L 786.82 672.75 L 800.27 672.4 L 813.36 671.99 L 825.66 671.64 L 836.45 670.82 L 845.66 670.47 L 853.78 669.71 L 860.69 668.54 L 866.88 667.37 L 872.2 665.85 L 876.87 663.92 L 880.68 661.99 L 884.14 660.06 L 887.23 657.78 L 890.32 655.44 L 893.41 652.75 L 896.44 650.06 L 899.17 647.38 L 901.83 645.1 L 904.56 642.76 L 907.22 640.48 L 909.96 638.55 L 912.62 636.62 L 914.92 635.1 L 916.86 633.17 L 918.8 631.24 L 919.95 628.9 L 921.1 625.86 L 921.82 622.41 L 922.26 617.79 L 922.62 612.36 L 922.62 606.63 L 922.62 600.08 L 921.82 593.53 L 920.67 586.98 L 918.8 580.44 L 915.71 573.95 L 912.62 567.4 L 908.73 560.85 L 904.56 554.71 L 900.32 548.93 L 895.72 543.55 L 891.47 538.17 L 887.23 532.79 L 882.99 527.76 L 878.74 522.79 L 874.14 518.53 L 869.54 514.32 L 864.93 510.46 L 860.33 507.01 L 855.73 503.56 L 851.05 500.87 L 846.09 498.18 L 840.69 495.43 L 834.51 493.15 L 827.6 490.87 L 820.34 488.94 L 812.21 487.78 L 804.52 486.61 L 797.25 485.85 L 790.28 485.44 L 784.52 485.09 L 779.56 485.09 L 774.96 485.09 L 770.28 484.68 L 763.74 484.33 L 749.57 482.75 L 731.44 480.47 L 709.94 477.78 L 686.85 474.68 L 668.01 471.99 L 651.47 469.71 L 638.02 467.78 L 626.87 466.2 L 618.02 465.44 L 610.33 465.09 L 602.99 465.09 L 596.44 465.44 L 590.69 466.2 L 585.73 467.37 L 581.84 468.95 L 578.75 470.06 L 575.66 470.82 L 571.06 471.23 L 564.51 471.23 L 556.45 471.23 L 547.25 471.23 L 537.97 471.23 L 529.12 471.23 L 520.71 471.23 L 512.58 470.82 L 505.32 470.06 L 498.41 468.95 L 491.87 467.37 L 486.04 465.85 L 480.72 464.33 L 475.69 462.75 L 471.44 461.23 L 467.63 459.71 L 464.18 458.14 L 461.08 456.62 L 457.99 455.1 L 454.9 453.52 L 451.45 452 L 447.99 450.48 L 444.54 448.55 L 440.66 446.21 L 437.21 443.52 L 434.19 440.83 L 431.09 438.14 L 428.79 435.86 L 427.64 433.93 L 427.64 432.41 L 428.79 431.59 L 430.66 430.83 L 432.6 429.31 L 434.19 425.86 L 435.34 419.32 L 436.06 410.08 L 436.49 399.32 L 436.49 388.57 L 436.49 378.92 L 436.49 370.85 L 436.49 364.71 L 436.49 359.34 L 436.49 354.72 L 436.49 350.86 L 436.49 346.59 L 436.49 342.79 L 436.49 339.28 L 436.85 335.83 L 437.21 332.79 L 437.64 330.1 L 438 327.36 L 438 325.08 L 438 323.15 L 438.36 321.22 L 439.15 319.29 L 440.3 317.01 L 442.24 314.32 L 444.18 311.22 L 446.48 308.18 L 448.79 305.43 L 450.73 303.15 L 453.03 300.87 L 454.9 298.54 L 457.63 295.85 L 460.73 292.75 L 464.18 289.71 L 467.99 286.61 L 471.44 283.51 L 475.33 280.47 L 478.78 277.37 L 482.59 274.33 L 486.47 271.64 L 489.93 269.3 L 493.38 267.38 L 496.11 265.86 L 498.77 264.34 L 501.43 262.76 L 503.74 261.24 L 506.47 260.07 L 509.13 258.9 L 511.86 257.79 L 514.96 256.62 L 517.62 255.1 L 520.28 253.93 L 522.65 252.76 L 524.95 252 L 527.61 251.24 L 529.92 250.48 L 533.01 250.07 L 536.1 249.72 L 539.12 249.72 L 543.01 249.72 L 546.46 249.72 L 549.91 249.72 L 553.79 249.72 L 557.25 249.72 L 560.7 250.07 L 564.51 250.83 L 568.03 252 L 571.85 253.52 L 576.09 255.45 L 580.69 257.38 L 585.73 259.31 L 590.69 260.83 L 595.72 262 L 600.33 263.17 L 604.93 263.93 L 609.53 265.1 L 613.78 266.21 L 617.59 267.02 L 621.04 268.14 L 624.13 269.71 L 627.23 271.23 L 629.89 273.16 L 632.62 275.09 L 634.92 276.61 L 636.86 278.13 L 638.73 279.71 L 640.32 281.64 L 641.83 283.92 L 643.41 286.61 L 645.28 289.71 L 647.22 293.16 L 649.52 296.61 L 651.82 300.46 L 653.77 304.32 L 655.71 307.36 L 657.22 310.05 L 658.8 311.63 L 661.1 312.39 L 665.27 312.74 L 670.31 312.74 L 675.7 312.74 L 680.67 312.74 L 684.12 312.39 L 686.85 311.98 L 689.15 311.22 L 691.45 310.46 L 693.4 309.7 L 695.34 308.94 L 697.64 308.18 L 699.94 307.36 L 702.6 306.6 L 705.7 305.43 L 708.36 304.67 L 710.66 303.56 L 712.6 302.74 L 714.18 301.98 L 715.69 301.22 L 717.2 300.46 L 718.79 299.3 L 720.3 298.13 L 721.45 297.02 L 722.6 295.85 L 723.39 294.68 L 724.18 293.92 L 724.9 292.75 L 725.69 291.64 L 726.84 290.82 L 727.63 289.71 L 728.35 288.95 L 729.14 288.13 L 729.57 287.37 L 730.29 286.61 L 731.08 285.85 L 731.44 285.09 L 732.23 284.33 L 732.59 283.51 L 733.03 282.75 L 733.75 281.99 L 734.18 281.23 L 734.54 280.82 L 735.33 280.06 L 735.69 279.71 L 736.48 279.3 L 737.2 278.54 L 737.99 278.13 L 738.78 277.78 L 739.14 277.37 L 739.93 277.37 L 740.29 277.02 L 741.08 276.61 L 742.23 276.2 L 743.02 275.85 L 744.17 275.85 L 744.89 275.85 L 745.68 275.85 L 746.48 275.44 L 747.19 275.09 L 747.99 274.68 L 748.78 274.33 L 749.57 274.33 L 749.93 274.33 L 750.72 274.33 L 751.08 274.33 L 727.2 275.85" fill="none" stroke="#000000" stroke-miterlimit="10" pointer-events="all" style="stroke: light-dark(rgb(0, 0, 0), rgb(255, 255, 255));"/></g></g></g></g></g></svg>