<?xml version="1.0" encoding="UTF-8"?>
<!DOCTYPE svg PUBLIC "-//W3C//DTD SVG 1.1//EN" "http://www.w3.org/Graphics/SVG/1.1/DTD/svg11.dtd">
<svg xmlns="http://www.w3.org/2000/svg" style="background: transparent; background-color: transparent; color-scheme: light dark;" xmlns:xlink="http://www.w3.org/1999/xlink" version="1.1" width="1093px" height="752px" viewBox="0 0 1093 752"><defs/><g><g data-cell-id="0"><g data-cell-id="1"><g data-cell-id="UvLF6wwbqHBI7OaaU3JV-1"><g transform="translate(0.5,0.5)"><path d="M 22.57 18.71 L 22.57 18.71 L 22.57 19.07 L 22.22 19.78 L 21.5 20.86 L 20.07 22.64 L 17.93 24.79 L 16.15 26.93 L 14.35 29.42 L 13.29 31.57 L 12.57 33.71 L 11.86 35.86 L 11.14 38 L 10.43 40.5 L 9.71 43.36 L 8.64 46.58 L 7.58 50.14 L 6.15 53.71 L 4.72 56.57 L 3.65 59.43 L 2.57 61.58 L 1.86 63.72 L 1.14 65.85 L 0.43 68 L 0.07 70.86 L -0.29 74.07 L -0.29 78 L -0.29 82.28 L -0.29 86.93 L -0.29 91.22 L -0.29 95.49 L -0.29 99.07 L -0.29 101.93 L 0.07 104.43 L 0.79 106.21 L 1.86 108 L 3.29 109.43 L 5.07 110.86 L 7.21 112.65 L 9.71 114.42 L 12.57 116.21 L 15.43 118 L 18.64 119.43 L 22.22 120.86 L 26.15 122.29 L 30.79 123.36 L 35.43 124.07 L 40.43 124.43 L 45.43 124.43 L 50.07 124.07 L 55.07 123 L 59.71 120.86 L 64.72 117.64 L 70.07 113.72 L 75.07 109.79 L 80.43 105.86 L 85.43 101.93 L 90.07 98.35 L 94.72 94.07 L 99.01 89.79 L 102.93 85.14 L 106.5 80.15 L 109.36 75.5 L 111.5 70.86 L 112.93 66.93 L 113.65 63.35 L 114 60.15 L 114 57.29 L 114 54.07 L 114 50.85 L 114 47.28 L 114 43.36 L 113.65 39.07 L 113.29 34.78 L 112.57 30.51 L 111.5 26.57 L 110.07 23.36 L 107.93 20.5 L 105.43 18 L 102.22 15.85 L 98.64 13.71 L 94.72 11.58 L 90.43 9.79 L 86.15 8 L 81.86 6.57 L 77.93 5.14 L 74.35 3.71 L 71.14 2.64 L 68.29 1.93 L 65.43 1.57 L 62.57 1.21 L 59.71 0.85 L 56.86 0.5 L 54.35 0.14 L 51.86 0.14 L 49.71 0.14 L 47.58 0.14 L 45.43 0.14 L 43.65 0.14 L 41.86 0.14 L 40.43 0.14 L 39.01 0.14 L 37.58 0.14 L 36.15 0.14 L 34.72 0.14 L 33.65 0.14 L 32.57 0.5 L 31.5 0.85 L 30.43 1.57 L 29.01 2.64 L 27.93 3.36 L 26.86 4.43 L 26.15 5.5 L 25.78 6.22 L 25.07 7.29 L 24.72 8 L 24.35 8.72 L 23.65 9.79 L 23.29 10.5 L 22.93 11.58 L 22.57 12.65 L 22.57 13.35 L 22.57 14.42 L 22.22 15.14 L 21.86 15.5 L 21.5 16.21 L 21.14 16.57 L 21.14 17.28 L 21.14 18 L 21.14 18.36 L 21.14 18.71 L 21.14 19.07 L 21.14 19.43 L 21.14 19.78 L 21.14 20.5 L 21.14 20.86 L 21.14 21.57 L 20.79 22.29 L 20.43 22.64 L 20.07 23.36 L 19.71 23.72" fill="none" stroke="#000000" stroke-miterlimit="10" pointer-events="all" style="stroke: light-dark(rgb(0, 0, 0), rgb(255, 255, 255));"/></g></g><g data-cell-id="UvLF6wwbqHBI7OaaU3JV-2"><g transform="translate(0.5,0.5)"><path d="M 102.31 421.44 L 102.31 421.96 L 102.31 422.99 L 102.31 425.32 L 102.31 429.15 L 102.31 434.17 L 102.31 439.92 L 101.91 446.45 L 101.54 453.39 L 100.77 460.69 L 99.6 467.99 L 98.47 475.3 L 97.3 482.23 L 96.17 489.16 L 95.4 496.06 L 94.63 502.63 L 93.86 508.79 L 93.06 514.14 L 91.93 518.78 L 90.76 522.99 L 89.22 527.23 L 87.69 531.47 L 86.15 535.68 L 84.61 539.92 L 82.68 544.16 L 80.77 548.4 L 78.47 553.38 L 76.17 559.17 L 73.83 565.7 L 71.53 572.23 L 69.62 579.16 L 68.09 585.69 L 66.92 591.85 L 66.15 598.01 L 65.79 603.77 L 65.38 609.56 L 65.38 615.31 L 65.38 621.06 L 65.38 626.45 L 65.38 631.47 L 65.38 636.08 L 65.38 640.69 L 65.38 645.3 L 65.38 649.91 L 65.79 654.92 L 66.15 660.31 L 66.92 666.06 L 68.09 672.22 L 69.22 678.38 L 70.76 684.91 L 72.7 691.85 L 75 699.15 L 77.7 706.45 L 80.77 713.39 L 83.85 719.91 L 86.92 725.71 L 90.39 731.09 L 93.86 735.7 L 97.3 739.17 L 100.77 741.46 L 104.24 742.6 L 108.85 742.23 L 114.99 741.09 L 123.07 739.54 L 132.32 737.62 L 141.94 736.48 L 151.15 735.7 L 160 735.3 L 168.08 735.3 L 175.39 735.3 L 182.3 735.3 L 188.47 736.07 L 194.62 737.21 L 200.76 739.17 L 206.94 741.46 L 213.08 743.78 L 219.22 746.07 L 225 747.62 L 230.77 749.16 L 236.55 749.94 L 242.32 750.31 L 248.83 750.31 L 255.78 749.94 L 262.69 748.76 L 270 747.62 L 276.91 746.47 L 283.85 744.92 L 291.16 743.78 L 298.08 742.6 L 305.39 741.46 L 312.7 740.31 L 320.01 739.17 L 327.32 737.62 L 334.63 736.07 L 341.91 734.52 L 348.85 732.6 L 355.76 730.69 L 362.31 728.4 L 368.08 726.07 L 373.46 723.38 L 378.47 720.32 L 383.07 717.22 L 387.31 714.16 L 391.15 711.47 L 394.22 708.78 L 396.16 706.08 L 397.7 702.62 L 398.46 698.78 L 398.83 694.17 L 399.23 688.78 L 399.23 682.62 L 398.83 676.06 L 398.06 669.53 L 396.53 663 L 394.22 657.25 L 391.55 651.46 L 388.45 646.07 L 385.38 641.09 L 382.3 636.08 L 378.83 631.47 L 374.99 626.85 L 370.75 622.61 L 365.78 618.37 L 360.77 614.54 L 355.76 610.7 L 350.76 606.46 L 346.15 602.62 L 341.91 598.38 L 337.7 593.77 L 334.23 589.53 L 331.16 585.32 L 328.09 580.68 L 324.62 575.7 L 320.38 569.54 L 315.77 562.23 L 310.39 554.52 L 305.39 547.22 L 300.38 540.69 L 295 534.53 L 289.63 529.15 L 283.85 524.17 L 277.31 519.15 L 270.77 514.54 L 264.22 509.16 L 258.08 502.63 L 253.07 494.55 L 248.83 484.55 L 245.76 473.78 L 243.46 463.01 L 241.92 453.02 L 241.15 445.31 L 240.39 439.15 L 236.91 431.48 L 231.91 423.77 L 225.4 415.32 L 217.69 406.47 L 211.91 400.31 L 206.17 395.29 L 201.16 391.46 L 196.92 388.76 L 193.08 386.85 L 190.01 385.3 L 186.94 384.15 L 183.83 383.01 L 180.76 382.24 L 177.32 381.83 L 173.85 381.46 L 170.01 381.46 L 165.77 381.46 L 161.53 381.46 L 157.29 381.46 L 153.45 381.46 L 150.01 381.83 L 146.91 382.24 L 143.84 383.01 L 140.77 384.15 L 137.7 385.3 L 134.62 386.48 L 131.92 387.62 L 129.22 388.76 L 126.91 389.54 L 125.01 390.68 L 123.07 391.86 L 121.54 392.6 L 119.6 393.78 L 118.07 394.92 L 116.53 395.7 L 114.99 396.84 L 113.86 397.99 L 112.32 399.17 L 110.75 400.31 L 109.62 401.45 L 108.45 402.63 L 107.68 403.37 L 107.32 404.55 L 106.55 405.33 L 106.15 406.06 L 105.78 406.84 L 105.38 407.61 L 105.01 408.39 L 104.61 409.16 L 104.24 409.94 L 103.84 410.67 L 103.84 411.45 L 103.48 412.22 L 103.08 413 L 102.71 413.77 L 102.31 414.55 L 102.31 415.32 L 101.91 416.06 L 101.54 416.83 L 101.14 417.61 L 100.77 418.38 L 100.77 419.16 L 100.77 419.93 L 100.77 420.71 L 100.77 421.44 L 100.77 422.62 L 100.77 423.4 L 100.77 424.54 L 100.77 425.69 L 100.77 426.83 L 100.77 428.01 L 100.77 429.15 L 100.77 430.3 L 100.77 431.07 L 100.77 432.21 L 100.77 432.99 L 100.77 433.76 L 102.31 421.44" fill="none" stroke="#000000" stroke-miterlimit="10" pointer-events="all" style="stroke: light-dark(rgb(0, 0, 0), rgb(255, 255, 255));"/></g></g><g data-cell-id="UvLF6wwbqHBI7OaaU3JV-3"><g transform="translate(0.5,0.5)"><path d="M 820.75 19.92 L 820.26 19.92 L 818.06 19.92 L 813.86 19.92 L 808.07 19.92 L 800.77 19.92 L 793.47 19.92 L 785.77 19.92 L 777.29 19.92 L 768.85 19.92 L 760.37 19.92 L 752.3 20.32 L 745 20.69 L 738.07 21.46 L 731.91 22.99 L 726.94 24.52 L 722.7 26.46 L 719.23 28.4 L 716.14 30.3 L 713.08 32.24 L 710.39 34.54 L 707.7 37.61 L 705.01 40.68 L 702.31 44.15 L 699.22 47.99 L 696.53 51.87 L 694.24 55.7 L 691.92 59.94 L 690 63.78 L 688.45 67.21 L 686.9 70.68 L 686.17 73.75 L 685.4 76.86 L 684.62 79.93 L 684.21 83 L 683.85 86.07 L 683.85 89.14 L 684.21 92.25 L 685.4 95.32 L 687.31 98.39 L 690 101.46 L 693.06 104.53 L 696.53 108 L 700.77 111.84 L 706.15 115.67 L 712.71 119.91 L 720.01 124.15 L 727.67 128.39 L 735.79 133 L 744.23 137.24 L 753.07 140.71 L 762.33 143.78 L 771.54 146.45 L 781.16 149.15 L 791.15 152.63 L 801.55 156.46 L 811.94 160.7 L 822.3 165.71 L 832.69 171.44 L 842.68 178.39 L 852.71 186.83 L 862.29 196.85 L 870.77 207.99 L 878.48 220.31 L 884.63 232.99 L 889.24 244.9 L 892.71 255.69 L 894.62 263.76 L 895.76 269.13 L 896.17 273.38 L 896.17 277.62 L 896.91 283.39 L 899.23 293 L 903.47 306.45 L 909.99 322.24 L 917.7 339.52 L 925.77 355.68 L 933.48 369.53 L 940.37 381.08 L 946.52 390.69 L 951.9 398.37 L 956.55 404.14 L 960.75 408.78 L 964.62 411.85 L 968.09 414.16 L 971.55 416.09 L 975.02 417.63 L 978.85 419.16 L 983.46 420.29 L 988.84 421.47 L 995 422.23 L 1001.52 422.6 L 1008.86 423 L 1016.52 423 L 1024.6 422.6 L 1033.08 421.83 L 1041.15 419.93 L 1049.22 416.46 L 1056.56 411.85 L 1063.08 406.08 L 1068.83 399.17 L 1073.84 391.46 L 1078.45 382.62 L 1082.32 373 L 1085.75 363.76 L 1088.48 353.01 L 1089.99 343 L 1091.17 332.62 L 1091.54 321.07 L 1091.54 309.52 L 1091.54 297.24 L 1091.54 284.52 L 1091.54 271.84 L 1090.76 260.29 L 1089.62 248.78 L 1087.3 236.83 L 1083.47 224.15 L 1078.45 210.29 L 1071.93 195.31 L 1065 180.69 L 1058.07 167.24 L 1051.91 155.69 L 1046.94 146.45 L 1043.47 139.9 L 1041.56 135.7 L 1040.37 132.63 L 1039.6 130.29 L 1038.09 126.86 L 1035.4 121.85 L 1032.3 115.67 L 1028.47 108.77 L 1024.6 101.46 L 1020.76 94.92 L 1016.93 89.14 L 1013.06 83.77 L 1008.86 79.53 L 1004.62 75.69 L 1000.01 72.22 L 995.4 69.15 L 990.76 66.08 L 985.78 63.01 L 980.77 60.31 L 975.39 58 L 969.6 55.7 L 963.85 53.76 L 958.06 51.87 L 952.68 49.93 L 947.3 47.99 L 942.32 46.09 L 937.31 44.15 L 932.29 42.21 L 927.69 40.68 L 923.45 39.14 L 919.25 37.61 L 915.37 36.07 L 911.91 34.9 L 908.44 33.77 L 905.39 32.6 L 902.29 31.83 L 898.86 30.7 L 894.99 29.94 L 890.75 29.53 L 886.14 28.77 L 881.54 28.4 L 876.52 28 L 871.55 27.63 L 866.53 27.63 L 861.52 27.63 L 856.91 27.63 L 852.71 27.63 L 848.84 28 L 845.37 28.4 L 842.68 28.77 L 840.4 29.17 L 838.44 29.17 L 837.3 29.17 L 836.16 29.17 L 835.39 29.17 L 834.61 29.17 L 833.84 29.17 L 833.06 29.17 L 832.33 29.17 L 831.92 29.17 L 831.15 29.17 L 830.78 29.17 L 830 29.17 L 829.23 29.17 L 828.45 29.17 L 827.68 29.17 L 826.91 29.17 L 826.17 29.17 L 825.4 29.17 L 824.62 29.17 L 823.85 28.77 L 823.07 28.4 L 822.3 28 L 821.52 27.63 L 820.75 27.63 L 820.02 27.63 L 819.61 27.23 L 818.83 26.83 L 818.47 26.06 L 817.69 25.29 L 816.92 24.93 L 816.55 24.16 L 815.78 23.76 L 815.37 23.39 L 815 22.99 L 814.23 22.99 L 813.86 22.99 L 813.08 22.99 L 812.31 22.99 L 811.94 22.63 L 811.54 22.22 L 811.17 21.86 L 810.76 21.46 L 810.39 21.46 L 809.99 21.46 L 809.62 21.46 L 809.21 21.46 L 808.84 21.46 L 808.07 21.46 L 807.7 21.46 L 807.3 21.09 L 806.93 20.69 L 806.52 20.32 L 806.15 19.92 L 805.79 19.92 L 805.01 19.56 L 804.6 19.15 L 820.75 19.92" fill="none" stroke="#000000" stroke-miterlimit="10" pointer-events="all" style="stroke: light-dark(rgb(0, 0, 0), rgb(255, 255, 255));"/></g></g><g data-cell-id="UvLF6wwbqHBI7OaaU3JV-5"><g transform="translate(0.5,0.5)"><path d="M 593.06 306.08 L 592.57 304.52 L 591.55 301.08 L 589.23 293.76 L 584.99 283 L 578.84 270.32 L 571.54 258.4 L 563.07 248 L 555 239.52 L 547.7 233 L 541.14 227.6 L 535.76 223.4 L 530.78 220.32 L 526.55 218 L 522.68 216.08 L 519.22 214.52 L 516.16 213 L 513.47 211.48 L 510.78 209.92 L 508.09 208.4 L 505.39 207.24 L 502.3 206.08 L 499.61 205.32 L 496.92 204.92 L 494.23 204.16 L 491.54 203.76 L 488.45 203.4 L 484.99 203 L 481.55 203 L 478.09 203.4 L 474.63 203.76 L 471.53 204.52 L 468.47 205.68 L 465.38 207.24 L 462.32 209.16 L 459.63 211.48 L 457.31 214.16 L 455.39 216.84 L 453.47 219.92 L 451.53 223.4 L 450.01 227.24 L 448.84 231.48 L 448.06 236.08 L 447.69 240.68 L 447.69 245.32 L 447.69 249.92 L 448.47 254.52 L 450.01 259.16 L 451.53 263.4 L 453.47 267.24 L 455.39 270.68 L 457.31 274.16 L 459.63 277.6 L 462.32 281.48 L 465.78 285.68 L 469.62 290.32 L 473.85 295.32 L 478.83 300.32 L 484.24 305.68 L 489.62 310.68 L 495 315.68 L 500.39 320.68 L 505.39 325.32 L 510.37 329.92 L 515.38 334.52 L 519.62 338.76 L 523.45 343 L 526.55 346.84 L 529.24 350.68 L 531.52 354.52 L 533.84 358.4 L 536.16 362.6 L 538.08 367.24 L 540 372.6 L 541.91 378.4 L 544.23 384.92 L 546.92 392.24 L 549.99 400.32 L 553.08 409.52 L 556.14 419.16 L 559.23 428.4 L 561.92 437.24 L 564.24 444.52 L 565.76 450.32 L 566.53 454.52 L 566.93 458 L 567.3 462.6 L 568.85 469.92 L 571.91 480.68 L 576.55 494.16 L 582.3 508.4 L 588.08 521.84 L 593.46 533.76 L 598.47 543.76 L 602.68 552.6 L 606.54 559.92 L 610.01 566.08 L 613.07 571.48 L 616.16 576.08 L 619.22 580.68 L 621.91 584.92 L 624.6 588.4 L 627.29 591.48 L 630.39 593.76 L 633.85 596.08 L 638.09 598.4 L 642.69 599.92 L 647.3 601.48 L 652.31 602.24 L 656.92 602.6 L 661.93 603 L 667.68 603 L 674.23 603 L 681.53 602.6 L 688.86 601.84 L 696.16 600.32 L 703.46 598 L 710.38 594.92 L 717.31 591.48 L 723.84 588 L 729.62 584.16 L 735 580.68 L 739.61 576.84 L 743.47 572.6 L 746.93 568.4 L 749.63 563.4 L 751.91 557.6 L 753.83 551.08 L 755.01 543.76 L 756.15 535.32 L 756.92 526.08 L 756.92 515.32 L 756.55 503 L 755.01 490.68 L 752.32 478.4 L 748.45 466.84 L 743.47 456.08 L 737.32 444.92 L 730.76 433.76 L 723.84 422.6 L 716.54 411.84 L 710.38 402.6 L 704.6 394.92 L 698.45 386.84 L 691.92 378 L 684.22 368 L 676.52 357.24 L 670 348.4 L 664.62 341.08 L 660.78 336.08 L 657.69 333 L 654.63 331.08 L 651.54 330.32 L 646.93 329.52 L 641.15 328.4 L 634.99 326.84 L 628.84 325.32 L 623.86 324.16 L 619.62 323 L 616.53 322.24 L 614.24 321.84 L 612.3 321.08 L 610.78 320.68 L 609.23 319.92 L 607.69 319.16 L 606.14 318.76 L 604.63 318 L 603.45 317.6 L 602.31 317.24 L 601.16 316.84 L 600.39 316.48 L 599.22 316.08 L 598.47 315.32 L 597.7 314.16 L 596.53 313.4 L 595.78 312.24 L 595.01 311.48 L 594.24 310.68 L 593.83 309.92 L 593.06 309.16 L 592.32 308.4 L 591.92 308 L 591.14 307.24 L 590.77 306.84 L 590.37 306.48 L 590 306.08 L 590 305.68 L 589.63 305.32 L 589.23 304.92 L 588.86 304.52 L 588.45 304.16 L 588.45 303.76 L 588.45 303 L 588.45 302.24 L 588.45 301.48 L 588.08 300.68 L 587.68 299.92 L 587.31 299.16 L 586.91 298.76 L 586.91 298 L 586.91 297.6 L 586.91 297.24 L 586.91 296.48 L 586.91 296.08 L 586.91 295.68 L 586.91 295.32 L 586.91 294.92 L 586.91 294.16 L 586.91 293.4 L 586.91 292.6 L 586.91 291.84 L 586.91 291.48 L 586.91 290.68 L 586.91 289.92 L 586.91 289.16 L 586.91 288.4 L 586.91 287.6 L 586.91 286.84" fill="none" stroke="#000000" stroke-miterlimit="10" pointer-events="all" style="stroke: light-dark(rgb(0, 0, 0), rgb(255, 255, 255));"/></g></g></g></g></g></svg>